<svg width="153" height="64" viewBox="0 0 153 64" fill="none" xmlns="http://www.w3.org/2000/svg">
<path d="M34.8978 51.4429V41.5437H37.2789V49.3603H41.0693V51.4429H34.8978Z" fill="white"/>
<path d="M79.2695 51.4429L78.5096 49.5006H74.7168L73.9969 51.4429H71.4229L75.5333 41.5437H77.8296L81.8976 51.4429H79.2695ZM76.6391 44.1873L75.3944 47.5845H77.8578L76.6391 44.1873Z" fill="white"/>
<path d="M120.467 48.5615C120.467 49.1012 120.361 49.5576 120.15 49.9237C119.938 50.2922 119.656 50.587 119.305 50.8105C118.954 51.0339 118.554 51.1956 118.107 51.2931C117.66 51.3905 117.202 51.4405 116.731 51.4405H112.828V41.5413H116.729C117.107 41.5413 117.493 41.5817 117.891 41.6602C118.286 41.7386 118.646 41.8741 118.971 42.0667C119.293 42.2569 119.557 42.516 119.759 42.8417C119.961 43.1674 120.063 43.5834 120.063 44.085C120.063 44.6342 119.914 45.0883 119.62 45.4472C119.324 45.8062 118.938 46.0653 118.458 46.2222V46.2508C118.736 46.2983 118.994 46.3839 119.239 46.5099C119.484 46.6359 119.696 46.7976 119.877 46.9925C120.058 47.1874 120.199 47.4157 120.305 47.6772C120.413 47.9434 120.467 48.2358 120.467 48.5615ZM117.783 44.4107C117.783 44.0755 117.656 43.8307 117.402 43.6761C117.147 43.5216 116.771 43.4455 116.275 43.4455H115.112V45.4876H116.385C116.827 45.4876 117.171 45.3973 117.416 45.2143C117.66 45.0312 117.783 44.7649 117.783 44.4107ZM118.1 48.3381C118.1 47.9292 117.947 47.6439 117.644 47.4846C117.34 47.3253 116.933 47.2469 116.427 47.2469H115.112V49.5124H116.442C116.625 49.5124 116.818 49.4958 117.016 49.4625C117.213 49.4292 117.394 49.3722 117.554 49.2866C117.714 49.2034 117.846 49.0845 117.947 48.93C118.049 48.7802 118.1 48.5805 118.1 48.3381Z" fill="white"/>
<path d="M120.366 4.15088H116.256V37.148H120.366V4.15088Z" fill="white"/>
<path d="M99.1532 33.0448H112.272V37.148H95.0451V4.15088H99.1532V33.0448Z" fill="white"/>
<path fill-rule="evenodd" clip-rule="evenodd" d="M29.8463 59.5019C55.5439 59.5019 67.942 32.5426 69.6741 28.455L83.7719 28.468C85.5247 32.5994 97.9237 59.5019 123.594 59.5019C147.506 59.5019 149.266 39.4992 149.266 36.0402C149.266 27.7576 143.238 20.5234 134.864 20.7992C126.698 21.0678 124.535 27.5008 124.535 30.6032C124.535 33.8839 126.627 37.1599 130.37 37.1599C133.787 37.1599 135.523 34.628 135.323 32.4147C135.229 31.383 134.497 29.6975 132.476 29.6975C131.111 29.6975 130.587 30.879 130.613 31.5375C130.641 32.2769 131.238 32.8165 131.758 32.8165C132.055 32.8165 132.598 32.6881 132.594 32.0748C132.589 31.4614 132.107 31.5019 132.107 31.5019C132.107 31.5019 132.518 31.5446 132.551 31.9393C132.572 32.2103 132.462 32.7167 131.808 32.7167C130.947 32.7167 130.707 31.8537 130.733 31.4305C130.782 30.589 131.671 29.8591 132.497 29.8853C134.859 29.9566 135.208 32.2673 134.81 33.5654C134.069 35.9807 131.558 36.8936 129.615 36.556C128.121 36.2969 125.147 35.0298 125.147 30.8029C125.147 23.2407 132.064 21.5718 135.398 21.5052C141.071 21.3911 148.355 26.4905 148.355 35.9902C148.355 38.5506 147.388 57.7213 123.394 57.7213C102.063 57.7213 89.8814 32.7809 88.109 28.8869C86.3367 24.9929 84.2528 19.0828 83.0552 15.8164C81.987 12.9018 79.0484 4.15088 79.0484 4.15088H74.5121C74.5121 4.15088 71.3194 13.3416 70.1853 16.4036C69.182 19.1166 66.2778 26.5389 65.5315 28.4437C64.8693 29.9732 52.5462 57.7213 30.0463 57.7213C6.05235 57.7213 5.0877 38.5506 5.0877 35.9902C5.0877 26.4905 12.372 21.3911 18.0446 21.5052C21.3786 21.5718 28.2958 23.2407 28.2958 30.8029C28.2958 35.0298 25.3219 36.2969 23.8278 36.556C21.8844 36.8936 19.374 35.9807 18.6328 33.5654C18.2352 32.2674 18.5834 29.9566 20.9457 29.8853C21.7715 29.8591 22.6608 30.589 22.7103 31.4305C22.7361 31.8537 22.4962 32.7167 21.635 32.7167C20.9809 32.7167 20.8704 32.2103 20.8915 31.9393C20.9245 31.5447 21.3362 31.5019 21.3362 31.5019C21.3362 31.5019 20.8539 31.4615 20.8492 32.0748C20.8445 32.6881 21.388 32.8165 21.6844 32.8165C22.2044 32.8165 22.802 32.2769 22.8303 31.5375C22.8561 30.879 22.3315 29.6975 20.9668 29.6975C18.9458 29.6975 18.214 31.383 18.1199 32.4148C17.9199 34.628 19.6563 37.1599 23.0726 37.1599C26.8159 37.1599 28.9076 33.8839 28.9076 30.6032C28.9076 27.5008 26.7453 21.0678 18.5787 20.7992C10.2027 20.5187 4.1748 27.7528 4.1748 36.0354C4.1748 39.4992 5.93471 59.5019 29.8463 59.5019ZM71.4229 24.4009H81.8482L76.6579 9.51173L71.4229 24.4009Z" fill="white"/>
<path d="M34.9355 4.15088H45.0244C46.9066 4.15088 48.7889 4.46231 50.6711 5.08279C52.5534 5.70564 54.2544 6.68272 55.7767 8.01877C57.299 9.35483 58.5295 11.0641 59.4706 13.1443C60.4117 15.2268 60.8823 17.7277 60.8823 20.6471C60.8823 23.4737 60.4117 25.9224 59.4706 27.9882C58.5295 30.0541 57.299 31.7634 55.7767 33.1137C54.2544 34.4664 52.5534 35.4744 50.6711 36.1424C48.7889 36.8105 46.9066 37.1433 45.0244 37.1433H34.9355V4.15088ZM39.0459 33.0923H44.1938C45.9655 33.0923 47.603 32.8118 49.1135 32.2531C50.6217 31.6945 51.9228 30.8862 53.0145 29.8307C54.1086 28.7751 54.9579 27.47 55.5673 25.9152C56.1767 24.3628 56.4802 22.606 56.4802 20.6495C56.4802 18.5978 56.1743 16.7982 55.5673 15.2434C54.9579 13.6911 54.1062 12.393 53.0145 11.3518C51.9204 10.3105 50.6193 9.51886 49.1135 8.97446C47.6054 8.43005 45.9655 8.15904 44.1938 8.15904H39.0459V33.0923Z" fill="white"/>
</svg>
