<svg width="26" height="22" viewBox="0 0 26 22" fill="none" xmlns="http://www.w3.org/2000/svg">
<path d="M3.77649 6.0979H5.81347H22.1093" stroke="#424141" stroke-width="2" stroke-linecap="round" stroke-linejoin="round"/>
<path d="M20.0723 6.09791V18.1753C20.0723 18.6329 19.8577 19.0718 19.4757 19.3953C19.0937 19.7189 18.5756 19.9007 18.0353 19.9007H7.85045C7.31021 19.9007 6.7921 19.7189 6.41009 19.3953C6.02809 19.0718 5.81348 18.6329 5.81348 18.1753V6.09791H20.0723ZM8.86894 6.09791V4.37256C8.86894 3.91497 9.08355 3.47612 9.46556 3.15256C9.84757 2.82899 10.3657 2.64722 10.9059 2.64722H14.9799C15.5201 2.64722 16.0382 2.82899 16.4202 3.15256C16.8022 3.47612 17.0169 3.91497 17.0169 4.37256V6.09791" fill="#E2E2E2"/>
<path d="M8.86894 6.09791V4.37256C8.86894 3.91497 9.08355 3.47612 9.46556 3.15256C9.84757 2.82899 10.3657 2.64722 10.9059 2.64722H14.9799C15.5201 2.64722 16.0382 2.82899 16.4202 3.15256C16.8022 3.47612 17.0169 3.91497 17.0169 4.37256V6.09791M20.0723 6.09791V18.1753C20.0723 18.6329 19.8577 19.0718 19.4757 19.3953C19.0937 19.7189 18.5756 19.9007 18.0353 19.9007H7.85045C7.31021 19.9007 6.7921 19.7189 6.41009 19.3953C6.02809 19.0718 5.81348 18.6329 5.81348 18.1753V6.09791H20.0723Z" stroke="#424141" stroke-width="2" stroke-linecap="round" stroke-linejoin="round"/>
<path d="M10.9059 10.4114V15.5874" stroke="#424141" stroke-width="2" stroke-linecap="round" stroke-linejoin="round"/>
<path d="M14.9799 10.4114V15.5874" stroke="#424141" stroke-width="2" stroke-linecap="round" stroke-linejoin="round"/>
</svg>
