<svg width="94" height="113" viewBox="0 0 94 113" fill="none" xmlns="http://www.w3.org/2000/svg">
<path d="M31.5381 84.6255L30.0599 113H42.3781L40.4072 83.1322L46.8127 88.6079C46.8127 88.6079 50.2618 88.1101 52.2327 86.1189C54.2036 84.1278 55.6818 82.1366 55.6818 82.1366L40.4072 76.6608V73.1762L57.16 79.6476C57.16 79.6476 60.6091 79.1498 62.58 76.163C64.5509 73.1762 64.5509 70.6872 64.5509 70.6872L38.929 66.7048V63.7181L63.5654 67.7004C63.5654 67.7004 66.0291 64.2159 66.5218 62.7225C67.0145 61.2291 68 56.7489 68 56.7489H38.929V53.2643L64.5509 52.7665C64.5509 52.7665 66.5218 50.2775 66.5217 48.2863C66.5216 46.2952 64.5509 43.3084 64.5509 43.3084L38.929 46.2952V43.3084L62.0871 41.3172C62.0871 41.3172 63.0726 38.3304 63.0726 36.3392C63.0726 34.348 62.0871 31.3612 62.0871 31.3612L37.9435 37.8326V34.348L57.16 29.8678V22.4009L37.9435 30.3656V27.8767L51.7398 22.4009V14.9339L37.9435 22.4009V18.9163L47.798 14.9339V7.96476L37.9435 13.9383V10.9515L42.8708 8.46255V2.48899L37.9435 6.47137V0H34.0017V6.47137L28.089 2.48899V7.46696L34.0017 10.9515V13.9383L23.6543 7.46696V13.9383L33.0163 18.9163V22.4009L18.727 13.9383V21.4053L33.0163 26.8811V29.37L14.7852 22.4009V29.8678L32.5235 33.8502V37.8326L9.85789 31.3612C9.85789 31.3612 8.87243 33.3524 8.87243 35.8414C8.87243 38.3304 9.85789 40.8194 9.85789 40.8194L32.5235 43.3084V46.2952L5.91606 42.8106C5.91606 42.8106 4.9306 45.2996 4.9306 47.7885C4.9306 50.2775 6.40879 52.7665 6.40879 52.7665L33.0163 53.2643V56.2511L4.43798 56.7489C4.43798 56.7489 3.45252 60.2335 4.43798 62.7225C5.42344 65.2115 8.37981 67.7004 8.37981 67.7004L32.5235 63.7181V66.7048L6.90163 71.6828C6.90163 71.6828 7.39435 74.1718 9.858 76.6608C12.3216 79.1498 16.2635 79.6476 16.2635 79.6476L31.5381 73.1762V76.6608L16.2635 83.1322C16.2635 83.1322 17.2489 85.1234 20.698 86.6167C24.1471 88.1101 26.6108 87.6123 26.6108 87.6123L31.5381 84.6255Z" fill="#0D1E1C"/>
<path d="M4.83206 107.548C4.83206 110.484 5.56836 113 5.56836 113H3.35945C3.35945 113 2.62314 112.58 2.99129 107.129C3.35945 101.677 5.38428 100 5.38428 100C5.38428 100 4.83206 104.613 4.83206 107.548Z" fill="#0D1E1C"/>
<path d="M6.302 109.557C6.302 111.411 7.02539 113 7.02539 113H4.85523C4.85523 113 4.13184 112.735 4.49354 109.292C4.85523 105.849 6.84454 104.79 6.84454 104.79C6.84454 104.79 6.302 107.703 6.302 109.557Z" fill="#0D1E1C"/>
<path d="M7.3219 110.13C7.3219 111.675 7.68359 112.999 7.68359 112.999H6.59851C6.59851 112.999 6.23682 112.779 6.41767 109.91C6.59851 107.04 7.59317 106.157 7.59317 106.157C7.59317 106.157 7.3219 108.585 7.3219 110.13Z" fill="#0D1E1C"/>
<path d="M1.38813 109.106C1.38813 111.203 1.91406 113 1.91406 113H0.336268C0.336268 113 -0.189663 112.7 0.0733023 108.806C0.336268 104.912 1.78258 103.714 1.78258 103.714C1.78258 103.714 1.38813 107.009 1.38813 109.106Z" fill="#0D1E1C"/>
<path d="M2.43837 110.54C2.43837 111.865 2.95508 113 2.95508 113H1.40496C1.40496 113 0.888259 112.811 1.14661 110.351C1.40496 107.892 2.8259 107.135 2.8259 107.135C2.8259 107.135 2.43837 109.216 2.43837 110.54Z" fill="#0D1E1C"/>
<path d="M3.16743 110.95C3.16743 112.054 3.42578 113 3.42578 113H2.65072C2.65072 113 2.39237 112.842 2.52155 110.793C2.65072 108.743 3.36119 108.113 3.36119 108.113C3.36119 108.113 3.16743 109.847 3.16743 110.95Z" fill="#0D1E1C"/>
<path d="M20.2272 109.645C20.2272 111.451 19 113 19 113H22.6815C22.6815 113 23.9087 112.742 23.2951 109.387C22.6815 106.032 19.3068 105 19.3068 105C19.3068 105 20.2272 107.839 20.2272 109.645Z" fill="#0D1E1C"/>
<path d="M21.9251 109.645C21.9251 111.451 21.6797 113 21.6797 113H22.416C22.416 113 22.6614 112.742 22.5387 109.387C22.416 106.032 21.741 105 21.741 105C21.741 105 21.9251 107.839 21.9251 109.645Z" fill="#0D1E1C"/>
<path d="M24.3278 110.253C24.3278 111.732 24.6895 112.999 24.6895 112.999H23.6044C23.6044 112.999 23.2427 112.788 23.4235 110.041C23.6044 107.295 24.599 106.45 24.599 106.45C24.599 106.45 24.3278 108.774 24.3278 110.253Z" fill="#0D1E1C"/>
<path d="M71.2026 107.968C71.2026 110.677 70 113 70 113H73.6079C73.6079 113 74.8105 112.613 74.2092 107.581C73.6079 102.548 70.3007 101 70.3007 101C70.3007 101 71.2026 105.258 71.2026 107.968Z" fill="#0D1E1C"/>
<path d="M74.9417 109.822C74.9417 111.533 75.6289 113 75.6289 113H73.5673C73.5673 113 72.88 112.756 73.2236 109.577C73.5673 106.399 75.4571 105.421 75.4571 105.421C75.4571 105.421 74.9417 108.11 74.9417 109.822Z" fill="#0D1E1C"/>
<path d="M77.6214 109.822C77.6214 111.533 78.3086 113 78.3086 113H76.2469C76.2469 113 75.5597 112.756 75.9033 109.577C76.2469 106.399 78.1368 105.421 78.1368 105.421C78.1368 105.421 77.6214 108.11 77.6214 109.822Z" fill="#0D1E1C"/>
<path d="M75.9103 110.351C75.9103 111.777 76.2539 113 76.2539 113H75.2231C75.2231 113 74.8795 112.796 75.0513 110.148C75.2231 107.499 76.168 106.684 76.168 106.684C76.168 106.684 75.9103 108.925 75.9103 110.351Z" fill="#0D1E1C"/>
<path d="M78.59 110.351C78.59 111.777 78.9336 113 78.9336 113H77.9028C77.9028 113 77.5592 112.796 77.731 110.148C77.9028 107.499 78.8477 106.684 78.8477 106.684C78.8477 106.684 78.59 108.925 78.59 110.351Z" fill="#0D1E1C"/>
<path d="M67.2272 109.645C67.2272 111.452 66 113 66 113H69.6815C69.6815 113 70.9087 112.742 70.2951 109.387C69.6815 106.032 66.3068 105 66.3068 105C66.3068 105 67.2272 107.839 67.2272 109.645Z" fill="#0D1E1C"/>
<path d="M68.9251 109.645C68.9251 111.452 68.6797 113 68.6797 113H69.416C69.416 113 69.6614 112.742 69.5387 109.387C69.416 106.032 68.741 105 68.741 105C68.741 105 68.9251 107.839 68.9251 109.645Z" fill="#0D1E1C"/>
<path d="M70.4342 110.253C70.4342 111.732 70.7959 113 70.7959 113H69.7108C69.7108 113 69.3491 112.789 69.53 110.042C69.7108 107.296 70.7055 106.45 70.7055 106.45C70.7055 106.45 70.4342 108.775 70.4342 110.253Z" fill="#0D1E1C"/>
<path d="M86.2026 107.548C86.2026 110.484 85 113 85 113H88.6079C88.6079 113 89.8105 112.581 89.2092 107.129C88.6079 101.677 85.3007 100 85.3007 100C85.3007 100 86.2026 104.613 86.2026 107.548Z" fill="#0D1E1C"/>
<path d="M89.9417 109.556C89.9417 111.41 90.6289 112.999 90.6289 112.999H88.5673C88.5673 112.999 87.88 112.734 88.2236 109.291C88.5673 105.848 90.4571 104.789 90.4571 104.789C90.4571 104.789 89.9417 107.702 89.9417 109.556Z" fill="#0D1E1C"/>
<path d="M92.6214 109.556C92.6214 111.41 93.3086 112.999 93.3086 112.999H91.2469C91.2469 112.999 90.5597 112.734 90.9033 109.291C91.2469 105.848 93.1368 104.789 93.1368 104.789C93.1368 104.789 92.6214 107.702 92.6214 109.556Z" fill="#0D1E1C"/>
<path d="M90.9103 110.131C90.9103 111.676 91.2539 113 91.2539 113H90.2231C90.2231 113 89.8795 112.779 90.0513 109.91C90.2231 107.041 91.168 106.158 91.168 106.158C91.168 106.158 90.9103 108.586 90.9103 110.131Z" fill="#0D1E1C"/>
<path d="M93.59 110.13C93.59 111.675 93.9336 113 93.9336 113H92.9028C92.9028 113 92.5592 112.779 92.731 109.91C92.9028 107.04 93.8477 106.157 93.8477 106.157C93.8477 106.157 93.59 108.585 93.59 110.13Z" fill="#0D1E1C"/>
</svg>
