<svg width="18" height="18" viewBox="0 0 18 18" fill="none" xmlns="http://www.w3.org/2000/svg">
<g clip-path="url(#clip0)">
<path d="M8.00586 9.45865C8.30829 9.85559 8.69413 10.184 9.13722 10.4217C9.58031 10.6594 10.0703 10.8007 10.5739 10.8361C11.0775 10.8715 11.583 10.8002 12.0561 10.6269C12.5291 10.4537 12.9587 10.1826 13.3157 9.83199L15.4283 7.75786C16.0697 7.10588 16.4246 6.23266 16.4166 5.32627C16.4086 4.41988 16.0383 3.55285 15.3854 2.91192C14.7326 2.27098 13.8495 1.90742 12.9262 1.89954C12.003 1.89167 11.1136 2.2401 10.4495 2.86981L9.23824 4.05206" stroke="#25282B" stroke-width="2.21241" stroke-linecap="round" stroke-linejoin="round"/>
<path d="M10.823 8.07599C10.5206 7.67905 10.1347 7.3506 9.69162 7.11294C9.24853 6.87527 8.75856 6.73394 8.25494 6.69853C7.75133 6.66312 7.24584 6.73446 6.77278 6.90771C6.29971 7.08096 5.87013 7.35206 5.51318 7.70264L3.40052 9.77678C2.75913 10.4288 2.40422 11.302 2.41224 12.2084C2.42027 13.1148 2.79057 13.9818 3.44341 14.6227C4.09625 15.2637 4.97938 15.6272 5.9026 15.6351C6.82582 15.643 7.71526 15.2945 8.37934 14.6648L9.58355 13.4826" stroke="#25282B" stroke-width="2.21241" stroke-linecap="round" stroke-linejoin="round"/>
</g>
<defs>
<clipPath id="clip0">
<rect width="16.9012" height="16.5931" fill="white" transform="translate(0.963867 0.470703)"/>
</clipPath>
</defs>
</svg>
