<svg width="318" height="562" viewBox="0 0 318 562" fill="none" xmlns="http://www.w3.org/2000/svg">
<path d="M136.83 420.483L129.485 561.469H190.691L180.898 413.063L212.725 440.271C212.725 440.271 229.863 437.797 239.656 427.904C249.449 418.01 256.794 408.116 256.794 408.116L180.898 380.908V363.594L264.139 395.749C264.139 395.749 281.276 393.275 291.069 378.435C300.862 363.594 300.862 351.227 300.862 351.227L173.553 331.44V316.599L295.966 336.387C295.966 336.387 308.207 319.073 310.655 311.652C313.104 304.232 318 281.971 318 281.971H173.553V264.657L300.862 262.184C300.862 262.184 310.655 249.817 310.655 239.923C310.654 230.029 300.862 215.188 300.862 215.188L173.553 230.029V215.188L288.621 205.295C288.621 205.295 293.517 190.454 293.517 180.56C293.517 170.667 288.621 155.826 288.621 155.826L168.657 187.981V170.667L264.139 148.406V111.304L168.657 150.879V138.512L237.207 111.304V74.2029L168.657 111.304V93.9904L217.621 74.2029V39.5749L168.657 69.2561V54.4155L193.139 42.0483V12.3672L168.657 32.1546V0H149.071V32.1546L119.692 12.3672V37.1015L149.071 54.4155V69.2561L97.6573 37.1015V69.2561L144.174 93.9904V111.304L73.1748 69.2561V106.358L144.174 133.565V145.932L53.5889 111.304V148.406L141.726 168.193V187.981L29.1064 155.826C29.1064 155.826 24.2099 165.72 24.2099 178.087C24.2099 190.454 29.1064 202.821 29.1064 202.821L141.726 215.188V230.029L9.52043 212.715C9.52043 212.715 4.62393 225.082 4.62393 237.449C4.62393 249.816 11.9687 262.184 11.9687 262.184L144.174 264.657V279.498L2.17622 281.971C2.17622 281.971 -2.72027 299.285 2.17622 311.652C7.07271 324.019 21.7622 336.387 21.7622 336.387L141.726 316.599V331.44L14.4175 356.174C14.4175 356.174 16.8657 368.541 29.1069 380.908C41.3482 393.275 60.9341 395.749 60.9341 395.749L136.83 363.594V380.908L60.9341 413.063C60.9341 413.063 65.8306 422.957 82.9683 430.377C100.106 437.797 112.347 435.324 112.347 435.324L136.83 420.483Z" fill="#00693E" fill-opacity="0.09"/>
</svg>
