<svg width="23" height="23" viewBox="0 0 23 23" fill="none" xmlns="http://www.w3.org/2000/svg">
<path d="M10.5417 4.573H3.83341C3.32508 4.573 2.83757 4.76615 2.47813 5.10997C2.11868 5.45379 1.91675 5.9201 1.91675 6.40633V19.2397C1.91675 19.7259 2.11868 20.1922 2.47813 20.536C2.83757 20.8798 3.32508 21.073 3.83341 21.073H17.2501C17.7584 21.073 18.2459 20.8798 18.6054 20.536C18.9648 20.1922 19.1667 19.7259 19.1667 19.2397V12.823" fill="#E2E2E2"/>
<path d="M10.5417 4.573H3.83341C3.32508 4.573 2.83757 4.76615 2.47813 5.10997C2.11868 5.45379 1.91675 5.9201 1.91675 6.40633V19.2397C1.91675 19.7259 2.11868 20.1922 2.47813 20.536C2.83757 20.8798 3.32508 21.073 3.83341 21.073H17.2501C17.7584 21.073 18.2459 20.8798 18.6054 20.536C18.9648 20.1922 19.1667 19.7259 19.1667 19.2397V12.823" stroke="#424141" stroke-width="1.78472" stroke-linecap="round" stroke-linejoin="round"/>
<path d="M17.729 3.19784C18.1103 2.83317 18.6273 2.6283 19.1665 2.6283C19.7057 2.6283 20.2228 2.83317 20.604 3.19784C20.9853 3.56251 21.1994 4.05711 21.1994 4.57284C21.1994 5.08856 20.9853 5.58317 20.604 5.94784L11.4998 14.6562L7.6665 15.5728L8.62484 11.9062L17.729 3.19784Z" fill="#424141" stroke="#424141" stroke-width="1.78472" stroke-linecap="round" stroke-linejoin="round"/>
</svg>
