<svg width="94" height="113" viewBox="0 0 94 113" fill="none" xmlns="http://www.w3.org/2000/svg">
<path d="M62.3955 84.6255L63.8737 113H51.5555L53.5264 83.1322L47.1209 88.6079C47.1209 88.6079 43.6718 88.1101 41.7009 86.1189C39.73 84.1278 38.2518 82.1366 38.2518 82.1366L53.5264 76.6608V73.1762L36.7736 79.6476C36.7736 79.6476 33.3245 79.1498 31.3536 76.163C29.3827 73.1762 29.3827 70.6872 29.3827 70.6872L55.0046 66.7048V63.7181L30.3682 67.7004C30.3682 67.7004 27.9045 64.2159 27.4118 62.7225C26.9191 61.2291 25.9336 56.7489 25.9336 56.7489H55.0046V53.2643L29.3827 52.7665C29.3827 52.7665 27.4118 50.2775 27.4119 48.2863C27.412 46.2952 29.3827 43.3084 29.3827 43.3084L55.0046 46.2952V43.3084L31.8464 41.3172C31.8464 41.3172 30.861 38.3304 30.861 36.3392C30.861 34.348 31.8464 31.3612 31.8464 31.3612L55.9901 37.8326V34.348L36.7736 29.8678V22.4009L55.9901 30.3656V27.8767L42.1938 22.4009V14.9339L55.9901 22.4009V18.9163L46.1356 14.9339V7.96476L55.9901 13.9383V10.9515L51.0628 8.46255V2.48899L55.9901 6.47137V0H59.9319V6.47137L65.8446 2.48899V7.46696L59.9319 10.9515V13.9383L70.2793 7.46696V13.9383L60.9173 18.9163V22.4009L75.2066 13.9383V21.4053L60.9173 26.8811V29.37L79.1484 22.4009V29.8678L61.4101 33.8502V37.8326L84.0757 31.3612C84.0757 31.3612 85.0612 33.3524 85.0612 35.8414C85.0612 38.3304 84.0757 40.8194 84.0757 40.8194L61.4101 43.3084V46.2952L88.0175 42.8106C88.0175 42.8106 89.003 45.2996 89.003 47.7885C89.003 50.2775 87.5248 52.7665 87.5248 52.7665L60.9173 53.2643V56.2511L89.4956 56.7489C89.4956 56.7489 90.4811 60.2335 89.4956 62.7225C88.5102 65.2115 85.5538 67.7004 85.5538 67.7004L61.4101 63.7181V66.7048L87.032 71.6828C87.032 71.6828 86.5392 74.1718 84.0756 76.6608C81.612 79.1498 77.6701 79.6476 77.6701 79.6476L62.3955 73.1762V76.6608L77.6701 83.1322C77.6701 83.1322 76.6847 85.1234 73.2356 86.6167C69.7865 88.1101 67.3228 87.6123 67.3228 87.6123L62.3955 84.6255Z" fill="#0D1E1C"/>
<path d="M89.1015 107.548C89.1015 110.484 88.3652 113 88.3652 113H90.5741C90.5741 113 91.3105 112.58 90.9423 107.129C90.5741 101.677 88.5493 100 88.5493 100C88.5493 100 89.1015 104.613 89.1015 107.548Z" fill="#0D1E1C"/>
<path d="M87.6316 109.557C87.6316 111.411 86.9082 113 86.9082 113H89.0784C89.0784 113 89.8017 112.735 89.4401 109.292C89.0784 105.849 87.089 104.79 87.089 104.79C87.089 104.79 87.6316 107.703 87.6316 109.557Z" fill="#0D1E1C"/>
<path d="M86.6117 110.13C86.6117 111.675 86.25 112.999 86.25 112.999H87.3351C87.3351 112.999 87.6968 112.779 87.5159 109.91C87.3351 107.04 86.3404 106.157 86.3404 106.157C86.3404 106.157 86.6117 108.585 86.6117 110.13Z" fill="#0D1E1C"/>
<path d="M92.5455 109.106C92.5455 111.203 92.0195 113 92.0195 113H93.5973C93.5973 113 94.1233 112.7 93.8603 108.806C93.5973 104.912 92.151 103.714 92.151 103.714C92.151 103.714 92.5455 107.009 92.5455 109.106Z" fill="#0D1E1C"/>
<path d="M91.4952 110.54C91.4952 111.865 90.9785 113 90.9785 113H92.5286C92.5286 113 93.0453 112.811 92.787 110.351C92.5286 107.892 91.1077 107.135 91.1077 107.135C91.1077 107.135 91.4952 109.216 91.4952 110.54Z" fill="#0D1E1C"/>
<path d="M90.7662 110.95C90.7662 112.054 90.5078 113 90.5078 113H91.2829C91.2829 113 91.5412 112.842 91.412 110.793C91.2829 108.743 90.5724 108.113 90.5724 108.113C90.5724 108.113 90.7662 109.847 90.7662 110.95Z" fill="#0D1E1C"/>
<path d="M73.7064 109.645C73.7064 111.451 74.9336 113 74.9336 113H71.2521C71.2521 113 70.0249 112.742 70.6385 109.387C71.2521 106.032 74.6268 105 74.6268 105C74.6268 105 73.7064 107.839 73.7064 109.645Z" fill="#0D1E1C"/>
<path d="M72.0085 109.645C72.0085 111.451 72.2539 113 72.2539 113H71.5176C71.5176 113 71.2722 112.742 71.3949 109.387C71.5176 106.032 72.1925 105 72.1925 105C72.1925 105 72.0085 107.839 72.0085 109.645Z" fill="#0D1E1C"/>
<path d="M69.6058 110.253C69.6058 111.732 69.2441 112.999 69.2441 112.999H70.3292C70.3292 112.999 70.6909 112.788 70.5101 110.041C70.3292 107.295 69.3346 106.45 69.3346 106.45C69.3346 106.45 69.6058 108.774 69.6058 110.253Z" fill="#0D1E1C"/>
<path d="M22.731 107.968C22.731 110.677 23.9336 113 23.9336 113H20.3257C20.3257 113 19.1231 112.613 19.7244 107.581C20.3257 102.548 23.6329 101 23.6329 101C23.6329 101 22.731 105.258 22.731 107.968Z" fill="#0D1E1C"/>
<path d="M18.9919 109.822C18.9919 111.533 18.3047 113 18.3047 113H20.3663C20.3663 113 21.0536 112.756 20.7099 109.577C20.3663 106.399 18.4765 105.421 18.4765 105.421C18.4765 105.421 18.9919 108.11 18.9919 109.822Z" fill="#0D1E1C"/>
<path d="M16.3122 109.822C16.3122 111.533 15.625 113 15.625 113H17.6867C17.6867 113 18.3739 112.756 18.0303 109.577C17.6867 106.399 15.7968 105.421 15.7968 105.421C15.7968 105.421 16.3122 108.11 16.3122 109.822Z" fill="#0D1E1C"/>
<path d="M18.0233 110.351C18.0233 111.777 17.6797 113 17.6797 113H18.7105C18.7105 113 19.0541 112.796 18.8823 110.148C18.7105 107.499 17.7656 106.684 17.7656 106.684C17.7656 106.684 18.0233 108.925 18.0233 110.351Z" fill="#0D1E1C"/>
<path d="M15.3436 110.351C15.3436 111.777 15 113 15 113H16.0308C16.0308 113 16.3744 112.796 16.2026 110.148C16.0308 107.499 15.0859 106.684 15.0859 106.684C15.0859 106.684 15.3436 108.925 15.3436 110.351Z" fill="#0D1E1C"/>
<path d="M26.7064 109.645C26.7064 111.452 27.9336 113 27.9336 113H24.2521C24.2521 113 23.0249 112.742 23.6385 109.387C24.2521 106.032 27.6268 105 27.6268 105C27.6268 105 26.7064 107.839 26.7064 109.645Z" fill="#0D1E1C"/>
<path d="M25.0085 109.645C25.0085 111.452 25.2539 113 25.2539 113H24.5176C24.5176 113 24.2722 112.742 24.3949 109.387C24.5176 106.032 25.1925 105 25.1925 105C25.1925 105 25.0085 107.839 25.0085 109.645Z" fill="#0D1E1C"/>
<path d="M23.4994 110.253C23.4994 111.732 23.1377 113 23.1377 113H24.2228C24.2228 113 24.5845 112.789 24.4036 110.042C24.2228 107.296 23.2281 106.45 23.2281 106.45C23.2281 106.45 23.4994 108.775 23.4994 110.253Z" fill="#0D1E1C"/>
<path d="M7.73096 107.548C7.73096 110.484 8.93359 113 8.93359 113H5.3257C5.3257 113 4.12307 112.581 4.72439 107.129C5.3257 101.677 8.63294 100 8.63294 100C8.63294 100 7.73096 104.613 7.73096 107.548Z" fill="#0D1E1C"/>
<path d="M3.9919 109.556C3.9919 111.41 3.30469 112.999 3.30469 112.999H5.36634C5.36634 112.999 6.05356 112.734 5.70995 109.291C5.36634 105.848 3.47649 104.789 3.47649 104.789C3.47649 104.789 3.9919 107.702 3.9919 109.556Z" fill="#0D1E1C"/>
<path d="M1.31222 109.556C1.31222 111.41 0.625 112.999 0.625 112.999H2.68665C2.68665 112.999 3.37387 112.734 3.03026 109.291C2.68665 105.848 0.796804 104.789 0.796804 104.789C0.796804 104.789 1.31222 107.702 1.31222 109.556Z" fill="#0D1E1C"/>
<path d="M3.0233 110.131C3.0233 111.676 2.67969 113 2.67969 113H3.71051C3.71051 113 4.05412 112.779 3.88232 109.91C3.71051 107.041 2.76559 106.158 2.76559 106.158C2.76559 106.158 3.0233 108.586 3.0233 110.131Z" fill="#0D1E1C"/>
<path d="M0.343609 110.13C0.343609 111.675 0 113 0 113H1.03083C1.03083 113 1.37443 112.779 1.20263 109.91C1.03083 107.04 0.0859021 106.157 0.0859021 106.157C0.0859021 106.157 0.343609 108.585 0.343609 110.13Z" fill="#0D1E1C"/>
</svg>
