<svg width="30" height="28" viewBox="0 0 30 28" fill="none" xmlns="http://www.w3.org/2000/svg">
<path fill-rule="evenodd" clip-rule="evenodd" d="M15.0013 25.3234C21.2551 25.3234 26.3249 20.2537 26.3249 13.9998C26.3249 7.74601 21.2551 2.67627 15.0013 2.67627C8.74747 2.67627 3.67773 7.74601 3.67773 13.9998C3.67773 20.2537 8.74747 25.3234 15.0013 25.3234Z" fill="white"/>
<path fill-rule="evenodd" clip-rule="evenodd" d="M16.0728 13.0667V9.0999C16.0728 8.7133 15.5931 8.3999 15.0014 8.3999C14.4096 8.3999 13.93 8.7133 13.93 9.0999V13.0667H9.5056C8.99013 13.0667 8.57227 13.4846 8.57227 14C8.57227 14.5155 8.99013 14.9334 9.5056 14.9334H13.93V18.8999C13.93 19.2865 14.4096 19.5999 15.0014 19.5999C15.5931 19.5999 16.0728 19.2865 16.0728 18.8999V14.9334H20.4961C21.0115 14.9334 21.4294 14.5155 21.4294 14C21.4294 13.4846 21.0115 13.0667 20.4961 13.0667H16.0728Z" fill="#00693E"/>
</svg>
