<svg id="Layer_1" data-name="Layer 1" xmlns="http://www.w3.org/2000/svg" viewBox="0 0 450 450"><defs><style>.cls-1{fill:#fff;}</style></defs><path class="cls-1" d="M202.71,25H29.57v7.43c15.43,9.14,22.29,20,22.29,63.43V354.14c0,43.43-6.86,54.29-22.29,63.43V425H191.86c4.26,0,8.45-.08,12.6-.23,1.54-16.41,3.28-40.19,4.41-63.95l.61-16.65c-.09-.93-.53-1.6-1.58-.5-14.06,14.8-14.79,12.51-20.61,10.81-6.51-1.91-26.16-9.06-29.08-11.09-2.61-1.81-1.86-2.77,1.12-4,14.83-6.26,46.3-20.28,50.7-22.13a.84.84,0,0,0,.52-.75l.37-9.44a.86.86,0,0,0-1.15-.84c-7.67,2.87-46.81,19-52.56,21.15-6.32,2.34-9.91,2-14.93-1.44-3.86-2.67-16.55-17.6-18.65-21.16-.79-1.33-1.64-2.62.87-3.16s78.52-16,86.64-17.48a.85.85,0,0,0,.69-.8l.37-9.26a.85.85,0,0,0-1-.87c-8.7,1.35-67.83,11.79-74.41,12.87-7.09,1.15-8.64-1.55-11.08-4.65s-10.67-21-11.59-22.71c-1.68-3.09-1.82-4.45,1.14-4.64,24.77-1.59,89.22-5.4,97.21-5.89a.86.86,0,0,0,.8-.82l.32-8.65a.86.86,0,0,0-.88-.89c-8.3.28-74.87,2.31-79.3,2.16s-6.44-.64-8.89-5.8c-2.2-4.63-5-24.48-5.25-26.67-.19-1.66-.38-3,2.47-2.44,22.63,4.18,83.57,10.94,91.77,12a.85.85,0,0,0,.95-.81l.31-8a.85.85,0,0,0-.72-.88c-7-1.09-62.71-9.46-68.88-10.59-6.63-1.21-7.81-2.46-9.35-7.29-1.07-3.32-2.2-19.64-2.23-21.38s-.17-2.89,2.3-2.17c37.63,11,72.36,19.78,78.66,21.36a.84.84,0,0,0,1.06-.79l.3-7.7a.85.85,0,0,0-.63-.86c-6-1.61-51.41-13.8-55.2-15.07-4.31-1.44-7.95-3.45-8.77-8.47s-.92-15.94-.77-18.36.46-3.1,2.49-2.1c17.08,8.44,55.53,22.83,62.52,25.42a.85.85,0,0,0,1.15-.76l.29-7.45a.87.87,0,0,0-.53-.82c-4.65-1.9-37.28-15.25-42.68-17.59-5.24-2.28-6.24-4.12-6.76-8.91a76.08,76.08,0,0,1,.26-14.12c.4-2.72.2-3.39,4.34-.93,8.29,4.93,38.48,20.65,44.86,24a.85.85,0,0,0,1.25-.73l.28-7.33a.85.85,0,0,0-.45-.78c-3.25-1.75-22.56-12.09-27.08-14.56-5.88-3.22-7.54-5.71-7.67-8.47a84.55,84.55,0,0,1,.58-13.28c.53-3.81,1.38-4.32,3.89-2.32,10.87,8.68,25.77,18.44,30.15,21.28a.85.85,0,0,0,1.31-.69l.26-6.56a.88.88,0,0,0-.32-.7c-2.54-2-18.67-13.73-18.67-13.73S197.92,83,197.94,81a65.84,65.84,0,0,1,1.7-12.08c.58-1.62.93-2.5,2.69-.74a204.69,204.69,0,0,0,16.09,14.63c.9.74,1.24.88,1.24.13,0-7.52-3.42-22.4,4-26.5a.87.87,0,0,1,.39-.1.91.91,0,0,1,.4.1c7.42,4.1,4,19,4,26.5,0,.75.34.61,1.24-.13a204.69,204.69,0,0,0,16.09-14.63c1.75-1.76,2.11-.88,2.68.74A64.84,64.84,0,0,1,250.17,81c0,2-2.1,3.93-2.1,3.93S232,96.58,229.41,98.61a.88.88,0,0,0-.32.7l.25,6.56a.86.86,0,0,0,1.32.69c4.37-2.84,19.27-12.6,30.15-21.28,2.51-2,3.36-1.49,3.89,2.32a86.82,86.82,0,0,1,.59,13.28c-.13,2.76-1.8,5.25-7.68,8.47-4.52,2.47-23.83,12.81-27.09,14.56a.85.85,0,0,0-.45.78l.29,7.33a.85.85,0,0,0,1.24.73c6.39-3.32,36.57-19,44.87-24,4.14-2.46,3.94-1.79,4.34.93a75.11,75.11,0,0,1,.25,14.12c-.51,4.79-1.52,6.63-6.76,8.91s-38,15.69-42.67,17.59a.87.87,0,0,0-.53.82l.29,7.45a.84.84,0,0,0,1.15.76c7-2.59,45.43-17,62.52-25.42,2-1,2.33-.35,2.49,2.1s.05,13.29-.78,18.36-4.44,7-8.76,8.47c-3.79,1.27-49.2,13.46-55.21,15.07a.87.87,0,0,0-.63.86l.3,7.7a.85.85,0,0,0,1.06.79c6.31-1.58,41-10.35,78.67-21.36,2.47-.72,2.32.35,2.29,2.17s-1.16,18.06-2.22,21.38c-1.54,4.83-2.73,6.08-9.35,7.29-6.16,1.13-61.91,9.5-68.88,10.59a.85.85,0,0,0-.72.88l.31,8a.85.85,0,0,0,1,.81c8.2-1,69.13-7.78,91.77-12,2.85-.53,2.66.78,2.47,2.44-.26,2.19-3.05,22-5.26,26.67-2.45,5.16-4.38,5.65-8.89,5.8s-71-1.88-79.29-2.16a.86.86,0,0,0-.88.89l.32,8.65a.86.86,0,0,0,.8.82c8,.49,72.44,4.3,97.21,5.89,3,.19,2.81,1.55,1.14,4.64-.92,1.7-9.14,19.62-11.59,22.71s-4,5.8-11.08,4.65c-6.58-1.08-65.71-11.52-74.41-12.87a.85.85,0,0,0-1,.87l.37,9.26a.85.85,0,0,0,.69.8c8.12,1.52,84.25,17,86.63,17.48s1.67,1.83.88,3.16c-2.1,3.56-14.79,18.49-18.65,21.16-5,3.48-8.61,3.78-14.94,1.44-5.74-2.13-44.88-18.28-52.55-21.15a.86.86,0,0,0-1.15.84l.37,9.44a.84.84,0,0,0,.52.75c4.4,1.85,35.87,15.87,50.7,22.13,3,1.25,3.72,2.21,1.12,4-2.93,2-22.57,9.18-29.08,11.09-5.82,1.7-6.55,4-20.61-10.81-1.05-1.1-1.49-.43-1.58.5l.61,16.65c1,22.06,2.62,44.13,4.07,60.32,115.89-18.25,177.12-99.49,177.12-205.85C420.43,106.14,346.14,25,202.71,25"/></svg>