<svg width="82" height="69" viewBox="0 0 82 69" fill="none" xmlns="http://www.w3.org/2000/svg">
<path fill-rule="evenodd" clip-rule="evenodd" d="M21.4793 0.177014C21.0246 0.412734 20.6529 0.832601 20.5864 1.18579C20.5578 1.33726 20.5489 1.7823 20.5668 2.17483C20.603 2.97538 20.8194 3.56607 21.221 3.96093C21.4129 4.14949 21.49 4.17566 21.7513 4.14082C22.229 4.07708 22.6532 3.72931 22.9524 3.15627C23.2053 2.67182 23.2125 2.63295 23.1814 1.92045C23.1393 0.955108 22.9302 0.448665 22.4609 0.175C22.06 -0.0587839 21.9337 -0.0585515 21.4793 0.177014ZM17.3689 3.52728C17.3725 3.85739 17.4013 4.33395 17.4329 4.58639C17.4851 5.00363 17.5226 5.0741 17.8453 5.36077C18.0405 5.53423 18.5418 5.85041 18.9593 6.06336C20.7747 6.98952 21.3158 7.58764 21.2379 8.5821L21.2142 8.88473L20.583 8.62709C19.6588 8.24989 18.5813 7.59221 17.255 6.59582L16.0824 5.71489H15.3753C14.7762 5.71489 14.6427 5.73851 14.5015 5.86946C14.2934 6.06235 14.2237 6.41779 14.2619 7.09166C14.3012 7.78163 14.4787 8.02912 15.166 8.35172C17.652 9.51855 20.7305 11.1059 20.9701 11.3443C21.2752 11.6479 21.3706 11.939 21.2887 12.3165C21.2311 12.5821 20.966 13.1489 20.8994 13.1489C20.8779 13.1489 20.6423 13.0137 20.3757 12.8485C20.1093 12.6834 18.8408 11.9283 17.5569 11.1708C16.2729 10.4132 15.0298 9.6646 14.7944 9.50717C13.6716 8.75649 13.1269 8.64235 12.5396 9.03488C12.1454 9.29832 11.7842 9.80368 11.7104 10.195C11.6408 10.5644 11.775 11.1752 12.0463 11.7242L12.2654 12.1675L15.4559 13.3574C20.0707 15.0785 20.4507 15.2307 20.8108 15.502C21.212 15.8042 21.4086 16.1766 21.4082 16.6336C21.4078 17.0638 21.2756 17.5591 21.1482 17.6078C21.0958 17.6277 20.1263 17.2395 18.9937 16.7449C10.6515 13.102 10.9639 13.2263 10.1518 13.2263C9.46184 13.2263 8.9348 13.7227 8.67178 14.62C8.51141 15.167 8.5132 15.7306 8.67684 16.2125C8.82679 16.6544 9.30403 17.3689 9.5921 17.5829C9.7342 17.6885 10.9771 17.9676 13.9848 18.5696C19.8686 19.7472 20.2663 19.8428 20.7961 20.207C21.2249 20.5018 21.382 21.2571 21.1263 21.7935C20.8026 22.4722 20.5174 22.4552 17.7979 21.595C13.5962 20.266 7.81465 18.4921 7.68478 18.4921C7.47312 18.4921 6.53459 18.9965 6.18115 19.3002C6.00187 19.4542 5.76095 19.7718 5.64578 20.0061C5.45911 20.3858 5.44051 20.4956 5.4742 21.0185C5.50673 21.5224 5.56299 21.7048 5.87339 22.3137C6.4823 23.5077 6.27072 23.4024 8.53032 23.6354C9.60028 23.7458 11.2986 23.921 12.3044 24.0249C13.3101 24.1288 14.9209 24.3021 15.8839 24.4101C16.8468 24.5182 18.0549 24.6422 18.5685 24.6858C19.9961 24.8071 20.3062 24.8881 20.6491 25.2294C20.933 25.5118 20.9418 25.5375 20.9418 26.0743C20.9418 27.1189 20.5901 27.5078 19.6968 27.4509C19.4186 27.4332 17.195 27.0635 14.7555 26.6292C12.316 26.195 10.0224 25.7879 9.65864 25.7246C9.29485 25.6612 8.03424 25.4368 6.85729 25.2259C5.68033 25.015 4.64469 24.8423 4.5559 24.8422C4.20122 24.8418 3.13095 26.4291 2.91175 27.2806C2.67597 28.1964 2.96264 29.2873 3.63341 30.0261C4.25562 30.7115 4.93043 30.8687 6.69154 30.7387C9.82765 30.5073 11.1082 30.4386 15.8839 30.2455C19.4082 30.1031 20.0652 30.1108 20.3764 30.298C20.7195 30.5044 20.892 30.8958 20.8899 31.4629C20.8878 32.0407 20.7137 32.4603 20.3964 32.6523C20.1666 32.7914 20.0109 32.7976 17.6487 32.7619C16.2714 32.7412 12.7985 32.7599 9.93099 32.8035C5.55427 32.8702 4.61123 32.8655 4.05594 32.7746C2.42447 32.5075 1.88785 32.7149 1.43022 33.7897C0.889797 35.0591 0.740781 36.6869 1.08293 37.5837C1.27311 38.0822 1.71285 38.7139 2.03275 38.9482C2.21834 39.0841 2.28105 39.0853 3.39451 38.9744C6.02342 38.7129 6.80671 38.5672 12.4211 37.2962C12.9775 37.1703 14.3781 36.8764 15.5337 36.643C16.8635 36.3746 17.8918 36.122 18.335 35.9548C19.4655 35.5289 19.7135 35.4858 20.06 35.6557C20.5076 35.8751 20.7473 36.4017 20.7473 37.1658C20.7473 37.6498 20.7166 37.8034 20.5844 37.9811C20.3304 38.3221 19.8573 38.612 19.3466 38.7392C18.9353 38.8416 14.5934 39.4924 4.93767 40.8988C1.70289 41.37 1.81284 41.335 0.986755 42.1571C0.252257 42.888 -0.188799 44.2272 0.0788848 44.9141C0.349915 45.6097 0.464304 45.8398 0.731677 46.2273C0.990568 46.6027 1.34221 46.9508 1.87042 47.3545C2.0708 47.5077 2.3093 47.4735 3.82289 47.074C5.81534 46.5483 7.58937 45.9453 11.0281 44.6249C14.3406 43.353 15.1584 43.0488 16.846 42.4612C17.4938 42.2357 18.3534 41.9223 18.7562 41.7649C19.6034 41.4337 19.8862 41.4408 20.1903 41.8005C20.6967 42.3994 20.7642 43.2749 20.3443 43.7979C19.9516 44.287 19.4423 44.5654 18.2679 44.9327C16.9546 45.3436 8.17703 47.9434 4.01703 49.1536C2.00287 49.7395 1.02076 50.0602 0.93672 50.1592C0.562662 50.6001 0.34937 53.2316 0.64429 53.7666C1.12573 54.6399 2.10286 54.9844 4.13376 54.997L5.26208 55.004L7.79107 53.6188C9.18202 52.8571 10.4951 52.1385 10.7091 52.0222C10.9231 51.9058 11.8336 51.4103 12.7323 50.9212C13.6311 50.4321 15.1368 49.6204 16.0784 49.1175C17.02 48.6147 18.0252 48.0537 18.3123 47.871C19.0716 47.3875 19.2678 47.2989 19.5798 47.2989C20.2825 47.2989 20.7138 48.4345 20.3297 49.2736C20.1014 49.7724 19.6201 50.1306 18.3982 50.7105C17.7751 51.0062 17.2553 51.2482 17.2431 51.2482C17.2308 51.2482 16.5436 51.565 15.7158 51.9521C14.3086 52.6103 11.1201 54.0361 8.06343 55.374C6.04467 56.2575 5.55746 56.4974 5.50486 56.6338C5.43242 56.8217 5.44666 57.1252 5.53575 57.2909C5.70539 57.6062 7.20792 57.7936 9.50301 57.7856C11.1542 57.7799 11.2981 57.7676 12.032 57.5693C13.0615 57.2912 14.0775 56.787 14.7944 56.1984C15.3012 55.7822 15.86 55.3579 16.7835 54.6879C17.4264 54.2214 19.4172 53.1067 19.6075 53.1067C19.7443 53.1067 20.0081 53.87 20.0081 54.2658C20.0081 55.0095 19.7657 55.368 18.6196 56.3204C18.2096 56.6611 17.7417 57.1141 17.5799 57.3271L17.2857 57.7143L17.9112 57.7676C18.9512 57.8561 19.2907 58.0483 19.5954 58.721C19.7288 59.0154 19.7661 64.5891 19.7562 65.8571L19.7661 68.4228H20.0831C20.3108 68.4228 20.441 68.4224 20.8555 68.4224C21.3634 68.4224 21.3834 68.4224 22.8065 68.4224C23.6569 68.4224 23.9043 68.4224 24.046 68.4224C24.2452 68.4224 24.0977 68.4228 24.798 68.4228C24.798 68.1905 24.7977 68.2074 24.7977 67.395C24.7977 66.5825 24.7977 68.8432 24.7977 67.7425C24.7977 66.6418 24.7977 66.6418 24.7977 65.187C24.7977 59.6724 24.893 66.9515 24.7977 63.1736C24.7977 60.0596 24.7973 59.9063 24.7973 59.3888C24.4506 58.413 24.8654 57.9808 26.2864 57.8376C26.9991 57.7656 27.1918 57.6585 27.2837 57.2833C27.3298 57.0952 27.2841 57.0606 26.4132 56.6256C24.9752 55.9074 24.4316 55.2786 24.6013 54.5298C24.6791 54.1865 24.913 53.8527 25.1015 53.8158C25.4058 53.7564 25.776 53.9083 26.5106 54.3938C26.9359 54.6749 27.4939 55.0102 27.7507 55.1392C28.0075 55.268 28.4102 55.5236 28.6455 55.7069C29.1405 56.0925 30.8297 56.9438 31.6803 57.2363C32.4547 57.5026 33.3711 57.7241 34.1177 57.8253C35.3804 57.9965 37.7047 57.8805 38.7039 57.5962C38.8648 57.5504 39.052 57.4286 39.1199 57.3255C39.2337 57.1526 39.2321 57.1152 39.0997 56.8471C38.9329 56.5096 39.0631 56.5806 36.3492 55.3456C35.2151 54.8295 33.8494 54.2053 33.3145 53.9585C32.7795 53.7117 31.7115 53.2229 30.9411 52.8723C25.1255 50.2255 24.7309 50.0185 24.3078 49.3938C23.8924 48.7804 24.3101 47.6118 25.0291 47.3757C25.3729 47.2628 25.7432 47.4007 26.4278 47.8969C26.7274 48.114 27.7079 48.6741 28.6066 49.1414C29.5054 49.6088 32.2712 51.0619 34.7529 52.3704C37.2346 53.6789 39.4373 54.8171 39.6478 54.8997C40.8298 55.3634 42.0319 55.3811 43.0541 54.9501C43.4596 54.7791 43.5437 54.6337 43.9404 53.4165C44.1129 52.8873 44.1562 52.6065 44.1613 51.9839C44.1685 51.1062 44.1021 50.9237 43.5629 50.3416C43.1427 49.888 42.6033 49.6273 41.3683 49.2809C37.0464 48.0685 25.6202 44.6743 25.1828 44.4729C24.3009 44.0669 23.8973 43.5512 23.9005 42.8346C23.9026 42.3755 24.1148 41.8868 24.4143 41.6516C24.725 41.4075 25.1593 41.4622 26.0387 41.8561C26.4239 42.0286 27.0367 42.2629 27.4005 42.3767C28.5164 42.7261 30.0509 43.2887 32.6919 44.3167C37.4767 46.1793 38.4826 46.5214 41.2296 47.2202C42.3208 47.4977 42.2853 47.5047 42.954 46.8804C43.9738 45.9283 44.4107 45.0181 44.3468 43.9792C44.2979 43.1864 44.0802 42.7465 43.4086 42.0836C42.6352 41.3203 42.42 41.2432 40.1622 40.9196C30.5209 39.5376 25.0413 38.7087 24.6934 38.5797C24.262 38.4197 23.905 38.1177 23.7715 37.7996C23.6446 37.4972 23.6337 36.7677 23.75 36.3509C23.9351 35.6878 24.3706 35.54 25.2649 35.8368C25.5193 35.9212 28.1611 36.4762 31.1356 37.0702C34.1101 37.6641 37.6944 38.3823 39.1008 38.666L41.6578 39.182L42.0779 38.8941C43.1802 38.1386 43.6647 36.9739 43.436 35.629C43.3457 35.0971 42.8886 32.95 42.8597 32.9211C42.851 32.9126 38.7127 32.8946 33.6632 32.8812L24.4824 32.8568L24.1323 32.6512C23.6849 32.3885 23.492 32.1787 23.2432 31.684C23.0021 31.2044 22.9914 30.968 23.1993 30.705C23.5352 30.2801 23.8215 30.2413 26.2867 30.2863C35.6077 30.4562 39.0979 30.49 39.4422 30.4136C40.0118 30.2873 40.6121 29.9619 41.0865 29.5225L41.5178 29.1229L41.4207 27.9311C41.3029 26.4853 41.1679 25.9601 40.8059 25.5392C40.2751 24.9222 39.5242 24.7016 38.5467 24.8754C37.096 25.1334 32.0029 26.0475 29.0735 26.5757C24.5003 27.4002 24.2386 27.437 23.8639 27.3089C23.4808 27.1779 23.2814 26.8582 23.2213 26.2785C23.1897 25.9735 23.2147 25.7511 23.3084 25.5071C23.5427 24.8965 23.7805 24.8182 26.2722 24.5312C27.3421 24.4079 28.5152 24.2709 28.879 24.2268C29.2428 24.1826 30.2758 24.0588 31.1745 23.9515C32.0733 23.8443 33.0888 23.7217 33.4312 23.6791C33.7736 23.6365 34.8066 23.5137 35.7267 23.4062C36.6469 23.2988 37.4576 23.1933 37.5285 23.1717C37.8263 23.0812 38.3083 21.6363 38.355 20.6936C38.3847 20.0927 38.3665 19.9457 38.2289 19.6772C37.9424 19.1183 37.2775 18.7003 36.3458 18.493L35.9144 18.3972L31.7158 19.7677C29.4066 20.5214 26.7819 21.3784 25.8831 21.6721C23.8667 22.3309 23.8354 22.3373 23.476 22.1676C22.7914 21.8443 22.6714 20.6933 23.2727 20.2165C23.7805 19.8139 24.3256 19.6678 31.0189 18.141C33.4467 17.5872 34.0498 17.3724 34.7611 16.8086L35.1574 16.4945L35.2047 15.6542C35.2881 14.1748 35.0895 13.333 34.5949 13.0696C34.3362 12.9318 33.5841 12.9494 33.0546 13.1055C32.8337 13.1707 32.0402 13.5575 31.2913 13.9653C29.3143 15.0416 27.3109 16.0026 25.8442 16.5781C24.3368 17.1696 22.9495 17.6032 22.7763 17.5371C22.5918 17.4666 22.6114 16.5354 22.806 16.1303C23.1366 15.4417 23.5192 15.2005 25.14 14.6589C28.0924 13.6724 31.1762 12.5144 31.3467 12.3282C31.4414 12.2248 31.6656 11.8945 31.845 11.5941C32.3741 10.7077 32.3657 10.0104 31.8181 9.3914C31.4495 8.97455 31.1275 8.8124 30.6687 8.8124C30.2771 8.8124 29.9697 8.93738 29.3781 9.33719C29.125 9.50817 28.165 10.0833 27.2449 10.6152C26.3247 11.1471 24.9766 11.9347 24.249 12.3653C22.7728 13.239 22.8131 13.2346 22.6628 12.5375C22.5786 12.1467 22.6469 11.683 22.8212 11.4635C23.0478 11.178 23.3029 11.027 25.1439 10.0895C27.5243 8.87714 28.4893 8.24734 28.9151 7.62822C29.1785 7.24529 29.2233 7.12077 29.2219 6.77641C29.221 6.55393 29.1589 6.24658 29.0835 6.09085C28.903 5.71791 28.4295 5.17283 28.2861 5.17283C28.2235 5.17283 27.5769 5.64256 26.8493 6.21669C24.7623 7.8634 24.111 8.28482 23.0246 8.69144L22.5006 8.88759L22.4506 8.68966C22.3728 8.38092 22.4823 7.79967 22.6695 7.52779C22.8475 7.26914 23.3403 6.92346 24.437 6.28801C25.673 5.57179 26.2874 4.75869 26.3705 3.72939L26.412 3.21435L26.1865 3.26933C26.0624 3.29961 25.456 3.51721 24.8387 3.75285C23.0242 4.44577 22.616 4.55898 21.7589 4.60684C20.4804 4.67831 19.6125 4.37785 18.3739 3.43482C18.0102 3.15782 17.6338 2.93031 17.5374 2.92915C17.3702 2.92721 17.3627 2.95401 17.3689 3.52728Z" fill="#00341F"/>
<path fill-rule="evenodd" clip-rule="evenodd" d="M62.2569 25.1112C61.9713 25.2592 61.7379 25.5229 61.6961 25.7448C61.6782 25.8399 61.6726 26.1194 61.6838 26.3659C61.7066 26.8687 61.8424 27.2397 62.0947 27.4877C62.2152 27.6061 62.2637 27.6226 62.4277 27.6007C62.7277 27.5607 62.9942 27.3422 63.1821 26.9823C63.341 26.6781 63.3455 26.6537 63.3259 26.2062C63.2995 25.5999 63.1681 25.2818 62.8734 25.1099C62.6216 24.9631 62.5423 24.9632 62.2569 25.1112ZM59.6753 27.2153C59.6776 27.4227 59.6957 27.722 59.7155 27.8805C59.7483 28.1426 59.7719 28.1868 59.9745 28.3669C60.0971 28.4758 60.412 28.6744 60.6742 28.8082C61.8144 29.3898 62.1542 29.7655 62.1053 30.3901L62.0904 30.5801L61.694 30.4183C61.1135 30.1814 60.4368 29.7684 59.6038 29.1426L58.8673 28.5893H58.4232C58.0469 28.5893 57.9631 28.6041 57.8744 28.6864C57.7437 28.8075 57.7 29.0308 57.724 29.454C57.7486 29.8873 57.8601 30.0428 58.2918 30.2454C59.8531 30.9782 61.7866 31.9752 61.9371 32.1249C62.1287 32.3156 62.1886 32.4984 62.1372 32.7355C62.101 32.9023 61.9345 33.2583 61.8927 33.2583C61.8792 33.2583 61.7312 33.1734 61.5638 33.0697C61.3965 32.9659 60.5998 32.4917 59.7934 32.0159C58.987 31.5401 58.2062 31.07 58.0584 30.9711C57.3532 30.4996 57.0111 30.4279 56.6422 30.6744C56.3946 30.8399 56.1678 31.1573 56.1214 31.4031C56.0777 31.6351 56.162 32.0187 56.3324 32.3635L56.47 32.6419L58.4738 33.3892C61.3722 34.4702 61.6109 34.5658 61.837 34.7362C62.089 34.926 62.2125 35.1599 62.2122 35.4469C62.212 35.7171 62.129 36.0282 62.049 36.0587C62.0161 36.0713 61.4072 35.8274 60.6958 35.5168C55.4564 33.2288 55.6526 33.3069 55.1425 33.3069C54.7092 33.3069 54.3782 33.6187 54.213 34.1822C54.1123 34.5258 54.1134 34.8798 54.2162 35.1824C54.3104 35.4599 54.6101 35.9087 54.791 36.0431C54.8803 36.1094 55.6609 36.2848 57.5499 36.6628C61.2453 37.4024 61.4951 37.4625 61.8278 37.6912C62.0971 37.8764 62.1958 38.3507 62.0352 38.6876C61.8319 39.1139 61.6528 39.1032 59.9447 38.5629C57.3059 37.7283 53.6747 36.6142 53.5931 36.6142C53.4602 36.6142 52.8707 36.9309 52.6487 37.1217C52.5361 37.2184 52.3848 37.4179 52.3125 37.565C52.1953 37.8035 52.1836 37.8725 52.2047 38.2009C52.2252 38.5174 52.2605 38.632 52.4554 39.0143C52.8379 39.7642 52.705 39.6981 54.1242 39.8445C54.7962 39.9138 55.8628 40.0239 56.4945 40.0891C57.1262 40.1543 58.1378 40.2632 58.7426 40.331C59.3474 40.3989 60.1062 40.4768 60.4287 40.5042C61.3253 40.5803 61.5201 40.6313 61.7355 40.8456C61.9138 41.023 61.9193 41.0391 61.9193 41.3763C61.9193 42.0323 61.6984 42.2766 61.1374 42.2409C60.9627 42.2297 59.5661 41.9975 58.034 41.7247C56.5018 41.452 55.0613 41.1964 54.8328 41.1566C54.6043 41.1168 53.8126 40.9758 53.0734 40.8434C52.3342 40.7109 51.6837 40.6025 51.628 40.6024C51.4052 40.6021 50.733 41.5991 50.5954 42.1339C50.4473 42.7091 50.6273 43.3942 51.0486 43.8582C51.4394 44.2887 51.8632 44.3874 52.9693 44.3058C54.939 44.1604 55.7432 44.1173 58.7426 43.996C60.9561 43.9066 61.3687 43.9114 61.5642 44.029C61.7797 44.1586 61.8881 44.4045 61.8867 44.7606C61.8854 45.1235 61.7761 45.387 61.5768 45.5076C61.4325 45.595 61.3347 45.5989 59.8511 45.5765C58.9861 45.5634 56.8048 45.5752 55.0039 45.6026C52.255 45.6445 51.6627 45.6416 51.314 45.5845C50.2893 45.4167 49.9523 45.547 49.6649 46.222C49.3254 47.0193 49.2319 48.0416 49.4468 48.6048C49.5662 48.9179 49.8424 49.3147 50.0433 49.4618C50.1599 49.5472 50.1992 49.5479 50.8986 49.4783C52.5497 49.314 53.0416 49.2225 56.5678 48.4243C56.9172 48.3452 57.7969 48.1606 58.5227 48.014C59.3579 47.8454 60.0037 47.6868 60.2821 47.5818C60.9921 47.3143 61.1479 47.2872 61.3655 47.3939C61.6466 47.5317 61.7972 47.8625 61.7972 48.3424C61.7972 48.6464 61.7779 48.7428 61.6948 48.8544C61.5354 49.0686 61.2382 49.2507 60.9175 49.3306C60.6591 49.3949 57.9321 49.8036 51.8678 50.687C49.8361 50.9829 49.9052 50.9609 49.3863 51.4772C48.925 51.9363 48.648 52.7774 48.8161 53.2088C48.9864 53.6457 49.0582 53.7902 49.2261 54.0336C49.3887 54.2693 49.6096 54.4879 49.9413 54.7415C50.0672 54.8377 50.217 54.8162 51.1676 54.5653C52.419 54.2352 53.5332 53.8564 55.6929 53.0272C57.7734 52.2283 58.287 52.0373 59.3469 51.6682C59.7537 51.5266 60.2936 51.3298 60.5467 51.2309C61.0787 51.0229 61.2563 51.0273 61.4473 51.2532C61.7654 51.6294 61.8078 52.1793 61.5441 52.5077C61.2974 52.8149 60.9775 52.9897 60.2399 53.2205C59.4151 53.4785 53.9023 55.1113 51.2895 55.8715C50.0245 56.2394 49.4077 56.4408 49.3549 56.503C49.12 56.7799 48.986 58.4326 49.1713 58.7687C49.4736 59.3171 50.0873 59.5336 51.3629 59.5414L52.0715 59.5458L53.6599 58.6759C54.5335 58.1974 55.3582 57.7462 55.4926 57.6731C55.627 57.6 56.1988 57.2888 56.7633 56.9816C57.3278 56.6744 58.2734 56.1646 58.8648 55.8488C59.4562 55.533 60.0875 55.1806 60.2678 55.0659C60.7447 54.7622 60.8679 54.7066 61.0639 54.7066C61.5052 54.7066 61.7761 55.4198 61.5349 55.9468C61.3915 56.2601 61.0892 56.485 60.3218 56.8493C59.9305 57.035 59.604 57.187 59.5963 57.187C59.5886 57.187 59.157 57.3859 58.6371 57.6291C57.7532 58.0425 55.7507 58.9379 53.8309 59.7782C52.563 60.3331 52.257 60.4838 52.224 60.5695C52.1785 60.6875 52.1874 60.8781 52.2434 60.9821C52.3499 61.1802 53.2936 61.2979 54.7351 61.2929C55.7721 61.2893 55.8625 61.2815 56.3234 61.157C56.97 60.9823 57.6081 60.6657 58.0584 60.296C58.3767 60.0346 58.7276 59.7681 59.3076 59.3473C59.7114 59.0543 60.9618 58.3543 61.0813 58.3543C61.1672 58.3543 61.3329 58.8336 61.3329 59.0822C61.3329 59.5493 61.1807 59.7745 60.4608 60.3726C60.2033 60.5866 59.9095 60.8711 59.8079 61.0049L59.6231 61.2481L60.016 61.2815C60.6691 61.3371 60.8823 61.4578 61.0737 61.8803C61.1575 62.0652 61.1809 65.5658 61.1747 66.3622L61.1809 67.9737H61.38C61.523 67.9737 61.6048 67.9734 61.8651 67.9734C62.1841 67.9734 62.1967 67.9734 63.0905 67.9734C63.6246 67.9734 63.78 67.9734 63.8689 67.9734C63.9941 67.9734 63.9014 67.9737 64.3413 67.9737C64.3413 67.8278 64.341 68.0567 64.341 67.5464C64.341 68.2377 64.341 67.0361 64.341 67.5464C64.341 66.8551 64.341 66.8551 64.341 65.9414C64.341 62.4779 64.4009 67.0496 64.341 64.6769C64.341 62.7211 64.3408 62.6248 64.3408 62.2998C64.1231 61.6869 64.3836 61.4155 65.2761 61.3255C65.7237 61.2803 65.8447 61.213 65.9024 60.9774C65.9314 60.8592 65.9027 60.8375 65.3557 60.5643C64.4526 60.1132 64.1111 59.7183 64.2177 59.248C64.2666 59.0324 64.4135 58.8228 64.5319 58.7996C64.723 58.7623 64.9555 58.8577 65.4169 59.1626C65.684 59.3391 66.0344 59.5498 66.1957 59.6307C66.357 59.7117 66.6099 59.8722 66.7577 59.9873C67.0686 60.2295 68.1295 60.7641 68.6638 60.9479C69.1501 61.1151 69.7257 61.2542 70.1946 61.3178C70.9877 61.4253 72.4474 61.3524 73.075 61.1739C73.176 61.1452 73.2936 61.0687 73.3363 61.0039C73.4077 60.8953 73.4068 60.8718 73.3236 60.7034C73.2189 60.4914 73.3006 60.536 71.5961 59.7604C70.8838 59.4362 70.0261 59.0442 69.6901 58.8892C69.3541 58.7342 68.6833 58.4272 68.1995 58.207C64.5469 56.5447 64.2991 56.4147 64.0334 56.0223C63.7725 55.637 64.0348 54.9031 64.4864 54.7548C64.7024 54.6839 64.9349 54.7705 65.3649 55.0821C65.553 55.2185 66.1688 55.5703 66.7333 55.8638C67.2978 56.1573 69.0349 57.0699 70.5935 57.8918C72.1522 58.7136 73.5356 59.4285 73.6678 59.4804C74.4102 59.7715 75.1652 59.7827 75.8072 59.512C76.0619 59.4046 76.1147 59.3133 76.3638 58.5488C76.4722 58.2164 76.4994 58.0401 76.5026 57.649C76.5071 57.0978 76.4654 56.9832 76.1267 56.6176C75.8628 56.3327 75.5241 56.169 74.7484 55.9514C72.034 55.1899 64.8577 53.0582 64.5829 52.9317C64.029 52.6767 63.7755 52.3528 63.7776 51.9027C63.7789 51.6144 63.9122 51.3074 64.1002 51.1597C64.2954 51.0064 64.5682 51.0408 65.1205 51.2881C65.3624 51.3965 65.7473 51.5437 65.9758 51.6152C66.6767 51.8346 67.6404 52.1879 69.2991 52.8336C72.3042 54.0034 72.936 54.2182 74.6613 54.6571C75.3466 54.8314 75.3243 54.8359 75.7443 54.4437C76.3848 53.8457 76.6592 53.2741 76.6191 52.6216C76.5884 52.1236 76.4516 51.8474 76.0298 51.4311C75.5441 50.9517 75.4089 50.9032 73.9909 50.7C67.9356 49.832 64.4941 49.3114 64.2755 49.2304C64.0046 49.1299 63.7804 48.9402 63.6966 48.7404C63.6168 48.5505 63.61 48.0923 63.6831 47.8306C63.7993 47.4141 64.0728 47.3213 64.6345 47.5077C64.7943 47.5607 66.4535 47.9093 68.3217 48.2823C70.1898 48.6554 72.441 49.1064 73.3243 49.2846L74.9302 49.6087L75.1941 49.4278C75.8864 48.9533 76.1907 48.2219 76.0471 47.3772C75.9903 47.0431 75.7032 45.6946 75.6851 45.6765C75.6796 45.6711 73.0805 45.6598 69.9091 45.6514L64.1431 45.6361L63.9231 45.5069C63.6422 45.342 63.521 45.2102 63.3648 44.8995C63.2133 44.5983 63.2066 44.4498 63.3372 44.2846C63.5481 44.0178 63.7279 43.9934 65.2762 44.0216C71.1304 44.1284 73.3225 44.1496 73.5387 44.1016C73.8964 44.0222 74.2735 43.8179 74.5714 43.5419L74.8423 43.2909L74.7813 42.5424C74.7073 41.6344 74.6225 41.3045 74.3952 41.0402C74.0618 40.6527 73.5902 40.5141 72.9763 40.6232C72.0651 40.7853 68.8664 41.3594 67.0265 41.6911C64.1543 42.209 63.9899 42.2321 63.7546 42.1517C63.514 42.0694 63.3888 41.8686 63.351 41.5045C63.3311 41.3129 63.3469 41.1733 63.4057 41.02C63.5529 40.6365 63.7022 40.5873 65.2671 40.4071C65.9391 40.3296 66.6759 40.2436 66.9044 40.2159C67.1328 40.1881 67.7816 40.1104 68.3461 40.043C68.9106 39.9757 69.5484 39.8987 69.7634 39.8719C69.9784 39.8452 70.6272 39.768 71.2052 39.7005C71.7831 39.6331 72.2923 39.5668 72.3367 39.5533C72.5238 39.4964 72.8266 38.5889 72.8559 37.9968C72.8745 37.6194 72.8631 37.5271 72.7767 37.3585C72.5967 37.0074 72.1791 36.7449 71.594 36.6147L71.323 36.5545L68.6861 37.4153C67.2357 37.8887 65.5872 38.427 65.0228 38.6114C63.7563 39.0252 63.7367 39.0292 63.5109 38.9226C63.081 38.7195 63.0056 37.9966 63.3833 37.6972C63.7022 37.4443 64.0446 37.3526 68.2484 36.3937C69.7731 36.0458 70.1519 35.9109 70.5987 35.5568L70.8476 35.3596L70.8773 34.8318C70.9297 33.9026 70.8049 33.3739 70.4943 33.2085C70.3318 33.1219 69.8594 33.133 69.5269 33.2311C69.3882 33.272 68.8898 33.515 68.4194 33.7711C67.1778 34.4471 65.9195 35.0506 64.9983 35.412C64.0516 35.7835 63.1803 36.0559 63.0715 36.0143C62.9556 35.9701 62.9679 35.3852 63.0901 35.1308C63.2978 34.6983 63.5381 34.5469 64.5561 34.2067C66.4103 33.5871 68.3471 32.8598 68.4543 32.7429C68.5137 32.6779 68.6545 32.4705 68.7672 32.2818C69.0995 31.7251 69.0942 31.2872 68.7503 30.8984C68.5188 30.6366 68.3166 30.5347 68.0284 30.5347C67.7825 30.5347 67.5894 30.6132 67.2178 30.8643C67.0588 30.9717 66.4559 31.3329 65.878 31.667C65.3001 32.0011 64.4534 32.4957 63.9964 32.7662C63.0693 33.3149 63.0946 33.3121 63.0002 32.8743C62.9473 32.6289 62.9902 32.3376 63.0997 32.1998C63.242 32.0205 63.4022 31.9256 64.5585 31.3368C66.0535 30.5754 66.6596 30.1798 66.927 29.791C67.0925 29.5505 67.1206 29.4723 67.1197 29.256C67.1192 29.1163 67.0802 28.9232 67.0328 28.8254C66.9194 28.5912 66.622 28.2488 66.532 28.2488C66.4927 28.2488 66.0866 28.5439 65.6296 28.9045C64.3188 29.9387 63.9098 30.2034 63.2274 30.4588L62.8983 30.5819L62.8669 30.4576C62.8181 30.2637 62.8868 29.8987 63.0044 29.7279C63.1162 29.5655 63.4257 29.3484 64.1145 28.9492C64.8908 28.4994 65.2767 27.9887 65.3288 27.3423L65.3549 27.0188L65.2133 27.0533C65.1354 27.0724 64.7545 27.209 64.3668 27.357C63.2272 27.7922 62.9708 27.8633 62.4325 27.8934C61.6295 27.9383 61.0845 27.7496 60.3065 27.1573C60.0781 26.9833 59.8417 26.8404 59.7812 26.8397C59.6761 26.8385 59.6714 26.8553 59.6753 27.2153Z" fill="#00341F"/>
<path d="M47.3014 65.2173C47.3014 66.8574 47.729 68.2631 47.729 68.2631H46.4463C46.4463 68.2631 46.0187 68.0288 46.2325 64.983C46.4463 61.9372 47.6221 61 47.6221 61C47.6221 61 47.3014 63.5772 47.3014 65.2173Z" fill="#00341F"/>
<path d="M48.1556 65.6636C48.1556 66.6994 48.5757 67.5872 48.5757 67.5872H47.3155C47.3155 67.5872 46.8954 67.4393 47.1054 65.5156C47.3155 63.5919 48.4707 63 48.4707 63C48.4707 63 48.1556 64.6277 48.1556 65.6636Z" fill="#00341F"/>
<path d="M48.748 66.2196C48.748 67.0828 48.958 67.8227 48.958 67.8227H48.3279C48.3279 67.8227 48.1179 67.6994 48.2229 66.0963C48.3279 64.4933 48.9055 64 48.9055 64C48.9055 64 48.748 65.3564 48.748 66.2196Z" fill="#00341F"/>
<path d="M45.302 66.0124C45.302 67.1838 45.6074 68.1879 45.6074 68.1879H44.6912C44.6912 68.1879 44.3858 68.0206 44.5385 65.845C44.6912 63.6694 45.5311 63 45.5311 63C45.5311 63 45.302 64.8409 45.302 66.0124Z" fill="#00341F"/>
<path d="M45.9114 66.9025C45.9114 67.6424 46.2114 68.2766 46.2114 68.2766H45.3113C45.3113 68.2766 45.0112 68.1709 45.1612 66.7968C45.3113 65.4228 46.1364 65 46.1364 65C46.1364 65 45.9114 66.1627 45.9114 66.9025Z" fill="#00341F"/>
<path d="M46.3348 66.5854C46.3348 67.202 46.4849 67.7305 46.4849 67.7305H46.0348C46.0348 67.7305 45.8848 67.6424 45.9598 66.4974C46.0348 65.3523 46.4474 65 46.4474 65C46.4474 65 46.3348 65.9689 46.3348 66.5854Z" fill="#00341F"/>
<path d="M32.8777 65.7111C32.8777 66.7654 32.165 67.6691 32.165 67.6691H34.3029C34.3029 67.6691 35.0156 67.5185 34.6592 65.5605C34.3029 63.6025 32.3432 63 32.3432 63C32.3432 63 32.8777 64.6568 32.8777 65.7111Z" fill="#00341F"/>
<path d="M33.8642 65.7111C33.8642 66.7654 33.7217 67.6691 33.7217 67.6691H34.1493C34.1493 67.6691 34.2918 67.5185 34.2205 65.5605C34.1493 63.6025 33.7573 63 33.7573 63C33.7573 63 33.8642 64.6568 33.8642 65.7111Z" fill="#00341F"/>
<path d="M35.2592 66.2196C35.2592 67.0828 35.4692 67.8227 35.4692 67.8227H34.8391C34.8391 67.8227 34.6291 67.6994 34.7341 66.0963C34.8391 64.4933 35.4167 64 35.4167 64C35.4167 64 35.2592 65.3564 35.2592 66.2196Z" fill="#00341F"/>
<path d="M77.4801 65.0064C77.4801 66.5645 76.7817 67.9 76.7817 67.9H78.8769C78.8769 67.9 79.5752 67.6774 79.2261 64.7839C78.8769 61.8903 76.9563 61 76.9563 61C76.9563 61 77.4801 63.4484 77.4801 65.0064Z" fill="#00341F"/>
<path d="M79.6512 66.5304C79.6512 67.5144 80.0503 68.3579 80.0503 68.3579H78.8531C78.8531 68.3579 78.454 68.2173 78.6535 66.3898C78.8531 64.5623 79.9505 64 79.9505 64C79.9505 64 79.6512 65.5463 79.6512 66.5304Z" fill="#00341F"/>
<path d="M81.2074 66.5304C81.2074 67.5144 81.6064 68.3579 81.6064 68.3579H80.4092C80.4092 68.3579 80.0102 68.2173 80.2097 66.3898C80.4092 64.5623 81.5067 64 81.5067 64C81.5067 64 81.2074 65.5463 81.2074 66.5304Z" fill="#00341F"/>
<path d="M80.2135 66.1086C80.2135 66.9287 80.4131 67.6316 80.4131 67.6316H79.8145C79.8145 67.6316 79.6149 67.5144 79.7147 65.9915C79.8145 64.4686 80.3632 64 80.3632 64C80.3632 64 80.2135 65.2886 80.2135 66.1086Z" fill="#00341F"/>
<path d="M81.7702 66.1086C81.7702 66.9287 81.9697 67.6316 81.9697 67.6316H81.3711C81.3711 67.6316 81.1716 67.5144 81.2713 65.9915C81.3711 64.4686 81.9198 64 81.9198 64C81.9198 64 81.7702 65.2886 81.7702 66.1086Z" fill="#00341F"/>
</svg>
