<svg width="243" height="119" viewBox="0 0 243 119" fill="none" xmlns="http://www.w3.org/2000/svg">
<path fill-rule="evenodd" clip-rule="evenodd" d="M36.9881 0.304824C36.205 0.710743 35.565 1.43377 35.4505 2.04198C35.4013 2.30281 35.386 3.06918 35.4167 3.74513C35.4792 5.12371 35.8517 6.1409 36.5434 6.82086C36.8737 7.14557 37.0066 7.19064 37.4565 7.13063C38.2791 7.02088 39.0095 6.42201 39.5248 5.43521C39.9604 4.60097 39.9727 4.53403 39.9191 3.30708C39.8466 1.64473 39.4866 0.772617 38.6785 0.301357C37.9882 -0.101228 37.7706 -0.100828 36.9881 0.304824ZM29.9098 6.0741C29.9161 6.64257 29.9657 7.46321 30.0201 7.89793C30.1099 8.61642 30.1746 8.73777 30.7302 9.23143C31.0664 9.53014 31.9296 10.0746 32.6485 10.4413C35.7748 12.0362 36.7066 13.0662 36.5725 14.7787L36.5316 15.2998L35.4447 14.8562C33.8532 14.2066 31.9977 13.0741 29.7138 11.3582L27.6944 9.84124H26.4767C25.4451 9.84124 25.2152 9.88192 24.972 10.1074C24.6137 10.4396 24.4938 11.0517 24.5596 12.2121C24.6271 13.4002 24.9329 13.8264 26.1164 14.382C30.3973 16.3913 35.6986 19.1247 36.1112 19.5353C36.6366 20.0582 36.8009 20.5594 36.6598 21.2094C36.5607 21.6668 36.1043 22.6429 35.9896 22.6429C35.9524 22.6429 35.5467 22.4101 35.0877 22.1256C34.6289 21.8412 32.4446 20.541 30.2336 19.2364C28.0226 17.9319 25.8819 16.6428 25.4765 16.3717C23.5431 15.079 22.605 14.8824 21.5936 15.5584C20.9148 16.012 20.2927 16.8823 20.1657 17.5562C20.0459 18.1923 20.2769 19.244 20.7442 20.1895L21.1215 20.9528L26.6156 23.0019C34.5625 25.9657 35.2169 26.2279 35.8369 26.695C36.5278 27.2155 36.8663 27.8568 36.8657 28.6437C36.865 29.3844 36.6373 30.2375 36.418 30.3212C36.3278 30.3556 34.6583 29.687 32.7079 28.8353C18.3422 22.5621 18.8802 22.7762 17.4817 22.7762C16.2936 22.7762 15.386 23.631 14.9331 25.1761C14.6569 26.1181 14.66 27.0887 14.9418 27.9185C15.2 28.6794 16.0219 29.9098 16.5179 30.2784C16.7626 30.4602 18.9029 30.9409 24.0823 31.9775C34.2145 34.0054 34.8993 34.1701 35.8116 34.7972C36.55 35.3049 36.8206 36.6055 36.3802 37.5292C35.8229 38.6979 35.3317 38.6687 30.6486 37.1873C23.4132 34.8987 13.4571 31.8441 13.2335 31.8441C12.869 31.8441 11.2528 32.7126 10.6442 33.2356C10.3354 33.5008 9.92056 34.0478 9.72224 34.4512C9.40077 35.105 9.36875 35.2942 9.42677 36.1946C9.48278 37.0623 9.57966 37.3765 10.1142 38.4249C11.1627 40.481 10.7984 40.2997 14.6895 40.7011C16.532 40.8911 19.4566 41.1929 21.1885 41.3717C22.9205 41.5506 25.6943 41.8491 27.3526 42.0351C29.0108 42.2211 31.0912 42.4348 31.9756 42.5098C34.4339 42.7187 34.9679 42.8583 35.5585 43.4459C36.0473 43.9323 36.0626 43.9765 36.0626 44.9009C36.0626 46.6997 35.4569 47.3694 33.9186 47.2715C33.4395 47.241 29.6105 46.6042 25.4095 45.8564C21.2086 45.1087 17.259 44.4077 16.6325 44.2986C16.0061 44.1895 13.8353 43.8031 11.8085 43.4398C9.78174 43.0767 7.99832 42.7793 7.84543 42.7792C7.23465 42.7784 5.39161 45.5118 5.01413 46.9781C4.60811 48.5553 5.10177 50.4338 6.25685 51.7061C7.32832 52.8862 8.49037 53.1571 11.5231 52.9332C16.9236 52.5346 19.1287 52.4163 27.3526 52.0839C33.4216 51.8386 34.5529 51.8518 35.0889 52.1743C35.6798 52.5296 35.9768 53.2037 35.9732 54.1803C35.9696 55.1752 35.6697 55.8978 35.1234 56.2284C34.7277 56.4679 34.4595 56.4785 30.3917 56.4172C28.02 56.3815 22.0394 56.4137 17.1015 56.4888C9.56466 56.6036 7.9407 56.5956 6.98448 56.4391C4.17502 55.979 3.25095 56.3363 2.4629 58.187C1.53226 60.373 1.27565 63.1762 1.86485 64.7204C2.19235 65.5789 2.94959 66.6668 3.50046 67.0702C3.82005 67.3042 3.92806 67.3062 5.84547 67.1154C10.3725 66.6649 11.7214 66.4141 21.3895 64.2254C22.3476 64.0086 24.7596 63.5024 26.7496 63.1006C29.0395 62.6383 30.8103 62.2033 31.5736 61.9155C33.5202 61.1819 33.9474 61.1078 34.5441 61.4004C35.3149 61.7782 35.7276 62.6851 35.7276 64.0008C35.7276 64.8343 35.6747 65.0988 35.447 65.4048C35.0097 65.992 34.1949 66.4912 33.3156 66.7103C32.6073 66.8867 25.1303 68.0074 8.50284 70.4293C2.93243 71.2406 3.12178 71.1803 1.69923 72.5959C0.434396 73.8546 -0.325119 76.1608 0.135842 77.3436C0.602566 78.5415 0.799547 78.9378 1.25997 79.6051C1.70579 80.2515 2.31134 80.8509 3.22094 81.5462C3.56599 81.8099 3.9767 81.751 6.58314 81.0632C10.0142 80.1578 13.0692 79.1194 18.9908 76.8457C24.6951 74.6554 26.1033 74.1316 29.0095 73.1197C30.1249 72.7314 31.6052 72.1918 32.2989 71.9207C33.7578 71.3503 34.2447 71.3625 34.7684 71.9819C35.6405 73.0132 35.7567 74.521 35.0336 75.4215C34.3573 76.2637 33.4803 76.7431 31.4579 77.3757C29.1964 78.0833 14.0811 82.5601 6.91748 84.6443C3.44901 85.6532 1.75778 86.2054 1.61306 86.376C0.968924 87.1351 0.601628 91.6666 1.10949 92.588C1.93855 94.0918 3.6212 94.6852 7.11848 94.7068L9.06148 94.7188L13.4165 92.3335C15.8118 91.0218 18.073 89.7844 18.4415 89.584C18.81 89.3836 20.3778 88.5304 21.9255 87.6881C23.4732 86.8459 26.0661 85.4481 27.6876 84.5821C29.309 83.7162 31.04 82.7502 31.5344 82.4355C32.842 81.603 33.1798 81.4504 33.717 81.4504C34.9272 81.4504 35.6698 83.4059 35.0085 84.8508C34.6154 85.7099 33.7866 86.3266 31.6824 87.3253C30.6094 87.8346 29.7143 88.2513 29.6933 88.2513C29.6721 88.2513 28.4886 88.7967 27.0632 89.4634C24.6398 90.5968 19.1492 93.052 13.8855 95.3559C10.4091 96.8774 9.57015 97.2906 9.47957 97.5254C9.35481 97.849 9.37933 98.3716 9.53276 98.6569C9.82488 99.1999 12.4123 99.5226 16.3645 99.5089C19.208 99.499 19.4558 99.4778 20.7195 99.1364C22.4924 98.6574 24.242 97.7892 25.4765 96.7756C26.3493 96.0589 27.3114 95.3283 28.9017 94.1746C30.0088 93.3711 33.4371 91.4517 33.7647 91.4517C34.0003 91.4517 34.4546 92.766 34.4546 93.4477C34.4546 94.7282 34.0373 95.3456 32.0636 96.9857C31.3576 97.5725 30.5518 98.3526 30.2732 98.7193L29.7666 99.386L30.8438 99.4778C32.6346 99.6302 33.2192 99.9612 33.744 101.12C33.9737 101.627 34.038 111.225 34.0208 113.408L34.038 117.827H34.5838C34.976 117.827 35.2002 117.826 35.914 117.826C36.7886 117.826 36.8229 117.826 39.2736 117.826C40.738 117.826 41.1641 117.826 41.408 117.826C41.7511 117.826 41.4971 117.827 42.7031 117.827C42.7031 116.427 42.7024 118.55 42.7024 116.655C42.7024 114.759 42.7024 114.76 42.7024 112.254C42.7024 102.758 42.8666 115.293 42.7024 108.787C42.7024 103.425 42.7019 103.161 42.7019 102.27C42.1048 100.589 42.8192 99.845 45.2661 99.5983C46.4935 99.4744 46.8252 99.29 46.9835 98.6439C47.0628 98.3199 46.9842 98.2604 45.4844 97.5113C43.0082 96.2744 42.0721 95.1916 42.3644 93.9023C42.4984 93.311 42.901 92.7363 43.2257 92.6728C43.7497 92.5704 44.3872 92.832 45.6522 93.668C46.3845 94.152 47.3454 94.7296 47.7876 94.9516C48.2298 95.1735 48.9233 95.6136 49.3286 95.9293C50.181 96.5933 53.0898 98.0592 54.5547 98.563C55.8881 99.0216 57.4662 99.403 58.7518 99.5773C60.9264 99.8721 64.9288 99.6722 66.6494 99.1827C66.9265 99.1039 67.2489 98.8941 67.3659 98.7165C67.5618 98.4188 67.5591 98.3544 67.3311 97.8928C67.0439 97.3115 67.2681 97.4338 62.5947 95.3071C60.6416 94.4183 58.2899 93.3434 57.3687 92.9184C56.4474 92.4934 54.6083 91.6517 53.2817 91.0479C43.267 86.4901 42.5875 86.1337 41.8589 85.0578C41.1436 84.0015 41.8628 81.9893 43.101 81.5827C43.6931 81.3883 44.3307 81.6258 45.5096 82.4801C46.0255 82.854 47.7139 83.8184 49.2616 84.6232C50.8093 85.4281 55.5721 87.9303 59.8457 90.1837C64.1192 92.437 67.9124 94.397 68.275 94.5393C70.3103 95.3376 72.3805 95.3682 74.1407 94.626C74.839 94.3315 74.9837 94.0812 75.6668 91.9851C75.9639 91.0738 76.0386 90.5902 76.0473 89.5181C76.0597 88.0067 75.9453 87.6924 75.0168 86.69C74.2932 85.909 73.3644 85.46 71.2377 84.8634C63.7952 82.7756 44.119 76.9308 43.3656 76.5839C41.847 75.8848 41.1519 74.9968 41.1576 73.7626C41.1612 72.9721 41.5266 72.1305 42.0422 71.7256C42.5773 71.3052 43.3253 71.3994 44.8396 72.0776C45.5029 72.3747 46.5582 72.7782 47.1846 72.9743C49.1063 73.5758 51.7487 74.5446 56.2967 76.3149C64.5362 79.5223 66.2684 80.1114 70.9988 81.3148C72.8779 81.7927 72.8168 81.8048 73.9684 80.7296C75.7245 79.0901 76.4769 77.5228 76.3667 75.7337C76.2826 74.3684 75.9076 73.611 74.7511 72.4695C73.4193 71.1551 73.0487 71.0223 69.1607 70.465C52.5581 68.0851 43.122 66.6577 42.5229 66.4356C41.78 66.1601 41.1653 65.64 40.9354 65.0922C40.7168 64.5715 40.6981 63.3153 40.8984 62.5976C41.2171 61.4557 41.9671 61.2012 43.5071 61.7122C43.9452 61.8575 48.4945 62.8134 53.6167 63.8362C58.7388 64.859 64.9112 66.0956 67.3329 66.5842L71.7362 67.4728L72.4597 66.977C74.3578 65.676 75.1921 63.6704 74.7984 61.3544C74.6428 60.4384 73.8557 56.7411 73.8058 56.6914C73.791 56.6767 66.6646 56.6456 57.9693 56.6226L42.1596 56.5806L41.5566 56.2265C40.7862 55.7742 40.4541 55.4128 40.0257 54.561C39.6104 53.7351 39.592 53.328 39.9501 52.8752C40.5284 52.1435 41.0214 52.0767 45.2665 52.154C61.3177 52.4467 67.328 52.5048 67.9209 52.3734C68.9017 52.1557 69.9355 51.5954 70.7524 50.8388L71.4951 50.1507L71.3279 48.0983C71.125 45.6086 70.8925 44.7042 70.2692 43.9795C69.3551 42.9169 68.062 42.537 66.3789 42.8363C63.8806 43.2806 55.1101 44.8547 50.0656 45.7642C42.1904 47.1842 41.7397 47.2475 41.0944 47.0269C40.4348 46.8013 40.0914 46.2507 39.9879 45.2524C39.9335 44.7273 39.9766 44.3443 40.1379 43.9241C40.5414 42.8727 40.9508 42.7379 45.2416 42.2435C47.0841 42.0312 49.1042 41.7953 49.7306 41.7193C50.3571 41.6433 52.136 41.4301 53.6837 41.2454C55.2314 41.0607 56.9801 40.8496 57.5697 40.7763C58.1593 40.7029 59.9381 40.4914 61.5227 40.3063C63.1072 40.1214 64.5034 39.9396 64.6253 39.9026C65.1383 39.7467 65.9683 37.2585 66.0487 35.6351C66.0999 34.6003 66.0685 34.3472 65.8315 33.8849C65.3381 32.9223 64.1932 32.2025 62.5888 31.8457L61.8459 31.6806L54.6158 34.0406C50.6392 35.3386 46.1193 36.8144 44.5716 37.3201C41.0993 38.4546 41.0454 38.4657 40.4265 38.1734C39.2475 37.6167 39.041 35.6345 40.0764 34.8135C40.9508 34.1202 41.8896 33.8687 53.4157 31.2395C57.5963 30.2857 58.635 29.9159 59.8599 28.945L60.5422 28.4042L60.6237 26.957C60.7673 24.4095 60.4254 22.9599 59.5737 22.5063C59.1281 22.269 57.833 22.2992 56.9211 22.5682C56.5408 22.6804 55.1744 23.3466 53.8847 24.0488C50.4802 25.9022 47.0303 27.557 44.5046 28.548C41.9089 29.5666 39.5198 30.3133 39.2217 30.1995C38.9038 30.0781 38.9376 28.4746 39.2727 27.7769C39.8421 26.5911 40.5008 26.1759 43.292 25.2432C48.376 23.5443 53.6865 21.5502 53.9802 21.2296C54.1433 21.0516 54.5293 20.4827 54.8382 19.9655C55.7494 18.439 55.7348 17.2383 54.792 16.1723C54.1571 15.4545 53.6027 15.1753 52.8127 15.1753C52.1382 15.1753 51.6089 15.3905 50.5901 16.079C50.1542 16.3734 48.5012 17.3638 46.9166 18.2798C45.3321 19.1958 43.0105 20.5519 41.7576 21.2935C39.2156 22.7981 39.2849 22.7905 39.0261 21.5901C38.8812 20.9171 38.9988 20.1186 39.2988 19.7405C39.689 19.249 40.1284 18.9889 43.2986 17.3745C47.3978 15.2867 49.0596 14.2022 49.7928 13.1361C50.2464 12.4766 50.3236 12.2622 50.3212 11.6692C50.3196 11.2861 50.2126 10.7568 50.0828 10.4887C49.7719 9.84645 48.9565 8.90779 48.7097 8.90779C48.6018 8.90779 47.4884 9.7167 46.2354 10.7054C42.6415 13.5411 41.52 14.2667 39.6491 14.967L38.7468 15.3047L38.6607 14.9639C38.5267 14.4322 38.7153 13.4313 39.0377 12.9631C39.3443 12.5177 40.1929 11.9224 42.0814 10.8282C44.2098 9.59481 45.2679 8.19463 45.4109 6.42214L45.4824 5.53523L45.0941 5.62991C44.8804 5.68205 43.8361 6.05676 42.7732 6.46255C39.6484 7.65577 38.9455 7.85072 37.4696 7.93313C35.268 8.05622 33.7735 7.53882 31.6406 5.91488C31.0141 5.43788 30.366 5.0461 30.2001 5.0441C29.9121 5.04076 29.8991 5.0869 29.9098 6.0741Z" fill="#00341F"/>
<path fill-rule="evenodd" clip-rule="evenodd" d="M107.209 44.1914C106.717 44.4464 106.315 44.9005 106.243 45.2825C106.212 45.4463 106.202 45.9276 106.222 46.3522C106.261 47.218 106.495 47.8569 106.929 48.2839C107.137 48.4878 107.22 48.5162 107.503 48.4785C108.019 48.4095 108.478 48.0334 108.802 47.4136C109.075 46.8897 109.083 46.8476 109.05 46.077C109.004 45.033 108.778 44.4853 108.27 44.1893C107.837 43.9364 107.7 43.9367 107.209 44.1914ZM102.763 47.8149C102.767 48.1719 102.798 48.6873 102.832 48.9604C102.889 49.4116 102.929 49.4878 103.278 49.7979C103.489 49.9855 104.032 50.3275 104.483 50.5578C106.447 51.5595 107.032 52.2064 106.948 53.2819L106.922 53.6092L106.239 53.3306C105.24 52.9226 104.074 52.2113 102.64 51.1337L101.372 50.1809H100.607C99.9589 50.1809 99.8146 50.2064 99.6619 50.3481C99.4368 50.5567 99.3615 50.9411 99.4028 51.6699C99.4452 52.4162 99.6373 52.6838 100.381 53.0327C103.069 54.2947 106.399 56.0115 106.658 56.2693C106.988 56.5977 107.091 56.9126 107.003 57.3208C106.94 57.608 106.654 58.2211 106.582 58.2211C106.558 58.2211 106.303 58.0749 106.015 57.8962C105.727 57.7176 104.355 56.901 102.966 56.0817C101.578 55.2623 100.233 54.4527 99.9787 54.2824C98.7644 53.4705 98.1752 53.3471 97.54 53.7716C97.1136 54.0565 96.723 54.6031 96.6432 55.0264C96.568 55.4259 96.713 56.0864 97.0065 56.6802L97.2435 57.1596L100.694 58.4466C105.685 60.308 106.096 60.4727 106.486 60.7661C106.92 61.093 107.132 61.4957 107.132 61.9899C107.131 62.4552 106.988 62.991 106.851 63.0436C106.794 63.0652 105.745 62.6452 104.52 62.1103C95.4979 58.1703 95.8358 58.3049 94.9575 58.3049C94.2113 58.3049 93.6413 58.8417 93.3568 59.8121C93.1834 60.4038 93.1853 61.0133 93.3623 61.5345C93.5245 62.0124 94.0406 62.7852 94.3522 63.0167C94.5059 63.1308 95.8501 63.4327 99.103 64.0838C105.467 65.3575 105.897 65.4609 106.47 65.8548C106.933 66.1736 107.103 66.9905 106.827 67.5706C106.477 68.3046 106.168 68.2863 103.227 67.3559C98.6828 65.9185 92.4298 64 92.2893 64C92.0604 64 91.0453 64.5455 90.6631 64.874C90.4692 65.0405 90.2086 65.3841 90.0841 65.6374C89.8822 66.0481 89.862 66.1669 89.8985 66.7324C89.9337 67.2774 89.9945 67.4747 90.3302 68.1332C90.9888 69.4245 90.76 69.3106 93.2038 69.5627C94.361 69.6821 96.1978 69.8716 97.2856 69.9839C98.3734 70.0963 100.115 70.2838 101.157 70.4006C102.198 70.5174 103.505 70.6516 104.061 70.6987C105.605 70.8299 105.94 70.9176 106.311 71.2867C106.618 71.5921 106.627 71.6199 106.627 72.2005C106.627 73.3302 106.247 73.7508 105.281 73.6894C104.98 73.6702 102.575 73.2703 99.9366 72.8006C97.2982 72.331 94.8176 71.8907 94.4241 71.8222C94.0307 71.7537 92.6673 71.511 91.3944 71.2828C90.1214 71.0548 89.0013 70.868 88.9053 70.8679C88.5217 70.8674 87.3642 72.5842 87.1271 73.5051C86.8721 74.4957 87.1821 75.6755 87.9076 76.4745C88.5805 77.2158 89.3104 77.3859 91.2151 77.2452C94.6069 76.9949 95.9919 76.9206 101.157 76.7118C104.969 76.5578 105.679 76.5661 106.016 76.7686C106.387 76.9918 106.574 77.4152 106.571 78.0285C106.569 78.6534 106.381 79.1072 106.038 79.3148C105.789 79.4653 105.621 79.4719 103.066 79.4334C101.576 79.411 97.82 79.4312 94.7187 79.4784C89.9851 79.5505 88.9651 79.5455 88.3646 79.4472C86.6001 79.1582 86.0197 79.3826 85.5248 80.545C84.9403 81.9179 84.7791 83.6785 85.1491 84.6483C85.3548 85.1875 85.8304 85.8708 86.1764 86.1241C86.3771 86.2711 86.445 86.2724 87.6492 86.1525C90.4925 85.8696 91.3397 85.7121 97.4118 84.3374C98.0136 84.2013 99.5285 83.8833 100.778 83.631C102.216 83.3406 103.329 83.0674 103.808 82.8867C105.031 82.426 105.299 82.3794 105.674 82.5632C106.158 82.8004 106.417 83.37 106.417 84.1964C106.417 84.7199 106.384 84.886 106.241 85.0782C105.966 85.447 105.454 85.7605 104.902 85.8981C104.457 86.0089 99.7613 86.7127 89.3182 88.2338C85.8197 88.7434 85.9386 88.7055 85.0451 89.5947C84.2507 90.3852 83.7737 91.8336 84.0632 92.5765C84.3564 93.3288 84.4801 93.5777 84.7692 93.9968C85.0492 94.4028 85.4296 94.7792 86.0008 95.2159C86.2176 95.3816 86.4755 95.3446 88.1125 94.9126C90.2674 94.344 92.1861 93.6918 95.9053 92.2637C99.4879 90.8881 100.372 90.5591 102.198 89.9236C102.898 89.6797 103.828 89.3408 104.264 89.1705C105.18 88.8123 105.486 88.8199 105.815 89.209C106.362 89.8567 106.435 90.8037 105.981 91.3693C105.556 91.8983 105.006 92.1993 103.735 92.5967C102.315 93.041 92.8217 95.8528 88.3225 97.1617C86.1441 97.7954 85.0819 98.1422 84.991 98.2493C84.5864 98.7261 84.3558 101.572 84.6747 102.151C85.1954 103.095 86.2522 103.468 88.4487 103.482L89.6691 103.489L92.4043 101.991C93.9086 101.167 95.3289 100.39 95.5603 100.264C95.7917 100.138 96.7764 99.6024 97.7485 99.0735C98.7205 98.5445 100.349 97.6666 101.367 97.1227C102.386 96.5788 103.473 95.9721 103.783 95.7745C104.605 95.2516 104.817 95.1558 105.154 95.1558C105.914 95.1558 106.381 96.3839 105.965 97.2915C105.718 97.831 105.198 98.2184 103.876 98.8456C103.202 99.1654 102.64 99.4272 102.627 99.4272C102.614 99.4272 101.87 99.7697 100.975 100.188C99.4532 100.9 96.0047 102.442 92.6988 103.889C90.5155 104.845 89.9885 105.104 89.9316 105.252C89.8533 105.455 89.8687 105.783 89.9651 105.962C90.1485 106.304 91.7736 106.506 94.2558 106.498C96.0417 106.491 96.1973 106.478 96.991 106.264C98.1045 105.963 99.2034 105.418 99.9787 104.781C100.527 104.331 101.131 103.872 102.13 103.147C102.825 102.643 104.978 101.437 105.184 101.437C105.332 101.437 105.617 102.263 105.617 102.691C105.617 103.495 105.355 103.883 104.116 104.913C103.672 105.281 103.166 105.771 102.991 106.002L102.673 106.42L103.35 106.478C104.474 106.574 104.842 106.782 105.171 107.509C105.315 107.828 105.356 113.856 105.345 115.227L105.356 118.002H105.699C105.945 118.002 106.086 118.002 106.534 118.002C107.083 118.002 107.105 118.002 108.644 118.002C109.564 118.002 109.831 118.002 109.985 118.002C110.2 118.002 110.041 118.002 110.798 118.002C110.798 117.124 110.798 118.457 110.798 117.266C110.798 116.076 110.798 116.076 110.798 114.503C110.798 108.538 110.901 116.411 110.798 112.325C110.798 108.957 110.797 108.791 110.797 108.232C110.422 107.176 110.871 106.709 112.408 106.554C113.179 106.476 113.387 106.36 113.486 105.954C113.536 105.751 113.487 105.714 112.545 105.243C110.99 104.466 110.402 103.786 110.585 102.976C110.669 102.605 110.922 102.244 111.126 102.204C111.455 102.14 111.856 102.304 112.65 102.829C113.11 103.133 113.714 103.496 113.991 103.635C114.269 103.775 114.705 104.051 114.959 104.249C115.495 104.666 117.321 105.587 118.242 105.904C119.079 106.192 120.07 106.431 120.878 106.541C122.243 106.726 124.757 106.6 125.838 106.293C126.012 106.243 126.214 106.111 126.288 106C126.411 105.813 126.409 105.773 126.266 105.483C126.086 105.118 126.226 105.194 123.291 103.859C122.065 103.3 120.588 102.625 120.009 102.358C119.43 102.091 118.275 101.563 117.442 101.184C111.152 98.321 110.725 98.0972 110.268 97.4215C109.819 96.7581 110.27 95.4942 111.048 95.2389C111.42 95.1168 111.82 95.2659 112.561 95.8025C112.885 96.0374 113.945 96.6431 114.917 97.1485C115.889 97.654 118.881 99.2256 121.565 100.641C124.249 102.056 126.631 103.287 126.859 103.376C128.137 103.878 129.437 103.897 130.543 103.431C130.981 103.246 131.072 103.089 131.501 101.772C131.688 101.2 131.735 100.896 131.74 100.223C131.748 99.2736 131.676 99.0761 131.093 98.4466C130.639 97.956 130.055 97.6741 128.72 97.2993C124.045 95.9881 111.687 92.3172 111.214 92.0993C110.26 91.6602 109.824 91.1025 109.827 90.3274C109.83 89.8309 110.059 89.3024 110.383 89.048C110.719 88.784 111.189 88.8431 112.14 89.2691C112.557 89.4557 113.219 89.7091 113.613 89.8323C114.82 90.2101 116.479 90.8185 119.336 91.9304C124.511 93.9448 125.599 94.3148 128.569 95.0706C129.75 95.3708 129.711 95.3784 130.435 94.7031C131.537 93.6734 132.01 92.689 131.941 91.5653C131.888 90.7079 131.653 90.2322 130.926 89.5153C130.09 88.6897 129.857 88.6063 127.415 88.2563C116.988 86.7616 111.061 85.8651 110.685 85.7256C110.218 85.5525 109.832 85.2259 109.688 84.8818C109.551 84.5548 109.539 83.7658 109.665 83.3151C109.865 82.5979 110.336 82.438 111.303 82.759C111.578 82.8503 114.435 83.4506 117.652 84.093C120.869 84.7354 124.746 85.5121 126.267 85.8189L129.033 86.377L129.487 86.0656C130.679 85.2485 131.203 83.9889 130.956 82.5343C130.858 81.959 130.364 79.6369 130.332 79.6056C130.323 79.5964 125.847 79.5769 120.386 79.5624L110.457 79.536L110.078 79.3137C109.594 79.0296 109.386 78.8026 109.116 78.2676C108.856 77.7489 108.844 77.4932 109.069 77.2088C109.432 76.7493 109.742 76.7073 112.408 76.7559C122.489 76.9397 126.264 76.9762 126.636 76.8936C127.252 76.757 127.902 76.405 128.415 75.9298L128.881 75.4977L128.776 74.2086C128.649 72.645 128.503 72.077 128.111 71.6218C127.537 70.9544 126.725 70.7158 125.668 70.9038C124.099 71.1828 118.59 72.1714 115.422 72.7427C110.476 73.6345 110.193 73.6743 109.788 73.5358C109.373 73.3941 109.158 73.0482 109.093 72.4213C109.059 72.0915 109.086 71.8509 109.187 71.587C109.44 70.9266 109.697 70.842 112.392 70.5315C113.55 70.3982 114.818 70.25 115.212 70.2023C115.605 70.1545 116.722 70.0206 117.694 69.9046C118.667 69.7886 119.765 69.656 120.135 69.61C120.505 69.5639 121.623 69.4311 122.618 69.3148C123.613 69.1987 124.49 69.0845 124.567 69.0612C124.889 68.9633 125.41 67.4006 125.46 66.381C125.493 65.7311 125.473 65.5721 125.324 65.2817C125.014 64.6772 124.295 64.2251 123.287 64.001L122.821 63.8973L118.28 65.3796C115.782 66.1948 112.944 67.1217 111.972 67.4393C109.791 68.1518 109.757 68.1588 109.368 67.9752C108.628 67.6255 108.498 66.3807 109.148 65.865C109.697 65.4296 110.287 65.2716 117.526 63.6203C120.152 63.0213 120.804 62.789 121.574 62.1792L122.002 61.8395L122.053 60.9307C122.143 59.3307 121.929 58.4202 121.394 58.1353C121.114 57.9863 120.301 58.0053 119.728 58.1742C119.489 58.2446 118.631 58.6631 117.821 59.1041C115.683 60.2682 113.516 61.3075 111.93 61.9299C110.299 62.5696 108.799 63.0386 108.611 62.9671C108.412 62.8909 108.433 61.8838 108.644 61.4456C109.001 60.7008 109.415 60.44 111.168 59.8543C114.361 58.7873 117.696 57.5348 117.881 57.3335C117.983 57.2217 118.226 56.8644 118.42 56.5395C118.992 55.5808 118.983 54.8267 118.391 54.1572C117.992 53.7064 117.644 53.531 117.147 53.531C116.724 53.531 116.391 53.6662 115.752 54.0986C115.478 54.2835 114.44 54.9055 113.444 55.4808C112.449 56.0561 110.991 56.9079 110.204 57.3736C108.608 58.3186 108.651 58.3138 108.489 57.5599C108.398 57.1372 108.472 56.6357 108.66 56.3982C108.905 56.0895 109.181 55.9262 111.172 54.9122C113.747 53.601 114.79 52.9198 115.251 52.2502C115.536 51.8361 115.584 51.7014 115.583 51.329C115.582 51.0884 115.514 50.7559 115.433 50.5875C115.238 50.1842 114.726 49.5946 114.571 49.5946C114.503 49.5946 113.804 50.1027 113.017 50.7236C110.759 52.5046 110.055 52.9604 108.88 53.4002L108.313 53.6123L108.259 53.3982C108.175 53.0643 108.293 52.4357 108.496 52.1416C108.688 51.8619 109.221 51.488 110.408 50.8007C111.744 50.0261 112.409 49.1467 112.499 48.0335L112.544 47.4765L112.3 47.5359C112.165 47.5687 111.51 47.804 110.842 48.0589C108.88 48.8083 108.438 48.9307 107.511 48.9825C106.128 49.0598 105.19 48.7348 103.85 47.7149C103.457 47.4153 103.05 47.1693 102.945 47.168C102.765 47.1659 102.756 47.1949 102.763 47.8149Z" fill="#00341F"/>
<path fill-rule="evenodd" clip-rule="evenodd" d="M171.44 27.2349C170.799 27.5478 170.275 28.105 170.181 28.5738C170.141 28.7748 170.128 29.3655 170.153 29.8865C170.204 30.949 170.509 31.733 171.076 32.257C171.346 32.5073 171.455 32.542 171.823 32.4958C172.497 32.4112 173.095 31.9496 173.517 31.1891C173.874 30.5461 173.884 30.4945 173.84 29.5489C173.78 28.2676 173.486 27.5955 172.824 27.2323C172.259 26.922 172.08 26.9223 171.44 27.2349ZM165.644 31.6815C165.649 32.1196 165.69 32.7521 165.735 33.0872C165.808 33.6409 165.861 33.7344 166.316 34.1149C166.591 34.3451 167.298 34.7648 167.887 35.0474C170.446 36.2766 171.209 37.0705 171.1 38.3903L171.066 38.792L170.176 38.45C168.873 37.9494 167.354 37.0765 165.484 35.7541L163.83 34.5849H162.833C161.989 34.5849 161.8 34.6163 161.601 34.7901C161.308 35.0461 161.21 35.5178 161.264 36.4122C161.319 37.3279 161.569 37.6564 162.538 38.0846C166.043 39.6332 170.384 41.7399 170.722 42.0564C171.152 42.4594 171.287 42.8457 171.171 43.3466C171.09 43.6992 170.716 44.4515 170.622 44.4515C170.592 44.4515 170.26 44.272 169.884 44.0528C169.508 43.8336 167.72 42.8315 165.909 41.8261C164.099 40.8206 162.346 39.827 162.014 39.6181C160.431 38.6218 159.663 38.4703 158.835 38.9913C158.279 39.3409 157.77 40.0116 157.666 40.5311C157.568 41.0213 157.757 41.8319 158.14 42.5606L158.448 43.1489L162.947 44.7282C169.454 47.0125 169.99 47.2145 170.497 47.5746C171.063 47.9757 171.34 48.47 171.34 49.0764C171.339 49.6474 171.153 50.3048 170.973 50.3694C170.899 50.3959 169.532 49.8806 167.935 49.2241C156.173 44.3892 156.613 44.5543 155.468 44.5543C154.495 44.5543 153.752 45.2131 153.381 46.4039C153.155 47.13 153.158 47.878 153.389 48.5175C153.6 49.104 154.273 50.0523 154.679 50.3364C154.879 50.4765 156.632 50.847 160.873 51.646C169.169 53.2089 169.73 53.3358 170.477 53.8192C171.081 54.2105 171.303 55.2128 170.942 55.9248C170.486 56.8255 170.084 56.803 166.249 55.6613C160.325 53.8974 152.173 51.5431 151.99 51.5431C151.691 51.5431 150.368 52.2125 149.87 52.6156C149.617 52.82 149.277 53.2416 149.115 53.5525C148.852 54.0564 148.825 54.2022 148.873 54.8962C148.919 55.5649 148.998 55.8071 149.436 56.6151C150.294 58.1998 149.996 58.0601 153.182 58.3694C154.691 58.5159 157.085 58.7485 158.503 58.8863C159.921 59.0242 162.193 59.2542 163.55 59.3976C164.908 59.541 166.611 59.7056 167.336 59.7635C169.349 59.9244 169.786 60.032 170.269 60.485C170.67 60.8598 170.682 60.8939 170.682 61.6064C170.682 62.9927 170.186 63.5089 168.927 63.4334C168.534 63.4099 165.399 62.9191 161.959 62.3428C158.52 61.7665 155.286 61.2262 154.773 61.1421C154.26 61.0581 152.483 60.7602 150.823 60.4803C149.164 60.2004 147.703 59.9712 147.578 59.9711C147.078 59.9705 145.569 62.0772 145.26 63.2073C144.927 64.4229 145.332 65.8707 146.277 66.8513C147.155 67.7609 148.106 67.9696 150.589 67.797C155.011 67.4898 156.817 67.3987 163.55 67.1425C168.52 66.9534 169.446 66.9636 169.885 67.2121C170.369 67.486 170.612 68.0056 170.609 68.7582C170.606 69.525 170.36 70.082 169.913 70.3368C169.589 70.5213 169.369 70.5296 166.039 70.4823C164.097 70.4547 159.2 70.4796 155.157 70.5375C148.986 70.626 147.656 70.6198 146.873 70.4991C144.573 70.1446 143.816 70.4199 143.171 71.8463C142.409 73.5312 142.199 75.6916 142.681 76.8818C142.949 77.5435 143.57 78.3819 144.021 78.6928C144.282 78.8732 144.371 78.8747 145.941 78.7277C149.647 78.3805 150.752 78.1872 158.668 76.5003C159.452 76.3332 161.427 75.943 163.057 75.6334C164.932 75.277 166.382 74.9418 167.006 74.72C168.6 74.1546 168.95 74.0975 169.439 74.323C170.07 74.6141 170.408 75.3131 170.408 76.3272C170.408 76.9696 170.364 77.1735 170.178 77.4092C169.82 77.8619 169.153 78.2466 168.433 78.4154C167.853 78.5514 161.731 79.4151 148.116 81.2818C143.555 81.9071 143.71 81.8606 142.546 82.9517C141.51 83.9218 140.888 85.6992 141.266 86.6108C141.648 87.5341 141.809 87.8395 142.186 88.3538C142.551 88.852 143.047 89.314 143.792 89.8499C144.074 90.0531 144.41 90.0077 146.545 89.4776C149.354 88.7798 151.855 87.9795 156.704 86.2271C161.374 84.539 162.527 84.1353 164.907 83.3554C165.82 83.0561 167.032 82.6402 167.6 82.4312C168.795 81.9916 169.194 82.001 169.622 82.4784C170.336 83.2733 170.432 84.4354 169.84 85.1294C169.286 85.7786 168.568 86.148 166.912 86.6356C165.06 87.1809 152.684 90.6314 146.818 92.2377C143.978 93.0153 142.594 93.4409 142.475 93.5723C141.948 94.1574 141.647 97.65 142.063 98.3601C142.742 99.5191 144.119 99.9764 146.983 99.9931L148.574 100.002L152.14 98.164C154.101 97.153 155.952 96.1993 156.254 96.0448C156.556 95.8904 157.84 95.2328 159.107 94.5836C160.374 93.9345 162.497 92.8572 163.825 92.1898C165.152 91.5223 166.57 90.7778 166.974 90.5353C168.045 89.8936 168.322 89.7761 168.762 89.7761C169.752 89.7761 170.36 91.2832 169.819 92.3969C169.497 93.059 168.818 93.5343 167.096 94.304C166.217 94.6965 165.484 95.0177 165.467 95.0177C165.45 95.0177 164.481 95.438 163.313 95.9519C161.329 96.8254 156.834 98.7177 152.524 100.493C149.677 101.666 148.99 101.985 148.916 102.165C148.814 102.415 148.834 102.818 148.96 103.038C149.199 103.456 151.317 103.705 154.553 103.694C156.882 103.687 157.085 103.67 158.119 103.407C159.571 103.038 161.003 102.369 162.014 101.588C162.729 101.035 163.517 100.472 164.819 99.5829C165.725 98.9637 168.532 97.4843 168.801 97.4843C168.993 97.4843 169.365 98.4973 169.365 99.0227C169.365 100.01 169.024 100.486 167.408 101.75C166.83 102.202 166.17 102.803 165.942 103.086L165.527 103.6L166.409 103.67C167.875 103.788 168.354 104.043 168.784 104.936C168.972 105.326 169.024 112.724 169.01 114.407L169.024 117.812H169.471C169.792 117.812 169.976 117.812 170.56 117.812C171.276 117.812 171.305 117.812 173.311 117.812C174.51 117.812 174.859 117.812 175.059 117.812C175.34 117.812 175.132 117.812 176.119 117.812C176.119 116.734 176.119 118.37 176.119 116.909C176.119 115.448 176.119 115.448 176.119 113.518C176.119 106.198 176.253 115.859 176.119 110.845C176.119 106.712 176.118 106.509 176.118 105.822C175.629 104.527 176.214 103.953 178.218 103.763C179.223 103.668 179.494 103.526 179.624 103.028C179.689 102.778 179.624 102.732 178.397 102.155C176.369 101.201 175.603 100.367 175.842 99.373C175.952 98.9173 176.281 98.4744 176.547 98.4254C176.976 98.3465 177.498 98.5482 178.534 99.1925C179.134 99.5655 179.92 100.011 180.282 100.182C180.644 100.353 181.212 100.692 181.544 100.935C182.242 101.447 184.624 102.577 185.823 102.965C186.915 103.319 188.207 103.613 189.26 103.747C191.04 103.974 194.317 103.82 195.726 103.443C195.953 103.382 196.217 103.22 196.313 103.083C196.473 102.854 196.471 102.804 196.284 102.449C196.049 102.001 196.233 102.095 192.406 100.456C190.807 99.7708 188.882 98.9423 188.127 98.6148C187.373 98.2872 185.867 97.6385 184.781 97.1731C176.581 93.6603 176.025 93.3856 175.428 92.5564C174.842 91.7423 175.431 90.1914 176.445 89.878C176.93 89.7282 177.452 89.9112 178.417 90.5697C178.84 90.8579 180.222 91.6012 181.489 92.2214C182.757 92.8418 186.656 94.7703 190.155 96.507C193.654 98.2437 196.76 99.7544 197.057 99.864C198.724 100.479 200.419 100.503 201.86 99.9308C202.432 99.7039 202.55 99.511 203.11 97.8954C203.353 97.193 203.414 96.8204 203.421 95.9941C203.431 94.8292 203.338 94.5869 202.577 93.8144C201.985 93.2124 201.224 92.8663 199.483 92.4065C193.389 90.7975 177.278 86.2926 176.662 86.0253C175.418 85.4865 174.849 84.8021 174.854 83.8509C174.857 83.2416 175.156 82.593 175.578 82.2809C176.016 81.9569 176.629 82.0295 177.869 82.5522C178.412 82.7812 179.276 83.0922 179.789 83.2433C181.362 83.7069 183.526 84.4536 187.249 85.818C193.996 88.29 195.414 88.7441 199.287 89.6715C200.826 90.0399 200.776 90.0492 201.719 89.2205C203.157 87.9569 203.773 86.749 203.683 85.37C203.614 84.3178 203.307 83.734 202.36 82.8542C201.269 81.8412 200.966 81.7388 197.782 81.3093C184.188 79.475 176.462 78.3749 175.972 78.2037C175.363 77.9914 174.86 77.5905 174.672 77.1683C174.493 76.767 174.478 75.7988 174.642 75.2457C174.902 74.3656 175.517 74.1694 176.778 74.5632C177.136 74.6753 180.861 75.412 185.055 76.2003C189.249 76.9886 194.303 77.9417 196.286 78.3183L199.891 79.0031L200.484 78.621C202.038 77.6183 202.721 76.0725 202.398 74.2875C202.271 73.5815 201.627 70.7319 201.586 70.6936C201.574 70.6823 195.739 70.6583 188.619 70.6406L175.674 70.6082L175.18 70.3353C174.55 69.9867 174.278 69.7082 173.927 69.0516C173.587 68.4151 173.572 68.1014 173.865 67.7523C174.339 67.1884 174.742 67.1369 178.218 67.1965C191.361 67.4221 196.282 67.4669 196.767 67.3656C197.57 67.1978 198.417 66.766 199.086 66.1828L199.694 65.6525L199.557 64.0707C199.391 62.1518 199.2 61.4548 198.69 60.8962C197.942 60.0773 196.883 59.7845 195.505 60.0151C193.459 60.3575 186.278 61.5707 182.148 62.2718C175.699 63.3661 175.33 63.4149 174.802 63.2449C174.262 63.071 173.981 62.6467 173.896 61.8773C173.851 61.4726 173.887 61.1774 174.019 60.8535C174.349 60.0431 174.684 59.9392 178.198 59.5582C179.706 59.3946 181.36 59.2128 181.873 59.1542C182.386 59.0956 183.843 58.9313 185.11 58.789C186.377 58.6466 187.809 58.4839 188.292 58.4274C188.775 58.3709 190.231 58.2079 191.528 58.0652C192.826 57.9227 193.969 57.7826 194.069 57.754C194.489 57.6338 195.168 55.7161 195.234 54.4649C195.276 53.6674 195.251 53.4723 195.056 53.116C194.652 52.3741 193.715 51.8194 192.401 51.5443L191.793 51.4171L185.873 53.236C182.617 54.2365 178.916 55.3739 177.649 55.7636C174.806 56.638 174.762 56.6466 174.255 56.4213C173.29 55.9922 173.121 54.4645 173.969 53.8317C174.684 53.2974 175.453 53.1036 184.891 51.0771C188.314 50.342 189.164 50.057 190.167 49.3087L190.726 48.8919L190.792 47.7765C190.91 45.8131 190.63 44.6958 189.933 44.3462C189.568 44.1633 188.507 44.1866 187.761 44.3939C187.449 44.4804 186.331 44.9938 185.275 45.5351C182.487 46.9636 179.662 48.2389 177.594 49.0028C175.469 49.7878 173.513 50.3633 173.269 50.2755C173.008 50.182 173.036 48.9461 173.31 48.4084C173.777 47.4945 174.316 47.1745 176.601 46.4556C180.764 45.1463 185.112 43.6093 185.353 43.3623C185.486 43.2251 185.802 42.7866 186.055 42.3879C186.801 41.2115 186.789 40.286 186.017 39.4645C185.498 38.9112 185.044 38.696 184.397 38.696C183.845 38.696 183.411 38.8619 182.577 39.3925C182.22 39.6194 180.867 40.3828 179.569 41.0887C178.272 41.7947 176.371 42.8399 175.345 43.4115C173.264 44.5711 173.32 44.5653 173.109 43.6401C172.99 43.1214 173.086 42.5059 173.332 42.2146C173.651 41.8357 174.011 41.6353 176.607 40.391C179.963 38.7819 181.324 37.946 181.924 37.1243C182.296 36.6161 182.359 36.4508 182.357 35.9938C182.355 35.6985 182.268 35.2906 182.162 35.0839C181.907 34.5889 181.239 33.8655 181.037 33.8655C180.949 33.8655 180.037 34.4889 179.011 35.2509C176.069 37.4365 175.151 37.9958 173.619 38.5355L172.88 38.7958L172.809 38.5331C172.7 38.1233 172.854 37.3519 173.118 36.991C173.369 36.6478 174.064 36.189 175.61 35.3456C177.353 34.395 178.219 33.3158 178.336 31.9497L178.395 31.2662L178.077 31.3391C177.902 31.3793 177.047 31.6681 176.177 31.9809C173.618 32.9005 173.043 33.0508 171.834 33.1143C170.031 33.2091 168.808 32.8104 167.061 31.5588C166.548 31.1911 166.018 30.8892 165.882 30.8876C165.646 30.8851 165.635 30.9206 165.644 31.6815Z" fill="#00341F"/>
<path fill-rule="evenodd" clip-rule="evenodd" d="M227.335 71.1212C227.024 71.2827 226.769 71.5702 226.724 71.8121C226.704 71.9158 226.698 72.2206 226.71 72.4894C226.735 73.0377 226.883 73.4422 227.158 73.7126C227.29 73.8418 227.342 73.8597 227.521 73.8358C227.848 73.7922 228.139 73.554 228.344 73.1616C228.517 72.8298 228.522 72.8032 228.501 72.3152C228.472 71.6541 228.329 71.3073 228.007 71.1198C227.733 70.9597 227.646 70.9599 227.335 71.1212ZM224.52 73.4157C224.523 73.6417 224.542 73.9681 224.564 74.141C224.6 74.4267 224.625 74.475 224.846 74.6713C224.98 74.7901 225.323 75.0066 225.609 75.1525C226.853 75.7868 227.223 76.1964 227.17 76.8774L227.154 77.0847L226.721 76.9082C226.088 76.6499 225.35 76.1995 224.442 75.5171L223.639 74.9138H223.155C222.744 74.9138 222.653 74.93 222.556 75.0197C222.414 75.1518 222.366 75.3952 222.392 75.8567C222.419 76.3292 222.541 76.4987 223.011 76.7197C224.714 77.5188 226.822 78.6058 226.986 78.7691C227.195 78.9771 227.261 79.1764 227.205 79.4349C227.165 79.6168 226.984 80.005 226.938 80.005C226.923 80.005 226.762 79.9124 226.579 79.7993C226.397 79.6862 225.528 79.1691 224.649 78.6503C223.769 78.1315 222.918 77.6188 222.757 77.511C221.988 76.9969 221.615 76.9187 221.213 77.1875C220.943 77.3679 220.695 77.714 220.645 77.9821C220.597 78.235 220.689 78.6533 220.875 79.0293L221.025 79.3329L223.21 80.1478C226.37 81.3265 226.631 81.4307 226.877 81.6165C227.152 81.8235 227.287 82.0785 227.286 82.3915C227.286 82.6861 227.196 83.0253 227.108 83.0587C227.072 83.0723 226.408 82.8064 225.633 82.4677C219.92 79.9729 220.134 80.058 219.577 80.058C219.105 80.058 218.744 80.398 218.564 81.0125C218.454 81.3871 218.455 81.7731 218.567 82.1031C218.67 82.4057 218.997 82.895 219.194 83.0416C219.291 83.1139 220.143 83.3051 222.202 83.7174C226.232 84.5238 226.504 84.5893 226.867 84.8388C227.161 85.0407 227.268 85.5579 227.093 85.9252C226.872 86.39 226.676 86.3784 224.814 85.7893C221.936 84.8791 217.977 83.6643 217.888 83.6643C217.743 83.6643 217.1 84.0097 216.858 84.2177C216.735 84.3232 216.57 84.5407 216.492 84.7011C216.364 84.9612 216.351 85.0364 216.374 85.3945C216.396 85.7396 216.435 85.8645 216.647 86.2815C217.064 87.0992 216.919 87.0271 218.467 87.1867C219.2 87.2623 220.363 87.3823 221.052 87.4534C221.74 87.5246 222.844 87.6433 223.503 87.7172C224.163 87.7912 224.99 87.8762 225.342 87.906C226.319 87.9891 226.532 88.0446 226.767 88.2783C226.961 88.4717 226.967 88.4893 226.967 88.857C226.967 89.5723 226.726 89.8387 226.114 89.7997C225.924 89.7876 224.401 89.5344 222.73 89.237C221.06 88.9396 219.489 88.6608 219.24 88.6174C218.991 88.574 218.127 88.4203 217.321 88.2759C216.515 88.1315 215.806 88.0132 215.745 88.0132C215.502 88.0128 214.769 89.0999 214.619 89.6831C214.458 90.3103 214.654 91.0574 215.113 91.5634C215.539 92.0327 216.002 92.1404 217.208 92.0514C219.355 91.8928 220.232 91.8458 223.503 91.7136C225.917 91.6161 226.367 91.6213 226.58 91.7496C226.815 91.8909 226.933 92.159 226.931 92.5473C226.93 92.943 226.811 93.2304 226.593 93.3619C226.436 93.4571 226.329 93.4614 224.712 93.437C223.768 93.4227 221.39 93.4356 219.426 93.4654C216.429 93.5111 215.783 93.5079 215.403 93.4457C214.285 93.2627 213.918 93.4048 213.604 94.1408C213.234 95.0102 213.132 96.125 213.367 96.7391C213.497 97.0805 213.798 97.5132 214.017 97.6736C214.144 97.7667 214.187 97.7675 214.95 97.6916C216.75 97.5124 217.287 97.4127 221.132 96.5423C221.513 96.456 222.472 96.2547 223.263 96.0949C224.174 95.9111 224.878 95.7381 225.182 95.6236C225.956 95.3319 226.126 95.3024 226.363 95.4188C226.67 95.569 226.834 95.9297 226.834 96.4529C226.834 96.7844 226.813 96.8896 226.722 97.0113C226.548 97.2448 226.224 97.4433 225.875 97.5305C225.593 97.6006 222.619 98.0463 216.007 99.0095C213.791 99.3322 213.867 99.3082 213.301 99.8712C212.798 100.372 212.496 101.289 212.679 101.759C212.865 102.236 212.943 102.393 213.126 102.659C213.303 102.916 213.544 103.154 213.906 103.431C214.043 103.536 214.207 103.512 215.243 103.239C216.608 102.879 217.823 102.466 220.178 101.561C222.446 100.69 223.006 100.482 224.162 100.08C224.606 99.9251 225.194 99.7105 225.47 99.6026C226.05 99.3758 226.244 99.3806 226.452 99.627C226.799 100.037 226.845 100.637 226.558 100.995C226.289 101.33 225.94 101.521 225.136 101.772C224.236 102.054 218.225 103.834 215.376 104.663C213.997 105.064 213.324 105.284 213.267 105.351C213.01 105.653 212.864 107.456 213.066 107.822C213.396 108.42 214.065 108.656 215.456 108.665L216.229 108.669L217.961 107.721C218.913 107.199 219.813 106.707 219.959 106.627C220.106 106.548 220.729 106.208 221.345 105.873C221.96 105.538 222.991 104.982 223.636 104.638C224.281 104.294 224.97 103.91 225.166 103.784C225.686 103.453 225.821 103.393 226.034 103.393C226.515 103.393 226.811 104.17 226.548 104.745C226.391 105.087 226.062 105.332 225.225 105.729C224.798 105.932 224.442 106.097 224.434 106.097C224.426 106.097 223.955 106.314 223.388 106.579C222.424 107.03 220.241 108.007 218.147 108.923C216.765 109.528 216.431 109.692 216.395 109.786C216.345 109.914 216.355 110.122 216.416 110.236C216.532 110.452 217.561 110.58 219.133 110.574C220.264 110.57 220.363 110.562 220.865 110.426C221.57 110.236 222.266 109.89 222.757 109.487C223.104 109.202 223.487 108.912 224.119 108.453C224.559 108.133 225.923 107.37 226.053 107.37C226.147 107.37 226.327 107.893 226.327 108.164C226.327 108.673 226.162 108.919 225.377 109.571C225.096 109.804 224.775 110.115 224.665 110.26L224.463 110.526L224.891 110.562C225.604 110.623 225.836 110.754 226.045 111.215C226.136 111.417 226.162 115.234 226.155 116.102L226.162 117.859H226.379C226.535 117.859 226.624 117.859 226.908 117.859C227.256 117.859 227.269 117.859 228.244 117.859C228.826 117.859 228.996 117.859 229.093 117.859C229.229 117.859 229.128 117.859 229.608 117.859C229.608 117.7 229.608 116.659 229.608 116.102C229.608 115.546 229.608 118.147 229.608 117.393C229.608 116.64 229.608 116.64 229.608 115.643C229.608 111.867 229.673 116.852 229.608 114.264C229.608 112.132 229.607 112.027 229.607 111.672C229.37 111.004 229.654 110.708 230.627 110.61C231.115 110.561 231.247 110.487 231.31 110.23C231.342 110.102 231.31 110.078 230.714 109.78C229.729 109.288 229.357 108.857 229.473 108.345C229.526 108.11 229.687 107.881 229.816 107.856C230.024 107.815 230.278 107.919 230.781 108.251C231.072 108.444 231.454 108.674 231.63 108.762C231.806 108.85 232.082 109.025 232.243 109.151C232.582 109.415 233.739 109.998 234.321 110.198C234.852 110.381 235.479 110.532 235.99 110.602C236.855 110.719 238.447 110.639 239.131 110.445C239.241 110.413 239.37 110.33 239.416 110.259C239.494 110.141 239.493 110.115 239.402 109.932C239.288 109.701 239.377 109.749 237.519 108.903C236.742 108.55 235.807 108.122 235.44 107.953C235.074 107.784 234.343 107.45 233.815 107.209C229.832 105.397 229.562 105.255 229.272 104.827C228.988 104.407 229.274 103.607 229.766 103.445C230.002 103.368 230.255 103.462 230.724 103.802C230.929 103.951 231.601 104.334 232.216 104.654C232.832 104.975 234.726 105.97 236.425 106.866C238.125 107.762 239.634 108.541 239.778 108.598C240.587 108.916 241.411 108.928 242.111 108.632C242.388 108.515 242.446 108.416 242.717 107.582C242.836 107.22 242.865 107.027 242.869 106.601C242.874 106 242.828 105.875 242.459 105.476C242.171 105.166 241.802 104.987 240.956 104.75C237.996 103.92 230.171 101.595 229.871 101.457C229.267 101.179 228.991 100.826 228.993 100.335C228.995 100.021 229.14 99.6861 229.345 99.525C229.558 99.3579 229.855 99.3953 230.458 99.6651C230.721 99.7832 231.141 99.9437 231.39 100.022C232.154 100.261 233.205 100.646 235.014 101.35C238.291 102.626 238.98 102.86 240.861 103.339C241.608 103.529 241.584 103.534 242.042 103.106C242.74 102.454 243.04 101.831 242.996 101.119C242.962 100.576 242.813 100.275 242.353 99.8209C241.824 99.2982 241.676 99.2453 240.13 99.0237C233.527 98.0772 229.774 97.5096 229.536 97.4212C229.241 97.3117 228.996 97.1048 228.905 96.887C228.818 96.6799 228.811 96.1803 228.89 95.8949C229.017 95.4408 229.315 95.3395 229.928 95.5427C230.102 95.6005 231.911 95.9807 233.948 96.3875C235.985 96.7942 238.44 97.286 239.403 97.4804L241.154 97.8337L241.442 97.6365C242.197 97.1192 242.529 96.3215 242.372 95.4005C242.31 95.0362 241.997 93.5658 241.977 93.546C241.971 93.5402 239.137 93.5278 235.679 93.5186L229.392 93.5019L229.152 93.3611C228.846 93.1812 228.713 93.0375 228.543 92.6987C228.378 92.3703 228.371 92.2084 228.513 92.0283C228.743 91.7373 228.939 91.7107 230.627 91.7415C237.011 91.8579 239.401 91.881 239.637 91.8287C240.027 91.7422 240.438 91.5193 240.763 91.2184L241.058 90.9448L240.992 90.1285C240.911 89.1384 240.819 88.7787 240.571 88.4905C240.207 88.0679 239.693 87.9169 239.024 88.0359C238.03 88.2126 234.542 88.8386 232.536 89.2003C229.404 89.765 229.225 89.7902 228.968 89.7025C228.706 89.6127 228.569 89.3938 228.528 88.9968C228.506 88.7879 228.524 88.6356 228.588 88.4685C228.748 88.0503 228.911 87.9967 230.617 87.8001C231.35 87.7157 232.154 87.6219 232.403 87.5917C232.652 87.5614 233.359 87.4766 233.975 87.4032C234.59 87.3297 235.286 87.2458 235.52 87.2166C235.755 87.1874 236.462 87.1033 237.092 87.0297C237.723 86.9562 238.278 86.8839 238.326 86.8691C238.53 86.8071 238.86 85.8176 238.892 85.172C238.913 84.7604 238.9 84.6598 238.806 84.4759C238.61 84.0931 238.154 83.8068 237.516 83.6649L237.221 83.5993L234.346 84.5378C232.764 85.0541 230.967 85.641 230.351 85.8421C228.97 86.2933 228.949 86.2977 228.702 86.1814C228.234 85.96 228.151 85.1718 228.563 84.8452C228.911 84.5695 229.284 84.4695 233.868 83.4238C235.531 83.0445 235.944 82.8975 236.431 82.5114L236.702 82.2962L236.735 81.7207C236.792 80.7076 236.656 80.1311 236.317 79.9507C236.14 79.8563 235.625 79.8683 235.262 79.9753C235.111 80.0199 234.568 80.2849 234.055 80.5641C232.701 81.3012 231.329 81.9593 230.324 82.3535C229.292 82.7585 228.342 83.0555 228.223 83.0102C228.097 82.962 228.11 82.3243 228.244 82.0468C228.47 81.5752 228.732 81.4101 229.842 81.0392C231.864 80.3635 233.976 79.5705 234.093 79.443C234.158 79.3722 234.311 79.1459 234.434 78.9402C234.796 78.3331 234.791 77.8556 234.416 77.4317C234.163 77.1462 233.943 77.0352 233.628 77.0352C233.36 77.0352 233.15 77.1208 232.745 77.3946C232.571 77.5117 231.914 77.9055 231.284 78.2698C230.653 78.6341 229.73 79.1734 229.232 79.4684C228.221 80.0667 228.248 80.0637 228.146 79.5863C228.088 79.3187 228.135 79.0011 228.254 78.8507C228.409 78.6553 228.584 78.5518 229.845 77.9098C231.475 77.0795 232.136 76.6482 232.427 76.2242C232.608 75.9619 232.639 75.8766 232.638 75.6408C232.637 75.4884 232.594 75.278 232.543 75.1713C232.419 74.9159 232.095 74.5426 231.997 74.5426C231.954 74.5426 231.511 74.8643 231.013 75.2575C229.583 76.3852 229.137 76.6738 228.393 76.9523L228.034 77.0867L228 76.9511C227.947 76.7397 228.022 76.3416 228.15 76.1554C228.272 75.9783 228.61 75.7415 229.361 75.3063C230.207 74.8158 230.628 74.259 230.685 73.5541L230.713 73.2013L230.559 73.239C230.474 73.2597 230.058 73.4088 229.636 73.5701C228.393 74.0447 228.113 74.1222 227.527 74.155C226.651 74.2039 226.057 73.9982 225.208 73.3523C224.959 73.1626 224.701 73.0068 224.635 73.006C224.521 73.0047 224.516 73.023 224.52 73.4157Z" fill="#00341F"/>
<path d="M200.427 112.899C200.427 115.582 199.224 117.882 199.224 117.882H202.832C202.832 117.882 204.035 117.499 203.433 112.516C202.832 107.533 199.525 106 199.525 106C199.525 106 200.427 110.216 200.427 112.899Z" fill="#00341F"/>
<path d="M204.165 114.357C204.165 116.052 204.853 117.504 204.853 117.504H202.791C202.791 117.504 202.104 117.262 202.447 114.115C202.791 110.968 204.681 110 204.681 110C204.681 110 204.165 112.663 204.165 114.357Z" fill="#00341F"/>
<path d="M206.846 114.357C206.846 116.052 207.533 117.504 207.533 117.504H205.471C205.471 117.504 204.784 117.262 205.128 114.115C205.471 110.968 207.361 110 207.361 110C207.361 110 206.846 112.663 206.846 114.357Z" fill="#00341F"/>
<path d="M205.134 115.631C205.134 117.043 205.478 118.254 205.478 118.254H204.447C204.447 118.254 204.103 118.052 204.275 115.429C204.447 112.807 205.392 112 205.392 112C205.392 112 205.134 114.219 205.134 115.631Z" fill="#00341F"/>
<path d="M207.814 115.631C207.814 117.043 208.158 118.254 208.158 118.254H207.127C207.127 118.254 206.784 118.052 206.955 115.429C207.127 112.807 208.072 112 208.072 112C208.072 112 207.814 114.219 207.814 115.631Z" fill="#00341F"/>
<path d="M81.4549 112.262C81.4549 115.087 82.1912 117.507 82.1912 117.507H79.9822C79.9822 117.507 79.2459 117.104 79.6141 111.859C79.9822 106.614 82.0071 105 82.0071 105C82.0071 105 81.4549 109.438 81.4549 112.262Z" fill="#00341F"/>
<path d="M82.9255 114.587C82.9255 116.37 83.6489 117.899 83.6489 117.899H81.4788C81.4788 117.899 80.7554 117.645 81.1171 114.332C81.4788 111.019 83.4681 110 83.4681 110C83.4681 110 82.9255 112.803 82.9255 114.587Z" fill="#00341F"/>
<path d="M83.9454 114.822C83.9454 116.309 84.3071 117.583 84.3071 117.583H83.222C83.222 117.583 82.8604 117.37 83.0412 114.61C83.222 111.849 84.2167 111 84.2167 111C84.2167 111 83.9454 113.336 83.9454 114.822Z" fill="#00341F"/>
<path d="M78.0111 114.187C78.0111 116.205 78.537 117.934 78.537 117.934H76.9593C76.9593 117.934 76.4333 117.646 76.6963 113.899C76.9593 110.153 78.4056 109 78.4056 109C78.4056 109 78.0111 112.17 78.0111 114.187Z" fill="#00341F"/>
<path d="M79.0615 115.276C79.0615 116.55 79.5782 117.642 79.5782 117.642H78.0281C78.0281 117.642 77.5114 117.46 77.7697 115.094C78.0281 112.728 79.449 112 79.449 112C79.449 112 79.0615 114.002 79.0615 115.276Z" fill="#00341F"/>
<path d="M79.7902 115.73C79.7902 116.792 80.0485 117.702 80.0485 117.702H79.2735C79.2735 117.702 79.0151 117.55 79.1443 115.579C79.2735 113.607 79.9839 113 79.9839 113C79.9839 113 79.7902 114.668 79.7902 115.73Z" fill="#00341F"/>
<path d="M56.6169 114.669C56.6169 116.484 55.3897 118.04 55.3897 118.04H59.0712C59.0712 118.04 60.2984 117.781 59.6848 114.409C59.0712 111.037 55.6965 110 55.6965 110C55.6965 110 56.6169 112.853 56.6169 114.669Z" fill="#00341F"/>
<path d="M58.3153 114.669C58.3153 116.484 58.0698 118.04 58.0698 118.04H58.8061C58.8061 118.04 59.0516 117.781 58.9288 114.409C58.8061 111.037 58.1312 110 58.1312 110C58.1312 110 58.3153 112.853 58.3153 114.669Z" fill="#00341F"/>
<path d="M60.7172 114.822C60.7172 116.309 61.0789 117.583 61.0789 117.583H59.9938C59.9938 117.583 59.6321 117.37 59.813 114.61C59.9938 111.849 60.9885 111 60.9885 111C60.9885 111 60.7172 113.336 60.7172 114.822Z" fill="#00341F"/>
<path d="M195.984 114.669C195.984 116.484 194.757 118.04 194.757 118.04H198.439C198.439 118.04 199.666 117.781 199.052 114.409C198.439 111.037 195.064 110 195.064 110C195.064 110 195.984 112.853 195.984 114.669Z" fill="#00341F"/>
<path d="M197.683 114.669C197.683 116.484 197.438 118.04 197.438 118.04H198.174C198.174 118.04 198.419 117.781 198.297 114.409C198.174 111.037 197.499 110 197.499 110C197.499 110 197.683 112.853 197.683 114.669Z" fill="#00341F"/>
<path d="M199.192 114.822C199.192 116.309 199.553 117.583 199.553 117.583H198.468C198.468 117.583 198.106 117.37 198.287 114.61C198.468 111.849 199.463 111 199.463 111C199.463 111 199.192 113.336 199.192 114.822Z" fill="#00341F"/>
<path d="M133.423 112.899C133.423 115.582 132.221 117.882 132.221 117.882H135.828C135.828 117.882 137.031 117.499 136.43 112.516C135.828 107.533 132.521 106 132.521 106C132.521 106 133.423 110.216 133.423 112.899Z" fill="#00341F"/>
<path d="M137.162 114.357C137.162 116.052 137.849 117.504 137.849 117.504H135.787C135.787 117.504 135.1 117.262 135.444 114.115C135.787 110.968 137.677 110 137.677 110C137.677 110 137.162 112.663 137.162 114.357Z" fill="#00341F"/>
<path d="M139.842 114.357C139.842 116.052 140.529 117.504 140.529 117.504H138.467C138.467 117.504 137.78 117.262 138.124 114.115C138.467 110.968 140.357 110 140.357 110C140.357 110 139.842 112.663 139.842 114.357Z" fill="#00341F"/>
<path d="M138.131 115.631C138.131 117.043 138.474 118.254 138.474 118.254H137.443C137.443 118.254 137.1 118.052 137.272 115.429C137.443 112.807 138.388 112 138.388 112C138.388 112 138.131 114.219 138.131 115.631Z" fill="#00341F"/>
<path d="M140.811 115.631C140.811 117.043 141.154 118.254 141.154 118.254H140.124C140.124 118.254 139.78 118.052 139.952 115.429C140.124 112.807 141.069 112 141.069 112C141.069 112 140.811 114.219 140.811 115.631Z" fill="#00341F"/>
</svg>
