<svg width="82" height="69" viewBox="0 0 82 69" fill="none" xmlns="http://www.w3.org/2000/svg">
<path fill-rule="evenodd" clip-rule="evenodd" d="M60.5207 0.177014C60.9754 0.412734 61.3471 0.832601 61.4136 1.18579C61.4422 1.33726 61.4511 1.7823 61.4332 2.17483C61.397 2.97538 61.1806 3.56607 60.779 3.96093C60.5871 4.14949 60.51 4.17566 60.2487 4.14082C59.771 4.07708 59.3468 3.72931 59.0476 3.15627C58.7947 2.67182 58.7875 2.63295 58.8186 1.92045C58.8607 0.955108 59.0698 0.448665 59.5391 0.175C59.94 -0.0587839 60.0663 -0.0585515 60.5207 0.177014ZM64.6311 3.52728C64.6275 3.85739 64.5987 4.33395 64.5671 4.58639C64.5149 5.00363 64.4774 5.0741 64.1547 5.36077C63.9595 5.53423 63.4582 5.85041 63.0407 6.06336C61.2253 6.98952 60.6842 7.58764 60.7621 8.5821L60.7858 8.88473L61.417 8.62709C62.3412 8.24989 63.4187 7.59221 64.745 6.59582L65.9176 5.71489H66.6247C67.2238 5.71489 67.3573 5.73851 67.4985 5.86946C67.7066 6.06235 67.7763 6.41779 67.7381 7.09166C67.6988 7.78163 67.5213 8.02912 66.834 8.35172C64.348 9.51855 61.2695 11.1059 61.0299 11.3443C60.7248 11.6479 60.6294 11.939 60.7113 12.3165C60.7689 12.5821 61.034 13.1489 61.1006 13.1489C61.1221 13.1489 61.3577 13.0137 61.6243 12.8485C61.8907 12.6834 63.1592 11.9283 64.4431 11.1708C65.7271 10.4132 66.9702 9.6646 67.2056 9.50717C68.3284 8.75649 68.8731 8.64235 69.4604 9.03488C69.8546 9.29832 70.2158 9.80368 70.2896 10.195C70.3592 10.5644 70.225 11.1752 69.9537 11.7242L69.7346 12.1675L66.5441 13.3574C61.9293 15.0785 61.5493 15.2307 61.1892 15.502C60.788 15.8042 60.5914 16.1766 60.5918 16.6336C60.5922 17.0638 60.7244 17.5591 60.8518 17.6078C60.9042 17.6277 61.8737 17.2395 63.0063 16.7449C71.3485 13.102 71.0361 13.2263 71.8482 13.2263C72.5382 13.2263 73.0652 13.7227 73.3282 14.62C73.4886 15.167 73.4868 15.7306 73.3232 16.2125C73.1732 16.6544 72.696 17.3689 72.4079 17.5829C72.2658 17.6885 71.0229 17.9676 68.0152 18.5696C62.1314 19.7472 61.7337 19.8428 61.2039 20.207C60.7751 20.5018 60.618 21.2571 60.8737 21.7935C61.1974 22.4722 61.4826 22.4552 64.2021 21.595C68.4038 20.266 74.1854 18.4921 74.3152 18.4921C74.5269 18.4921 75.4654 18.9965 75.8188 19.3002C75.9981 19.4542 76.239 19.7718 76.3542 20.0061C76.5409 20.3858 76.5595 20.4956 76.5258 21.0185C76.4933 21.5224 76.437 21.7048 76.1266 22.3137C75.5177 23.5077 75.7293 23.4024 73.4697 23.6354C72.3997 23.7458 70.7014 23.921 69.6956 24.0249C68.6899 24.1288 67.0791 24.3021 66.1161 24.4101C65.1532 24.5182 63.9451 24.6422 63.4315 24.6858C62.0039 24.8071 61.6938 24.8881 61.3509 25.2294C61.067 25.5118 61.0582 25.5375 61.0582 26.0743C61.0582 27.1189 61.4099 27.5078 62.3032 27.4509C62.5814 27.4332 64.805 27.0635 67.2445 26.6292C69.684 26.195 71.9776 25.7879 72.3414 25.7246C72.7051 25.6612 73.9658 25.4368 75.1427 25.2259C76.3197 25.015 77.3553 24.8423 77.4441 24.8422C77.7988 24.8418 78.869 26.4291 79.0883 27.2806C79.324 28.1964 79.0374 29.2873 78.3666 30.0261C77.7444 30.7115 77.0696 30.8687 75.3085 30.7387C72.1723 30.5073 70.8918 30.4386 66.1161 30.2455C62.5918 30.1031 61.9348 30.1108 61.6236 30.298C61.2805 30.5044 61.108 30.8958 61.1101 31.4629C61.1122 32.0407 61.2863 32.4603 61.6036 32.6523C61.8334 32.7914 61.9891 32.7976 64.3513 32.7619C65.7286 32.7412 69.2015 32.7599 72.069 32.8035C76.4457 32.8702 77.3888 32.8655 77.9441 32.7746C79.5755 32.5075 80.1121 32.7149 80.5698 33.7897C81.1102 35.0591 81.2592 36.6869 80.9171 37.5837C80.7269 38.0822 80.2872 38.7139 79.9673 38.9482C79.7817 39.0841 79.7189 39.0853 78.6055 38.9744C75.9766 38.7129 75.1933 38.5672 69.5789 37.2962C69.0225 37.1703 67.6219 36.8764 66.4663 36.643C65.1365 36.3746 64.1082 36.122 63.665 35.9548C62.5345 35.5289 62.2865 35.4858 61.94 35.6557C61.4924 35.8751 61.2527 36.4017 61.2527 37.1658C61.2527 37.6498 61.2834 37.8034 61.4156 37.9811C61.6696 38.3221 62.1427 38.612 62.6534 38.7392C63.0647 38.8416 67.4066 39.4924 77.0623 40.8988C80.2971 41.37 80.1872 41.335 81.0132 42.1571C81.7477 42.888 82.1888 44.2272 81.9211 44.9141C81.6501 45.6097 81.5357 45.8398 81.2683 46.2273C81.0094 46.6027 80.6578 46.9508 80.1296 47.3545C79.9292 47.5077 79.6907 47.4735 78.1771 47.074C76.1847 46.5483 74.4106 45.9453 70.9719 44.6249C67.6594 43.353 66.8416 43.0488 65.154 42.4612C64.5062 42.2357 63.6466 41.9223 63.2438 41.7649C62.3966 41.4337 62.1138 41.4408 61.8097 41.8005C61.3033 42.3994 61.2358 43.2749 61.6557 43.7979C62.0484 44.287 62.5577 44.5654 63.7321 44.9327C65.0454 45.3436 73.823 47.9434 77.983 49.1536C79.9971 49.7395 80.9792 50.0602 81.0633 50.1592C81.4373 50.6001 81.6506 53.2316 81.3557 53.7666C80.8743 54.6399 79.8971 54.9844 77.8662 54.997L76.7379 55.004L74.2089 53.6188C72.818 52.8571 71.5049 52.1385 71.2909 52.0222C71.0769 51.9058 70.1664 51.4103 69.2677 50.9212C68.3689 50.4321 66.8632 49.6204 65.9216 49.1175C64.98 48.6147 63.9748 48.0537 63.6877 47.871C62.9284 47.3875 62.7322 47.2989 62.4202 47.2989C61.7175 47.2989 61.2862 48.4345 61.6703 49.2736C61.8986 49.7724 62.3799 50.1306 63.6018 50.7105C64.2249 51.0062 64.7447 51.2482 64.7569 51.2482C64.7692 51.2482 65.4564 51.565 66.2842 51.9521C67.6914 52.6103 70.8799 54.0361 73.9366 55.374C75.9553 56.2575 76.4425 56.4974 76.4951 56.6338C76.5676 56.8217 76.5533 57.1252 76.4642 57.2909C76.2946 57.6062 74.7921 57.7936 72.497 57.7856C70.8458 57.7799 70.7019 57.7676 69.968 57.5693C68.9385 57.2912 67.9225 56.787 67.2056 56.1984C66.6988 55.7822 66.14 55.3579 65.2165 54.6879C64.5736 54.2214 62.5828 53.1067 62.3925 53.1067C62.2557 53.1067 61.9919 53.87 61.9919 54.2658C61.9919 55.0095 62.2343 55.368 63.3804 56.3204C63.7904 56.6611 64.2583 57.1141 64.4201 57.3271L64.7143 57.7143L64.0888 57.7676C63.0488 57.8561 62.7093 58.0483 62.4046 58.721C62.2712 59.0154 62.2339 64.5891 62.2438 65.8571L62.2339 68.4228H61.9169C61.6892 68.4228 61.559 68.4224 61.1445 68.4224C60.6366 68.4224 60.6166 68.4224 59.1935 68.4224C58.3431 68.4224 58.0957 68.4224 57.954 68.4224C57.7548 68.4224 57.9023 68.4228 57.202 68.4228C57.202 68.1905 57.2023 63.9861 57.2023 63.1736C57.2023 62.3612 57.2023 68.8432 57.2023 67.7425C57.2023 66.6418 57.2023 66.6418 57.2023 65.187C57.2023 59.6724 57.107 66.9515 57.2023 63.1736C57.2023 60.0596 57.2027 59.9063 57.2027 59.3888C57.5494 58.413 57.1346 57.9808 55.7136 57.8376C55.0009 57.7656 54.8082 57.6585 54.7163 57.2833C54.6702 57.0952 54.7159 57.0606 55.5868 56.6256C57.0248 55.9074 57.5684 55.2786 57.3987 54.5298C57.3209 54.1865 57.087 53.8527 56.8985 53.8158C56.5942 53.7564 56.224 53.9083 55.4894 54.3938C55.0641 54.6749 54.5061 55.0102 54.2493 55.1392C53.9925 55.268 53.5898 55.5236 53.3545 55.7069C52.8595 56.0925 51.1703 56.9438 50.3197 57.2363C49.5453 57.5026 48.6289 57.7241 47.8823 57.8253C46.6196 57.9965 44.2953 57.8805 43.2961 57.5962C43.1352 57.5504 42.948 57.4286 42.8801 57.3255C42.7663 57.1526 42.7679 57.1152 42.9003 56.8471C43.0671 56.5096 42.9369 56.5806 45.6508 55.3456C46.7849 54.8295 48.1506 54.2053 48.6855 53.9585C49.2205 53.7117 50.2885 53.2229 51.0589 52.8723C56.8745 50.2255 57.2691 50.0185 57.6922 49.3938C58.1076 48.7804 57.6899 47.6118 56.9709 47.3757C56.6271 47.2628 56.2568 47.4007 55.5722 47.8969C55.2726 48.114 54.2921 48.6741 53.3934 49.1414C52.4946 49.6088 49.7288 51.0619 47.2471 52.3704C44.7654 53.6789 42.5627 54.8171 42.3522 54.8997C41.1702 55.3634 39.9681 55.3811 38.9459 54.9501C38.5404 54.7791 38.4563 54.6337 38.0596 53.4165C37.8871 52.8873 37.8438 52.6065 37.8387 51.9839C37.8315 51.1062 37.8979 50.9237 38.4371 50.3416C38.8573 49.888 39.3967 49.6273 40.6317 49.2809C44.9536 48.0685 56.3798 44.6743 56.8172 44.4729C57.6991 44.0669 58.1027 43.5512 58.0995 42.8346C58.0974 42.3755 57.8852 41.8868 57.5857 41.6516C57.275 41.4075 56.8407 41.4622 55.9613 41.8561C55.5761 42.0286 54.9633 42.2629 54.5995 42.3767C53.4836 42.7261 51.9491 43.2887 49.3081 44.3167C44.5233 46.1793 43.5174 46.5214 40.7704 47.2202C39.6792 47.4977 39.7147 47.5047 39.046 46.8804C38.0262 45.9283 37.5893 45.0181 37.6532 43.9792C37.7021 43.1864 37.9198 42.7465 38.5914 42.0836C39.3648 41.3203 39.58 41.2432 41.8378 40.9196C51.4791 39.5376 56.9587 38.7087 57.3066 38.5797C57.738 38.4197 58.095 38.1177 58.2285 37.7996C58.3554 37.4972 58.3663 36.7677 58.25 36.3509C58.0649 35.6878 57.6294 35.54 56.7351 35.8368C56.4807 35.9212 53.8389 36.4762 50.8644 37.0702C47.8899 37.6641 44.3056 38.3823 42.8992 38.666L40.3422 39.182L39.9221 38.8941C38.8198 38.1386 38.3353 36.9739 38.564 35.629C38.6543 35.0971 39.1114 32.95 39.1403 32.9211C39.149 32.9126 43.2873 32.8946 48.3368 32.8812L57.5176 32.8568L57.8677 32.6512C58.3151 32.3885 58.508 32.1787 58.7568 31.684C58.9979 31.2044 59.0086 30.968 58.8007 30.705C58.4648 30.2801 58.1785 30.2413 55.7133 30.2863C46.3923 30.4562 42.9021 30.49 42.5578 30.4136C41.9882 30.2873 41.3879 29.9619 40.9135 29.5225L40.4822 29.1229L40.5793 27.9311C40.6971 26.4853 40.8321 25.9601 41.1941 25.5392C41.7249 24.9222 42.4758 24.7016 43.4533 24.8754C44.904 25.1334 49.9971 26.0475 52.9265 26.5757C57.4997 27.4002 57.7614 27.437 58.1361 27.3089C58.5192 27.1779 58.7186 26.8582 58.7787 26.2785C58.8103 25.9735 58.7853 25.7511 58.6916 25.5071C58.4573 24.8965 58.2195 24.8182 55.7278 24.5312C54.6579 24.4079 53.4848 24.2709 53.121 24.2268C52.7572 24.1826 51.7242 24.0588 50.8255 23.9515C49.9267 23.8443 48.9112 23.7217 48.5688 23.6791C48.2264 23.6365 47.1934 23.5137 46.2733 23.4062C45.3531 23.2988 44.5424 23.1933 44.4715 23.1717C44.1737 23.0812 43.6917 21.6363 43.645 20.6936C43.6153 20.0927 43.6335 19.9457 43.7711 19.6772C44.0576 19.1183 44.7225 18.7003 45.6542 18.493L46.0856 18.3972L50.2842 19.7677C52.5934 20.5214 55.2181 21.3784 56.1169 21.6721C58.1333 22.3309 58.1646 22.3373 58.524 22.1676C59.2086 21.8443 59.3286 20.6933 58.7273 20.2165C58.2195 19.8139 57.6744 19.6678 50.9811 18.141C48.5533 17.5872 47.9502 17.3724 47.2389 16.8086L46.8426 16.4945L46.7953 15.6542C46.7119 14.1748 46.9105 13.333 47.4051 13.0696C47.6638 12.9318 48.4159 12.9494 48.9454 13.1055C49.1663 13.1707 49.9598 13.5575 50.7087 13.9653C52.6857 15.0416 54.6891 16.0026 56.1558 16.5781C57.6632 17.1696 59.0505 17.6032 59.2237 17.5371C59.4082 17.4666 59.3886 16.5354 59.194 16.1303C58.8634 15.4417 58.4808 15.2005 56.86 14.6589C53.9076 13.6724 50.8238 12.5144 50.6533 12.3282C50.5586 12.2248 50.3344 11.8945 50.155 11.5941C49.6259 10.7077 49.6343 10.0104 50.1819 9.3914C50.5505 8.97455 50.8725 8.8124 51.3313 8.8124C51.7229 8.8124 52.0303 8.93738 52.6219 9.33719C52.875 9.50817 53.835 10.0833 54.7551 10.6152C55.6753 11.1471 57.0234 11.9347 57.751 12.3653C59.2272 13.239 59.1869 13.2346 59.3372 12.5375C59.4214 12.1467 59.3531 11.683 59.1788 11.4635C58.9522 11.178 58.6971 11.027 56.8561 10.0895C54.4757 8.87714 53.5107 8.24734 53.0849 7.62822C52.8215 7.24529 52.7767 7.12077 52.7781 6.77641C52.779 6.55393 52.8411 6.24658 52.9165 6.09085C53.097 5.71791 53.5705 5.17283 53.7139 5.17283C53.7765 5.17283 54.4231 5.64256 55.1507 6.21669C57.2377 7.8634 57.889 8.28482 58.9754 8.69144L59.4994 8.88759L59.5494 8.68966C59.6272 8.38092 59.5177 7.79967 59.3305 7.52779C59.1525 7.26914 58.6597 6.92346 57.563 6.28801C56.327 5.57179 55.7126 4.75869 55.6295 3.72939L55.588 3.21435L55.8135 3.26933C55.9376 3.29961 56.544 3.51721 57.1613 3.75285C58.9758 4.44577 59.384 4.55898 60.2411 4.60684C61.5196 4.67831 62.3875 4.37785 63.6261 3.43482C63.9898 3.15782 64.3662 2.93031 64.4626 2.92915C64.6298 2.92721 64.6373 2.95401 64.6311 3.52728Z" fill="#00341F"/>
<path fill-rule="evenodd" clip-rule="evenodd" d="M19.7431 25.1112C20.0287 25.2592 20.2621 25.5229 20.3039 25.7448C20.3218 25.8399 20.3274 26.1194 20.3162 26.3659C20.2934 26.8687 20.1576 27.2397 19.9053 27.4877C19.7848 27.6061 19.7363 27.6226 19.5723 27.6007C19.2723 27.5607 19.0058 27.3422 18.8179 26.9823C18.659 26.6781 18.6545 26.6537 18.6741 26.2062C18.7005 25.5999 18.8319 25.2818 19.1266 25.1099C19.3784 24.9631 19.4577 24.9632 19.7431 25.1112ZM22.3247 27.2153C22.3224 27.4227 22.3043 27.722 22.2845 27.8805C22.2517 28.1426 22.2281 28.1868 22.0255 28.3669C21.9029 28.4758 21.588 28.6744 21.3258 28.8082C20.1856 29.3898 19.8458 29.7655 19.8947 30.3901L19.9096 30.5801L20.306 30.4183C20.8865 30.1814 21.5632 29.7684 22.3962 29.1426L23.1327 28.5893H23.5768C23.9531 28.5893 24.0369 28.6041 24.1256 28.6864C24.2563 28.8075 24.3 29.0308 24.276 29.454C24.2514 29.8873 24.1399 30.0428 23.7082 30.2454C22.1469 30.9782 20.2134 31.9752 20.0629 32.1249C19.8713 32.3156 19.8114 32.4984 19.8628 32.7355C19.899 32.9023 20.0655 33.2583 20.1073 33.2583C20.1208 33.2583 20.2688 33.1734 20.4362 33.0697C20.6035 32.9659 21.4002 32.4917 22.2066 32.0159C23.013 31.5401 23.7938 31.07 23.9416 30.9711C24.6468 30.4996 24.9889 30.4279 25.3578 30.6744C25.6054 30.8399 25.8322 31.1573 25.8786 31.4031C25.9223 31.6351 25.838 32.0187 25.6676 32.3635L25.53 32.6419L23.5262 33.3892C20.6278 34.4702 20.3891 34.5658 20.163 34.7362C19.911 34.926 19.7875 35.1599 19.7878 35.4469C19.788 35.7171 19.871 36.0282 19.951 36.0587C19.9839 36.0713 20.5928 35.8274 21.3042 35.5168C26.5436 33.2288 26.3474 33.3069 26.8575 33.3069C27.2908 33.3069 27.6218 33.6187 27.787 34.1822C27.8877 34.5258 27.8866 34.8798 27.7838 35.1824C27.6896 35.4599 27.3899 35.9087 27.209 36.0431C27.1197 36.1094 26.3391 36.2848 24.4501 36.6628C20.7547 37.4024 20.5049 37.4625 20.1722 37.6912C19.9029 37.8764 19.8042 38.3507 19.9648 38.6876C20.1681 39.1139 20.3472 39.1032 22.0553 38.5629C24.6941 37.7283 28.3253 36.6142 28.4069 36.6142C28.5398 36.6142 29.1293 36.9309 29.3513 37.1217C29.4639 37.2184 29.6152 37.4179 29.6875 37.565C29.8047 37.8035 29.8164 37.8725 29.7953 38.2009C29.7748 38.5174 29.7395 38.632 29.5446 39.0143C29.1621 39.7642 29.295 39.6981 27.8758 39.8445C27.2038 39.9138 26.1372 40.0239 25.5055 40.0891C24.8738 40.1543 23.8622 40.2632 23.2574 40.331C22.6526 40.3989 21.8938 40.4768 21.5713 40.5042C20.6747 40.5803 20.4799 40.6313 20.2645 40.8456C20.0862 41.023 20.0807 41.0391 20.0807 41.3763C20.0807 42.0323 20.3016 42.2766 20.8626 42.2409C21.0373 42.2297 22.4339 41.9975 23.966 41.7247C25.4982 41.452 26.9387 41.1964 27.1672 41.1566C27.3957 41.1168 28.1874 40.9758 28.9266 40.8434C29.6658 40.7109 30.3163 40.6025 30.372 40.6024C30.5948 40.6021 31.267 41.5991 31.4046 42.1339C31.5527 42.7091 31.3727 43.3942 30.9514 43.8582C30.5606 44.2887 30.1368 44.3874 29.0307 44.3058C27.061 44.1604 26.2568 44.1173 23.2574 43.996C21.0439 43.9066 20.6313 43.9114 20.4358 44.029C20.2203 44.1586 20.1119 44.4045 20.1133 44.7606C20.1146 45.1235 20.2239 45.387 20.4232 45.5076C20.5675 45.595 20.6653 45.5989 22.1489 45.5765C23.0139 45.5634 25.1952 45.5752 26.9961 45.6026C29.745 45.6445 30.3373 45.6416 30.686 45.5845C31.7107 45.4167 32.0477 45.547 32.3351 46.222C32.6746 47.0193 32.7681 48.0416 32.5532 48.6048C32.4338 48.9179 32.1576 49.3147 31.9567 49.4618C31.8401 49.5472 31.8008 49.5479 31.1014 49.4783C29.4503 49.314 28.9584 49.2225 25.4322 48.4243C25.0828 48.3452 24.2031 48.1606 23.4773 48.014C22.6421 47.8454 21.9963 47.6868 21.7179 47.5818C21.0079 47.3143 20.8521 47.2872 20.6345 47.3939C20.3534 47.5317 20.2028 47.8625 20.2028 48.3424C20.2028 48.6464 20.2221 48.7428 20.3052 48.8544C20.4646 49.0686 20.7618 49.2507 21.0825 49.3306C21.3409 49.3949 24.0679 49.8036 30.1322 50.687C32.1639 50.9829 32.0948 50.9609 32.6137 51.4772C33.075 51.9363 33.352 52.7774 33.1839 53.2088C33.0136 53.6457 32.9418 53.7902 32.7739 54.0336C32.6113 54.2693 32.3904 54.4879 32.0587 54.7415C31.9328 54.8377 31.783 54.8162 30.8324 54.5653C29.581 54.2352 28.4668 53.8564 26.3071 53.0272C24.2266 52.2283 23.713 52.0373 22.6531 51.6682C22.2463 51.5266 21.7064 51.3298 21.4533 51.2309C20.9213 51.0229 20.7437 51.0273 20.5527 51.2532C20.2346 51.6294 20.1922 52.1793 20.4559 52.5077C20.7026 52.8149 21.0225 52.9897 21.7601 53.2205C22.5849 53.4785 28.0977 55.1113 30.7105 55.8715C31.9755 56.2394 32.5923 56.4408 32.6451 56.503C32.88 56.7799 33.014 58.4326 32.8287 58.7687C32.5264 59.3171 31.9127 59.5336 30.6371 59.5414L29.9285 59.5458L28.3401 58.6759C27.4665 58.1974 26.6418 57.7462 26.5074 57.6731C26.373 57.6 25.8012 57.2888 25.2367 56.9816C24.6722 56.6744 23.7266 56.1646 23.1352 55.8488C22.5438 55.533 21.9125 55.1806 21.7322 55.0659C21.2553 54.7622 21.1321 54.7066 20.9361 54.7066C20.4948 54.7066 20.2239 55.4198 20.4651 55.9468C20.6085 56.2601 20.9108 56.485 21.6782 56.8493C22.0695 57.035 22.396 57.187 22.4037 57.187C22.4114 57.187 22.843 57.3859 23.3629 57.6291C24.2468 58.0425 26.2493 58.9379 28.1691 59.7782C29.437 60.3331 29.743 60.4838 29.776 60.5695C29.8215 60.6875 29.8126 60.8781 29.7566 60.9821C29.6501 61.1802 28.7064 61.2979 27.2649 61.2929C26.2279 61.2893 26.1375 61.2815 25.6766 61.157C25.03 60.9823 24.3919 60.6657 23.9416 60.296C23.6233 60.0346 23.2724 59.7681 22.6924 59.3473C22.2886 59.0543 21.0382 58.3543 20.9187 58.3543C20.8328 58.3543 20.6671 58.8336 20.6671 59.0822C20.6671 59.5493 20.8193 59.7745 21.5392 60.3726C21.7967 60.5866 22.0905 60.8711 22.1921 61.0049L22.3769 61.2481L21.984 61.2815C21.3309 61.3371 21.1177 61.4578 20.9263 61.8803C20.8425 62.0652 20.8191 65.5658 20.8253 66.3622L20.8191 67.9737H20.62C20.477 67.9737 20.3952 67.9734 20.1349 67.9734C19.8159 67.9734 19.8033 67.9734 18.9095 67.9734C18.3754 67.9734 18.22 67.9734 18.1311 67.9734C18.0059 67.9734 18.0986 67.9737 17.6587 67.9737C17.6587 67.8278 17.659 64.416 17.659 63.9058C17.659 63.3955 17.659 68.2377 17.659 67.5464C17.659 66.8551 17.659 66.8551 17.659 65.9414C17.659 62.4779 17.5991 67.0496 17.659 64.6769C17.659 62.7211 17.6592 62.6248 17.6592 62.2998C17.8769 61.6869 17.6164 61.4155 16.7239 61.3255C16.2763 61.2803 16.1553 61.213 16.0976 60.9774C16.0686 60.8592 16.0973 60.8375 16.6443 60.5643C17.5474 60.1132 17.8889 59.7183 17.7823 59.248C17.7334 59.0324 17.5865 58.8228 17.4681 58.7996C17.277 58.7623 17.0445 58.8577 16.5831 59.1626C16.316 59.3391 15.9656 59.5498 15.8043 59.6307C15.643 59.7117 15.3901 59.8722 15.2423 59.9873C14.9314 60.2295 13.8705 60.7641 13.3362 60.9479C12.8499 61.1151 12.2743 61.2542 11.8054 61.3178C11.0123 61.4253 9.55255 61.3524 8.92503 61.1739C8.82396 61.1452 8.70637 61.0687 8.66371 61.0039C8.59225 60.8953 8.59323 60.8718 8.67641 60.7034C8.78115 60.4914 8.69938 60.536 10.4039 59.7604C11.1162 59.4362 11.9739 59.0442 12.3099 58.8892C12.6459 58.7342 13.3167 58.4272 13.8005 58.207C17.4531 56.5447 17.7009 56.4147 17.9666 56.0223C18.2275 55.637 17.9652 54.9031 17.5136 54.7548C17.2976 54.6839 17.0651 54.7705 16.6351 55.0821C16.447 55.2185 15.8312 55.5703 15.2667 55.8638C14.7022 56.1573 12.9651 57.0699 11.4065 57.8918C9.84784 58.7136 8.4644 59.4285 8.33216 59.4804C7.58983 59.7715 6.83479 59.7827 6.1928 59.512C5.93813 59.4046 5.88535 59.3133 5.63619 58.5488C5.52784 58.2164 5.50062 58.0401 5.49744 57.649C5.4929 57.0978 5.53463 56.9832 5.87327 56.6176C6.13718 56.3327 6.47592 56.169 7.25158 55.9514C9.96602 55.1899 17.1423 53.0582 17.4171 52.9317C17.971 52.6767 18.2245 52.3528 18.2224 51.9027C18.2211 51.6144 18.0878 51.3074 17.8998 51.1597C17.7046 51.0064 17.4318 51.0408 16.8795 51.2881C16.6376 51.3965 16.2527 51.5437 16.0242 51.6152C15.3233 51.8346 14.3596 52.1879 12.7009 52.8336C9.69575 54.0034 9.06398 54.2182 7.33872 54.6571C6.65338 54.8314 6.67567 54.8359 6.25565 54.4437C5.61518 53.8457 5.34076 53.2741 5.38093 52.6216C5.41162 52.1236 5.54837 51.8474 5.97019 51.4311C6.45593 50.9517 6.59107 50.9032 8.00911 50.7C14.0644 49.832 17.5059 49.3114 17.7245 49.2304C17.9954 49.1299 18.2196 48.9402 18.3034 48.7404C18.3832 48.5505 18.39 48.0923 18.3169 47.8306C18.2007 47.4141 17.9272 47.3213 17.3655 47.5077C17.2057 47.5607 15.5465 47.9093 13.6783 48.2823C11.8102 48.6554 9.55901 49.1064 8.67573 49.2846L7.06978 49.6087L6.80591 49.4278C6.11363 48.9533 5.80935 48.2219 5.95293 47.3772C6.00968 47.0431 6.29676 45.6946 6.31494 45.6765C6.32036 45.6711 8.91951 45.6598 12.0909 45.6514L17.8569 45.6361L18.0769 45.5069C18.3578 45.342 18.479 45.2102 18.6352 44.8995C18.7867 44.5983 18.7934 44.4498 18.6628 44.2846C18.4519 44.0178 18.2721 43.9934 16.7238 44.0216C10.8696 44.1284 8.67754 44.1496 8.46128 44.1016C8.10358 44.0222 7.72653 43.8179 7.4286 43.5419L7.1577 43.2909L7.21869 42.5424C7.29268 41.6344 7.37748 41.3045 7.60483 41.0402C7.93819 40.6527 8.40982 40.5141 9.0237 40.6232C9.93489 40.7853 13.1336 41.3594 14.9735 41.6911C17.8457 42.209 18.0101 42.2321 18.2454 42.1517C18.486 42.0694 18.6112 41.8686 18.649 41.5045C18.6689 41.3129 18.6531 41.1733 18.5943 41.02C18.4471 40.6365 18.2978 40.5873 16.7329 40.4071C16.0609 40.3296 15.3241 40.2436 15.0956 40.2159C14.8672 40.1881 14.2184 40.1104 13.6539 40.043C13.0894 39.9757 12.4516 39.8987 12.2366 39.8719C12.0216 39.8452 11.3728 39.768 10.7948 39.7005C10.2169 39.6331 9.70773 39.5668 9.66325 39.5533C9.47617 39.4964 9.17345 38.5889 9.14412 37.9968C9.12546 37.6194 9.13689 37.5271 9.22335 37.3585C9.4033 37.0074 9.82086 36.7449 10.406 36.6147L10.677 36.5545L13.3139 37.4153C14.7643 37.8887 16.4128 38.427 16.9772 38.6114C18.2437 39.0252 18.2633 39.0292 18.4891 38.9226C18.919 38.7195 18.9944 37.9966 18.6167 37.6972C18.2978 37.4443 17.9554 37.3526 13.7516 36.3937C12.2269 36.0458 11.8481 35.9109 11.4013 35.5568L11.1524 35.3596L11.1227 34.8318C11.0703 33.9026 11.1951 33.3739 11.5057 33.2085C11.6682 33.1219 12.1406 33.133 12.4731 33.2311C12.6118 33.272 13.1102 33.515 13.5806 33.7711C14.8222 34.4471 16.0805 35.0506 17.0017 35.412C17.9484 35.7835 18.8197 36.0559 18.9285 36.0143C19.0444 35.9701 19.0321 35.3852 18.9099 35.1308C18.7022 34.6983 18.4619 34.5469 17.4439 34.2067C15.5897 33.5871 13.6529 32.8598 13.5457 32.7429C13.4863 32.6779 13.3455 32.4705 13.2328 32.2818C12.9005 31.7251 12.9058 31.2872 13.2497 30.8984C13.4812 30.6366 13.6834 30.5347 13.9716 30.5347C14.2175 30.5347 14.4106 30.6132 14.7822 30.8643C14.9412 30.9717 15.5441 31.3329 16.122 31.667C16.6999 32.0011 17.5466 32.4957 18.0036 32.7662C18.9307 33.3149 18.9054 33.3121 18.9998 32.8743C19.0527 32.6289 19.0098 32.3376 18.9003 32.1998C18.758 32.0205 18.5978 31.9256 17.4415 31.3368C15.9465 30.5754 15.3404 30.1798 15.073 29.791C14.9075 29.5505 14.8794 29.4723 14.8803 29.256C14.8808 29.1163 14.9198 28.9232 14.9672 28.8254C15.0806 28.5912 15.378 28.2488 15.468 28.2488C15.5073 28.2488 15.9134 28.5439 16.3704 28.9045C17.6812 29.9387 18.0902 30.2034 18.7726 30.4588L19.1017 30.5819L19.1331 30.4576C19.1819 30.2637 19.1132 29.8987 18.9956 29.7279C18.8838 29.5655 18.5743 29.3484 17.8855 28.9492C17.1092 28.4994 16.7233 27.9887 16.6712 27.3423L16.6451 27.0188L16.7867 27.0533C16.8646 27.0724 17.2455 27.209 17.6332 27.357C18.7728 27.7922 19.0292 27.8633 19.5675 27.8934C20.3705 27.9383 20.9155 27.7496 21.6935 27.1573C21.9219 26.9833 22.1583 26.8404 22.2188 26.8397C22.3239 26.8385 22.3286 26.8553 22.3247 27.2153Z" fill="#00341F"/>
<path d="M34.6981 65.2173C34.6981 66.8574 34.2705 68.2631 34.2705 68.2631H35.5532C35.5532 68.2631 35.9808 68.0288 35.767 64.983C35.5532 61.9372 34.3774 61 34.3774 61C34.3774 61 34.6981 63.5772 34.6981 65.2173Z" fill="#00341F"/>
<path d="M33.8439 65.6636C33.8439 66.6994 33.4238 67.5872 33.4238 67.5872H34.6841C34.6841 67.5872 35.1041 67.4393 34.8941 65.5156C34.6841 63.5919 33.5288 63 33.5288 63C33.5288 63 33.8439 64.6277 33.8439 65.6636Z" fill="#00341F"/>
<path d="M33.252 66.2196C33.252 67.0828 33.042 67.8227 33.042 67.8227H33.6721C33.6721 67.8227 33.8821 67.6994 33.7771 66.0963C33.6721 64.4933 33.0945 64 33.0945 64C33.0945 64 33.252 65.3564 33.252 66.2196Z" fill="#00341F"/>
<path d="M36.698 66.0124C36.698 67.1838 36.3926 68.1879 36.3926 68.1879H37.3088C37.3088 68.1879 37.6142 68.0206 37.4615 65.845C37.3088 63.6694 36.4689 63 36.4689 63C36.4689 63 36.698 64.8409 36.698 66.0124Z" fill="#00341F"/>
<path d="M36.0886 66.9025C36.0886 67.6424 35.7886 68.2766 35.7886 68.2766H36.6887C36.6887 68.2766 36.9888 68.1709 36.8388 66.7968C36.6887 65.4228 35.8636 65 35.8636 65C35.8636 65 36.0886 66.1627 36.0886 66.9025Z" fill="#00341F"/>
<path d="M35.6652 66.5854C35.6652 67.202 35.5151 67.7305 35.5151 67.7305H35.9652C35.9652 67.7305 36.1152 67.6424 36.0402 66.4974C35.9652 65.3523 35.5526 65 35.5526 65C35.5526 65 35.6652 65.9689 35.6652 66.5854Z" fill="#00341F"/>
<path d="M49.1223 65.7111C49.1223 66.7654 49.835 67.6691 49.835 67.6691H47.6971C47.6971 67.6691 46.9844 67.5185 47.3408 65.5605C47.6971 63.6025 49.6568 63 49.6568 63C49.6568 63 49.1223 64.6568 49.1223 65.7111Z" fill="#00341F"/>
<path d="M48.1358 65.7111C48.1358 66.7654 48.2783 67.6691 48.2783 67.6691H47.8507C47.8507 67.6691 47.7082 67.5185 47.7795 65.5605C47.8507 63.6025 48.2427 63 48.2427 63C48.2427 63 48.1358 64.6568 48.1358 65.7111Z" fill="#00341F"/>
<path d="M46.7408 66.2196C46.7408 67.0828 46.5308 67.8227 46.5308 67.8227H47.1609C47.1609 67.8227 47.3709 67.6994 47.2659 66.0963C47.1609 64.4933 46.5833 64 46.5833 64C46.5833 64 46.7408 65.3564 46.7408 66.2196Z" fill="#00341F"/>
<path d="M4.51988 65.0064C4.51988 66.5645 5.21826 67.9 5.21826 67.9H3.12313C3.12313 67.9 2.42475 67.6774 2.77394 64.7839C3.12313 61.8903 5.04367 61 5.04367 61C5.04367 61 4.51988 63.4484 4.51988 65.0064Z" fill="#00341F"/>
<path d="M2.34878 66.5304C2.34878 67.5144 1.94971 68.3579 1.94971 68.3579H3.14692C3.14692 68.3579 3.546 68.2173 3.34646 66.3898C3.14692 64.5623 2.04948 64 2.04948 64C2.04948 64 2.34878 65.5463 2.34878 66.5304Z" fill="#00341F"/>
<path d="M0.792627 66.5304C0.792627 67.5144 0.393555 68.3579 0.393555 68.3579H1.59077C1.59077 68.3579 1.98985 68.2173 1.79031 66.3898C1.59077 64.5623 0.493323 64 0.493323 64C0.493323 64 0.792627 65.5463 0.792627 66.5304Z" fill="#00341F"/>
<path d="M1.78645 66.1086C1.78645 66.9287 1.58691 67.6316 1.58691 67.6316H2.18552C2.18552 67.6316 2.38506 67.5144 2.28529 65.9915C2.18552 64.4686 1.6368 64 1.6368 64C1.6368 64 1.78645 65.2886 1.78645 66.1086Z" fill="#00341F"/>
<path d="M0.22981 66.1086C0.22981 66.9287 0.0302734 67.6316 0.0302734 67.6316H0.628882C0.628882 67.6316 0.828419 67.5144 0.728651 65.9915C0.628882 64.4686 0.0801575 64 0.0801575 64C0.0801575 64 0.22981 65.2886 0.22981 66.1086Z" fill="#00341F"/>
</svg>
