<svg width="243" height="119" viewBox="0 0 243 119" fill="none" xmlns="http://www.w3.org/2000/svg">
<path fill-rule="evenodd" clip-rule="evenodd" d="M206.012 0.304824C206.795 0.710743 207.435 1.43377 207.55 2.04198C207.599 2.30281 207.614 3.06918 207.583 3.74513C207.521 5.12371 207.148 6.1409 206.457 6.82086C206.126 7.14557 205.993 7.19064 205.544 7.13063C204.721 7.02088 203.99 6.42201 203.475 5.43521C203.04 4.60097 203.027 4.53403 203.081 3.30708C203.153 1.64473 203.513 0.772617 204.321 0.301357C205.012 -0.101228 205.229 -0.100828 206.012 0.304824ZM213.09 6.0741C213.084 6.64257 213.034 7.46321 212.98 7.89793C212.89 8.61642 212.825 8.73777 212.27 9.23143C211.934 9.53014 211.07 10.0746 210.351 10.4413C207.225 12.0362 206.293 13.0662 206.428 14.7787L206.468 15.2998L207.555 14.8562C209.147 14.2066 211.002 13.0741 213.286 11.3582L215.306 9.84124H216.523C217.555 9.84124 217.785 9.88192 218.028 10.1074C218.386 10.4396 218.506 11.0517 218.44 12.2121C218.373 13.4002 218.067 13.8264 216.884 14.382C212.603 16.3913 207.301 19.1247 206.889 19.5353C206.363 20.0582 206.199 20.5594 206.34 21.2094C206.439 21.6668 206.896 22.6429 207.01 22.6429C207.048 22.6429 207.453 22.4101 207.912 22.1256C208.371 21.8412 210.555 20.541 212.766 19.2364C214.977 17.9319 217.118 16.6428 217.523 16.3717C219.457 15.079 220.395 14.8824 221.406 15.5584C222.085 16.012 222.707 16.8823 222.834 17.5562C222.954 18.1923 222.723 19.244 222.256 20.1895L221.878 20.9528L216.384 23.0019C208.438 25.9657 207.783 26.2279 207.163 26.695C206.472 27.2155 206.134 27.8568 206.134 28.6437C206.135 29.3844 206.363 30.2375 206.582 30.3212C206.672 30.3556 208.342 29.687 210.292 28.8353C224.658 22.5621 224.12 22.7762 225.518 22.7762C226.706 22.7762 227.614 23.631 228.067 25.1761C228.343 26.1181 228.34 27.0887 228.058 27.9185C227.8 28.6794 226.978 29.9098 226.482 30.2784C226.237 30.4602 224.097 30.9409 218.918 31.9775C208.786 34.0054 208.101 34.1701 207.188 34.7972C206.45 35.3049 206.179 36.6055 206.62 37.5292C207.177 38.6979 207.668 38.6687 212.351 37.1873C219.587 34.8987 229.543 31.8441 229.767 31.8441C230.131 31.8441 231.747 32.7126 232.356 33.2356C232.665 33.5008 233.079 34.0478 233.278 34.4512C233.599 35.105 233.631 35.2942 233.573 36.1946C233.517 37.0623 233.42 37.3765 232.886 38.4249C231.837 40.481 232.202 40.2997 228.31 40.7011C226.468 40.8911 223.543 41.1929 221.811 41.3717C220.08 41.5506 217.306 41.8491 215.647 42.0351C213.989 42.2211 211.909 42.4348 211.024 42.5098C208.566 42.7187 208.032 42.8583 207.442 43.4459C206.953 43.9323 206.937 43.9765 206.937 44.9009C206.937 46.6997 207.543 47.3694 209.081 47.2715C209.56 47.241 213.39 46.6042 217.59 45.8564C221.791 45.1087 225.741 44.4077 226.367 44.2986C226.994 44.1895 229.165 43.8031 231.192 43.4398C233.218 43.0767 235.002 42.7793 235.155 42.7792C235.765 42.7784 237.608 45.5118 237.986 46.9781C238.392 48.5553 237.898 50.4338 236.743 51.7061C235.672 52.8862 234.51 53.1571 231.477 52.9332C226.076 52.5346 223.871 52.4163 215.647 52.0839C209.578 51.8386 208.447 51.8518 207.911 52.1743C207.32 52.5296 207.023 53.2037 207.027 54.1803C207.03 55.1752 207.33 55.8978 207.877 56.2284C208.272 56.4679 208.54 56.4785 212.608 56.4172C214.98 56.3815 220.961 56.4137 225.898 56.4888C233.435 56.6036 235.059 56.5956 236.016 56.4391C238.825 55.979 239.749 56.3363 240.537 58.187C241.468 60.373 241.724 63.1762 241.135 64.7204C240.808 65.5789 240.05 66.6668 239.5 67.0702C239.18 67.3042 239.072 67.3062 237.155 67.1154C232.627 66.6649 231.279 66.4141 221.61 64.2254C220.652 64.0086 218.24 63.5024 216.25 63.1006C213.961 62.6383 212.19 62.2033 211.426 61.9155C209.48 61.1819 209.053 61.1078 208.456 61.4004C207.685 61.7782 207.272 62.6851 207.272 64.0008C207.272 64.8343 207.325 65.0988 207.553 65.4048C207.99 65.992 208.805 66.4912 209.684 66.7103C210.393 66.8867 217.87 68.0074 234.497 70.4293C240.068 71.2406 239.878 71.1803 241.301 72.5959C242.566 73.8546 243.325 76.1608 242.864 77.3436C242.397 78.5415 242.2 78.9378 241.74 79.6051C241.294 80.2515 240.689 80.8509 239.779 81.5462C239.434 81.8099 239.023 81.751 236.417 81.0632C232.986 80.1578 229.931 79.1194 224.009 76.8457C218.305 74.6554 216.897 74.1316 213.991 73.1197C212.875 72.7314 211.395 72.1918 210.701 71.9207C209.242 71.3503 208.755 71.3625 208.232 71.9819C207.36 73.0132 207.243 74.521 207.966 75.4215C208.643 76.2637 209.52 76.7431 211.542 77.3757C213.804 78.0833 228.919 82.5601 236.083 84.6443C239.551 85.6532 241.242 86.2054 241.387 86.376C242.031 87.1351 242.398 91.6666 241.891 92.588C241.061 94.0918 239.379 94.6852 235.882 94.7068L233.939 94.7188L229.583 92.3335C227.188 91.0218 224.927 89.7844 224.558 89.584C224.19 89.3836 222.622 88.5304 221.074 87.6881C219.527 86.8459 216.934 85.4481 215.312 84.5821C213.691 83.7162 211.96 82.7502 211.466 82.4355C210.158 81.603 209.82 81.4504 209.283 81.4504C208.073 81.4504 207.33 83.4059 207.991 84.8508C208.385 85.7099 209.213 86.3266 211.318 87.3253C212.391 87.8346 213.286 88.2513 213.307 88.2513C213.328 88.2513 214.511 88.7967 215.937 89.4634C218.36 90.5968 223.851 93.052 229.114 95.3559C232.591 96.8774 233.43 97.2906 233.52 97.5254C233.645 97.849 233.621 98.3716 233.467 98.6569C233.175 99.1999 230.588 99.5226 226.635 99.5089C223.792 99.499 223.544 99.4778 222.28 99.1364C220.508 98.6574 218.758 97.7892 217.523 96.7756C216.651 96.0589 215.689 95.3283 214.098 94.1746C212.991 93.3711 209.563 91.4517 209.235 91.4517C209 91.4517 208.545 92.766 208.545 93.4477C208.545 94.7282 208.963 95.3456 210.936 96.9857C211.642 97.5725 212.448 98.3526 212.727 98.7193L213.233 99.386L212.156 99.4778C210.365 99.6302 209.781 99.9612 209.256 101.12C209.026 101.627 208.962 111.225 208.979 113.408L208.962 117.827H208.416C208.024 117.827 207.8 117.826 207.086 117.826C206.211 117.826 206.177 117.826 203.726 117.826C202.262 117.826 201.836 117.826 201.592 117.826C201.249 117.826 201.503 117.827 200.297 117.827C200.297 117.427 200.298 114.807 200.298 113.408C200.298 112.009 200.298 118.55 200.298 116.655C200.298 114.759 200.298 114.76 200.298 112.254C200.298 102.758 200.133 115.293 200.298 108.787C200.298 103.425 200.298 103.161 200.298 102.27C200.895 100.589 200.181 99.845 197.734 99.5983C196.507 99.4744 196.175 99.29 196.017 98.6439C195.937 98.3199 196.016 98.2604 197.516 97.5113C199.992 96.2744 200.928 95.1916 200.636 93.9023C200.502 93.311 200.099 92.7363 199.774 92.6728C199.25 92.5704 198.613 92.832 197.348 93.668C196.615 94.152 195.655 94.7296 195.212 94.9516C194.77 95.1735 194.077 95.6136 193.671 95.9293C192.819 96.5933 189.91 98.0592 188.445 98.563C187.112 99.0216 185.534 99.403 184.248 99.5773C182.074 99.8721 178.071 99.6722 176.351 99.1827C176.073 99.1039 175.751 98.8941 175.634 98.7165C175.438 98.4188 175.441 98.3544 175.669 97.8928C175.956 97.3115 175.732 97.4338 180.405 95.3071C182.358 94.4183 184.71 93.3434 185.631 92.9184C186.553 92.4934 188.392 91.6517 189.718 91.0479C199.733 86.4901 200.413 86.1337 201.141 85.0578C201.856 84.0015 201.137 81.9893 199.899 81.5827C199.307 81.3883 198.669 81.6258 197.49 82.4801C196.974 82.854 195.286 83.8184 193.738 84.6232C192.191 85.4281 187.428 87.9303 183.154 90.1837C178.881 92.437 175.088 94.397 174.725 94.5393C172.69 95.3376 170.62 95.3682 168.859 94.626C168.161 94.3315 168.016 94.0812 167.333 91.9851C167.036 91.0738 166.961 90.5902 166.953 89.5181C166.94 88.0067 167.055 87.6924 167.983 86.69C168.707 85.909 169.636 85.46 171.762 84.8634C179.205 82.7756 198.881 76.9308 199.634 76.5839C201.153 75.8848 201.848 74.9968 201.842 73.7626C201.839 72.9721 201.473 72.1305 200.958 71.7256C200.423 71.3052 199.675 71.3994 198.16 72.0776C197.497 72.3747 196.442 72.7782 195.815 72.9743C193.894 73.5758 191.251 74.5446 186.703 76.3149C178.464 79.5223 176.732 80.1114 172.001 81.3148C170.122 81.7927 170.183 81.8048 169.032 80.7296C167.276 79.0901 166.523 77.5228 166.633 75.7337C166.717 74.3684 167.092 73.611 168.249 72.4695C169.581 71.1551 169.951 71.0223 173.839 70.465C190.442 68.0851 199.878 66.6577 200.477 66.4356C201.22 66.1601 201.835 65.64 202.065 65.0922C202.283 64.5715 202.302 63.3153 202.102 62.5976C201.783 61.4557 201.033 61.2012 199.493 61.7122C199.055 61.8575 194.506 62.8134 189.383 63.8362C184.261 64.859 178.089 66.0956 175.667 66.5842L171.264 67.4728L170.54 66.977C168.642 65.676 167.808 63.6704 168.202 61.3544C168.357 60.4384 169.144 56.7411 169.194 56.6914C169.209 56.6767 176.335 56.6456 185.031 56.6226L200.84 56.5806L201.443 56.2265C202.214 55.7742 202.546 55.4128 202.974 54.561C203.39 53.7351 203.408 53.328 203.05 52.8752C202.472 52.1435 201.979 52.0767 197.733 52.154C181.682 52.4467 175.672 52.5048 175.079 52.3734C174.098 52.1557 173.064 51.5954 172.248 50.8388L171.505 50.1507L171.672 48.0983C171.875 45.6086 172.107 44.7042 172.731 43.9795C173.645 42.9169 174.938 42.537 176.621 42.8363C179.119 43.2806 187.89 44.8547 192.934 45.7642C200.81 47.1842 201.26 47.2475 201.906 47.0269C202.565 46.8013 202.909 46.2507 203.012 45.2524C203.067 44.7273 203.023 44.3443 202.862 43.9241C202.459 42.8727 202.049 42.7379 197.758 42.2435C195.916 42.0312 193.896 41.7953 193.269 41.7193C192.643 41.6433 190.864 41.4301 189.316 41.2454C187.769 41.0607 186.02 40.8496 185.43 40.7763C184.841 40.7029 183.062 40.4914 181.477 40.3063C179.893 40.1214 178.497 39.9396 178.375 39.9026C177.862 39.7467 177.032 37.2585 176.951 35.6351C176.9 34.6003 176.931 34.3472 177.169 33.8849C177.662 32.9223 178.807 32.2025 180.411 31.8457L181.154 31.6806L188.384 34.0406C192.361 35.3386 196.881 36.8144 198.428 37.3201C201.901 38.4546 201.955 38.4657 202.574 38.1734C203.752 37.6167 203.959 35.6345 202.924 34.8135C202.049 34.1202 201.11 33.8687 189.584 31.2395C185.404 30.2857 184.365 29.9159 183.14 28.945L182.458 28.4042L182.376 26.957C182.233 24.4095 182.575 22.9599 183.426 22.5063C183.872 22.269 185.167 22.2992 186.079 22.5682C186.459 22.6804 187.826 23.3466 189.115 24.0488C192.52 25.9022 195.97 27.557 198.495 28.548C201.091 29.5666 203.48 30.3133 203.778 30.1995C204.096 30.0781 204.062 28.4746 203.727 27.7769C203.158 26.5911 202.499 26.1759 199.708 25.2432C194.624 23.5443 189.314 21.5502 189.02 21.2296C188.857 21.0516 188.471 20.4827 188.162 19.9655C187.251 18.439 187.265 17.2383 188.208 16.1723C188.843 15.4545 189.397 15.1753 190.187 15.1753C190.862 15.1753 191.391 15.3905 192.41 16.079C192.846 16.3734 194.499 17.3638 196.083 18.2798C197.668 19.1958 199.989 20.5519 201.242 21.2935C203.784 22.7981 203.715 22.7905 203.974 21.5901C204.119 20.9171 204.001 20.1186 203.701 19.7405C203.311 19.249 202.872 18.9889 199.701 17.3745C195.602 15.2867 193.94 14.2022 193.207 13.1361C192.754 12.4766 192.676 12.2622 192.679 11.6692C192.68 11.2861 192.787 10.7568 192.917 10.4887C193.228 9.84645 194.043 8.90779 194.29 8.90779C194.398 8.90779 195.512 9.7167 196.765 10.7054C200.359 13.5411 201.48 14.2667 203.351 14.967L204.253 15.3047L204.339 14.9639C204.473 14.4322 204.285 13.4313 203.962 12.9631C203.656 12.5177 202.807 11.9224 200.919 10.8282C198.79 9.59481 197.732 8.19463 197.589 6.42214L197.518 5.53523L197.906 5.62991C198.12 5.68205 199.164 6.05676 200.227 6.46255C203.352 7.65577 204.055 7.85072 205.53 7.93313C207.732 8.05622 209.227 7.53882 211.359 5.91488C211.986 5.43788 212.634 5.0461 212.8 5.0441C213.088 5.04076 213.101 5.0869 213.09 6.0741Z" fill="#00341F"/>
<path fill-rule="evenodd" clip-rule="evenodd" d="M135.791 44.1914C136.283 44.4464 136.685 44.9005 136.757 45.2825C136.788 45.4463 136.797 45.9276 136.778 46.3522C136.739 47.218 136.505 47.8569 136.071 48.2839C135.863 48.4878 135.78 48.5162 135.497 48.4785C134.98 48.4095 134.522 48.0334 134.198 47.4136C133.924 46.8897 133.917 46.8476 133.95 46.077C133.996 45.033 134.222 44.4853 134.73 44.1893C135.163 43.9364 135.3 43.9367 135.791 44.1914ZM140.237 47.8149C140.233 48.1719 140.202 48.6873 140.168 48.9604C140.111 49.4116 140.071 49.4878 139.722 49.7979C139.51 49.9855 138.968 50.3275 138.517 50.5578C136.553 51.5595 135.968 52.2064 136.052 53.2819L136.078 53.6092L136.761 53.3306C137.76 52.9226 138.926 52.2113 140.36 51.1337L141.628 50.1809H142.393C143.041 50.1809 143.185 50.2064 143.338 50.3481C143.563 50.5567 143.638 50.9411 143.597 51.6699C143.555 52.4162 143.363 52.6838 142.619 53.0327C139.931 54.2947 136.601 56.0115 136.342 56.2693C136.012 56.5977 135.909 56.9126 135.997 57.3208C136.06 57.608 136.346 58.2211 136.418 58.2211C136.442 58.2211 136.697 58.0749 136.985 57.8962C137.273 57.7176 138.645 56.901 140.034 56.0817C141.422 55.2623 142.767 54.4527 143.021 54.2824C144.236 53.4705 144.825 53.3471 145.46 53.7716C145.886 54.0565 146.277 54.6031 146.357 55.0264C146.432 55.4259 146.287 56.0864 145.993 56.6802L145.756 57.1596L142.306 58.4466C137.315 60.308 136.904 60.4727 136.514 60.7661C136.08 61.093 135.868 61.4957 135.868 61.9899C135.869 62.4552 136.012 62.991 136.149 63.0436C136.206 63.0652 137.255 62.6452 138.479 62.1103C147.502 58.1703 147.164 58.3049 148.042 58.3049C148.789 58.3049 149.359 58.8417 149.643 59.8121C149.817 60.4038 149.815 61.0133 149.638 61.5345C149.475 62.0124 148.959 62.7852 148.648 63.0167C148.494 63.1308 147.15 63.4327 143.897 64.0838C137.533 65.3575 137.103 65.4609 136.53 65.8548C136.066 66.1736 135.896 66.9905 136.173 67.5706C136.523 68.3046 136.832 68.2863 139.773 67.3559C144.317 65.9185 150.57 64 150.711 64C150.94 64 151.955 64.5455 152.337 64.874C152.531 65.0405 152.791 65.3841 152.916 65.6374C153.118 66.0481 153.138 66.1669 153.101 66.7324C153.066 67.2774 153.005 67.4747 152.67 68.1332C152.011 69.4245 152.24 69.3106 149.796 69.5627C148.639 69.6821 146.802 69.8716 145.714 69.9839C144.627 70.0963 142.884 70.2838 141.843 70.4006C140.801 70.5174 139.495 70.6516 138.939 70.6987C137.395 70.8299 137.06 70.9176 136.689 71.2867C136.382 71.5921 136.373 71.6199 136.373 72.2005C136.373 73.3302 136.753 73.7508 137.719 73.6894C138.02 73.6702 140.425 73.2703 143.063 72.8006C145.702 72.331 148.182 71.8907 148.576 71.8222C148.969 71.7537 150.333 71.511 151.606 71.2828C152.879 71.0548 153.999 70.868 154.095 70.8679C154.478 70.8674 155.636 72.5842 155.873 73.5051C156.128 74.4957 155.818 75.6755 155.092 76.4745C154.419 77.2158 153.69 77.3859 151.785 77.2452C148.393 76.9949 147.008 76.9206 141.843 76.7118C138.031 76.5578 137.321 76.5661 136.984 76.7686C136.613 76.9918 136.426 77.4152 136.429 78.0285C136.431 78.6534 136.619 79.1072 136.962 79.3148C137.211 79.4653 137.379 79.4719 139.934 79.4334C141.424 79.411 145.18 79.4312 148.281 79.4784C153.015 79.5505 154.035 79.5455 154.635 79.4472C156.4 79.1582 156.98 79.3826 157.475 80.545C158.06 81.9179 158.221 83.6785 157.851 84.6483C157.645 85.1875 157.17 85.8708 156.824 86.1241C156.623 86.2711 156.555 86.2724 155.351 86.1525C152.507 85.8696 151.66 85.7121 145.588 84.3374C144.986 84.2013 143.471 83.8833 142.222 83.631C140.783 83.3406 139.671 83.0674 139.192 82.8867C137.969 82.426 137.701 82.3794 137.326 82.5632C136.842 82.8004 136.583 83.37 136.583 84.1964C136.583 84.7199 136.616 84.886 136.759 85.0782C137.034 85.447 137.546 85.7605 138.098 85.8981C138.543 86.0089 143.239 86.7127 153.682 88.2338C157.18 88.7434 157.061 88.7055 157.955 89.5947C158.749 90.3852 159.226 91.8336 158.937 92.5765C158.644 93.3288 158.52 93.5777 158.231 93.9968C157.951 94.4028 157.57 94.7792 156.999 95.2159C156.782 95.3816 156.524 95.3446 154.887 94.9126C152.732 94.344 150.814 93.6918 147.095 92.2637C143.512 90.8881 142.628 90.5591 140.802 89.9236C140.102 89.6797 139.172 89.3408 138.736 89.1705C137.82 88.8123 137.514 88.8199 137.185 89.209C136.638 89.8567 136.565 90.8037 137.019 91.3693C137.444 91.8983 137.994 92.1993 139.265 92.5967C140.685 93.041 150.178 95.8528 154.677 97.1617C156.856 97.7954 157.918 98.1422 158.009 98.2493C158.413 98.7261 158.644 101.572 158.325 102.151C157.805 103.095 156.748 103.468 154.551 103.482L153.331 103.489L150.596 101.991C149.091 101.167 147.671 100.39 147.44 100.264C147.208 100.138 146.224 99.6024 145.251 99.0735C144.279 98.5445 142.651 97.6666 141.633 97.1227C140.614 96.5788 139.527 95.9721 139.216 95.7745C138.395 95.2516 138.183 95.1558 137.846 95.1558C137.086 95.1558 136.619 96.3839 137.035 97.2915C137.281 97.831 137.802 98.2184 139.124 98.8456C139.797 99.1654 140.36 99.4272 140.373 99.4272C140.386 99.4272 141.129 99.7697 142.025 100.188C143.547 100.9 146.995 102.442 150.301 103.889C152.484 104.845 153.011 105.104 153.068 105.252C153.147 105.455 153.131 105.783 153.035 105.962C152.851 106.304 151.226 106.506 148.744 106.498C146.958 106.491 146.803 106.478 146.009 106.264C144.895 105.963 143.797 105.418 143.021 104.781C142.473 104.331 141.869 103.872 140.87 103.147C140.175 102.643 138.021 101.437 137.816 101.437C137.668 101.437 137.382 102.263 137.382 102.691C137.382 103.495 137.645 103.883 138.884 104.913C139.328 105.281 139.834 105.771 140.009 106.002L140.327 106.42L139.65 106.478C138.526 106.574 138.158 106.782 137.829 107.509C137.685 107.828 137.644 113.856 137.655 115.227L137.644 118.002H137.301C137.055 118.002 136.914 118.002 136.466 118.002C135.917 118.002 135.895 118.002 134.356 118.002C133.436 118.002 133.168 118.002 133.015 118.002C132.8 118.002 132.959 118.002 132.202 118.002C132.202 117.751 132.158 114.007 132.158 113.129C132.158 112.25 132.202 118.457 132.202 117.266C132.202 116.076 132.202 116.076 132.202 114.503C132.202 108.538 132.099 116.411 132.202 112.325C132.202 108.957 132.203 108.791 132.203 108.232C132.578 107.176 132.129 106.709 130.592 106.554C129.821 106.476 129.613 106.36 129.514 105.954C129.464 105.751 129.513 105.714 130.455 105.243C132.01 104.466 132.598 103.786 132.415 102.976C132.33 102.605 132.078 102.244 131.874 102.204C131.545 102.14 131.144 102.304 130.35 102.829C129.89 103.133 129.286 103.496 129.009 103.635C128.731 103.775 128.295 104.051 128.041 104.249C127.505 104.666 125.678 105.587 124.758 105.904C123.921 106.192 122.93 106.431 122.122 106.541C120.757 106.726 118.243 106.6 117.162 106.293C116.988 106.243 116.786 106.111 116.712 106C116.589 105.813 116.591 105.773 116.734 105.483C116.914 105.118 116.774 105.194 119.709 103.859C120.935 103.3 122.412 102.625 122.991 102.358C123.57 102.091 124.725 101.563 125.558 101.184C131.848 98.321 132.275 98.0972 132.732 97.4215C133.181 96.7581 132.73 95.4942 131.952 95.2389C131.58 95.1168 131.18 95.2659 130.439 95.8025C130.115 96.0374 129.055 96.6431 128.083 97.1485C127.111 97.654 124.119 99.2256 121.435 100.641C118.751 102.056 116.369 103.287 116.141 103.376C114.863 103.878 113.563 103.897 112.457 103.431C112.019 103.246 111.928 103.089 111.499 101.772C111.312 101.2 111.265 100.896 111.26 100.223C111.252 99.2736 111.324 99.0761 111.907 98.4466C112.361 97.956 112.945 97.6741 114.28 97.2993C118.955 95.9881 131.313 92.3172 131.786 92.0993C132.74 91.6602 133.176 91.1025 133.173 90.3274C133.17 89.8309 132.941 89.3024 132.617 89.048C132.281 88.784 131.811 88.8431 130.86 89.2691C130.443 89.4557 129.781 89.7091 129.387 89.8323C128.18 90.2101 126.521 90.8185 123.664 91.9304C118.489 93.9448 117.401 94.3148 114.43 95.0706C113.25 95.3708 113.289 95.3784 112.565 94.7031C111.462 93.6734 110.99 92.689 111.059 91.5653C111.112 90.7079 111.347 90.2322 112.074 89.5153C112.91 88.6897 113.143 88.6063 115.585 88.2563C126.012 86.7616 131.939 85.8651 132.315 85.7256C132.782 85.5525 133.168 85.2259 133.312 84.8818C133.449 84.5548 133.461 83.7658 133.335 83.3151C133.135 82.5979 132.664 82.438 131.697 82.759C131.422 82.8503 128.565 83.4506 125.348 84.093C122.13 84.7354 118.254 85.5121 116.733 85.8189L113.967 86.377L113.513 86.0656C112.321 85.2485 111.797 83.9889 112.044 82.5343C112.142 81.959 112.636 79.6369 112.667 79.6056C112.677 79.5964 117.153 79.5769 122.614 79.5624L132.543 79.536L132.922 79.3137C133.406 79.0296 133.614 78.8026 133.883 78.2676C134.144 77.7489 134.156 77.4932 133.931 77.2088C133.568 76.7493 133.258 76.7073 130.592 76.7559C120.511 76.9397 116.736 76.9762 116.364 76.8936C115.748 76.757 115.098 76.405 114.585 75.9298L114.119 75.4977L114.224 74.2086C114.351 72.645 114.497 72.077 114.889 71.6218C115.463 70.9544 116.275 70.7158 117.332 70.9038C118.901 71.1828 124.41 72.1714 127.578 72.7427C132.524 73.6345 132.807 73.6743 133.212 73.5358C133.627 73.3941 133.842 73.0482 133.907 72.4213C133.941 72.0915 133.914 71.8509 133.813 71.587C133.56 70.9266 133.302 70.842 130.608 70.5315C129.45 70.3982 128.182 70.25 127.788 70.2023C127.395 70.1545 126.277 70.0206 125.305 69.9046C124.333 69.7886 123.235 69.656 122.865 69.61C122.494 69.5639 121.377 69.4311 120.382 69.3148C119.387 69.1987 118.51 69.0845 118.433 69.0612C118.111 68.9633 117.59 67.4006 117.539 66.381C117.507 65.7311 117.527 65.5721 117.676 65.2817C117.986 64.6772 118.705 64.2251 119.712 64.001L120.179 63.8973L124.72 65.3796C127.218 66.1948 130.056 67.1217 131.028 67.4393C133.209 68.1518 133.243 68.1588 133.632 67.9752C134.372 67.6255 134.502 66.3807 133.852 65.865C133.302 65.4296 132.713 65.2716 125.474 63.6203C122.848 63.0213 122.196 62.789 121.426 62.1792L120.998 61.8395L120.947 60.9307C120.856 59.3307 121.071 58.4202 121.606 58.1353C121.886 57.9863 122.699 58.0053 123.272 58.1742C123.511 58.2446 124.369 58.6631 125.179 59.1041C127.317 60.2682 129.484 61.3075 131.07 61.9299C132.701 62.5696 134.201 63.0386 134.388 62.9671C134.588 62.8909 134.567 61.8838 134.356 61.4456C133.999 60.7008 133.585 60.44 131.832 59.8543C128.639 58.7873 125.304 57.5348 125.119 57.3335C125.017 57.2217 124.774 56.8644 124.58 56.5395C124.008 55.5808 124.017 54.8267 124.609 54.1572C125.008 53.7064 125.356 53.531 125.852 53.531C126.276 53.531 126.608 53.6662 127.248 54.0986C127.522 54.2835 128.56 54.9055 129.556 55.4808C130.551 56.0561 132.009 56.9079 132.796 57.3736C134.392 58.3186 134.349 58.3138 134.511 57.5599C134.602 57.1372 134.528 56.6357 134.34 56.3982C134.095 56.0895 133.819 55.9262 131.828 54.9122C129.253 53.601 128.21 52.9198 127.749 52.2502C127.464 51.8361 127.416 51.7014 127.417 51.329C127.418 51.0884 127.485 50.7559 127.567 50.5875C127.762 50.1842 128.274 49.5946 128.429 49.5946C128.497 49.5946 129.196 50.1027 129.983 50.7236C132.241 52.5046 132.945 52.9604 134.12 53.4002L134.687 53.6123L134.741 53.3982C134.825 53.0643 134.707 52.4357 134.504 52.1416C134.311 51.8619 133.778 51.488 132.592 50.8007C131.256 50.0261 130.591 49.1467 130.501 48.0335L130.456 47.4765L130.7 47.5359C130.834 47.5687 131.49 47.804 132.158 48.0589C134.12 48.8083 134.562 48.9307 135.489 48.9825C136.872 49.0598 137.81 48.7348 139.15 47.7149C139.543 47.4153 139.95 47.1693 140.055 47.168C140.235 47.1659 140.244 47.1949 140.237 47.8149Z" fill="#00341F"/>
<path fill-rule="evenodd" clip-rule="evenodd" d="M71.5601 27.2349C72.2013 27.5478 72.7253 28.105 72.8192 28.5738C72.8594 28.7748 72.8719 29.3655 72.8468 29.8865C72.7957 30.949 72.4907 31.733 71.9243 32.257C71.6538 32.5073 71.545 32.542 71.1767 32.4958C70.5031 32.4112 69.905 31.9496 69.4832 31.1891C69.1265 30.5461 69.1164 30.4945 69.1603 29.5489C69.2196 28.2676 69.5145 27.5955 70.1761 27.2323C70.7413 26.922 70.9195 26.9223 71.5601 27.2349ZM77.3558 31.6815C77.3506 32.1196 77.31 32.7521 77.2655 33.0872C77.192 33.6409 77.139 33.7344 76.6841 34.1149C76.4088 34.3451 75.702 34.7648 75.1134 35.0474C72.5536 36.2766 71.7907 37.0705 71.9005 38.3903L71.934 38.792L72.8239 38.45C74.127 37.9494 75.6463 37.0765 77.5163 35.7541L79.1697 34.5849H80.1668C81.0115 34.5849 81.1996 34.6163 81.3988 34.7901C81.6922 35.0461 81.7904 35.5178 81.7365 36.4122C81.6812 37.3279 81.4308 37.6564 80.4618 38.0846C76.9566 39.6332 72.616 41.7399 72.2781 42.0564C71.8479 42.4594 71.7134 42.8457 71.829 43.3466C71.9101 43.6992 72.2838 44.4515 72.3778 44.4515C72.4082 44.4515 72.7404 44.272 73.1162 44.0528C73.4918 43.8336 75.2804 42.8315 77.0907 41.8261C78.901 40.8206 80.6538 39.827 80.9857 39.6181C82.5688 38.6218 83.3368 38.4703 84.165 38.9913C84.7208 39.3409 85.2301 40.0116 85.3341 40.5311C85.4322 41.0213 85.2431 41.8319 84.8605 42.5606L84.5515 43.1489L80.0531 44.7282C73.5463 47.0125 73.0104 47.2145 72.5027 47.5746C71.937 47.9757 71.6599 48.47 71.6604 49.0764C71.661 49.6474 71.8474 50.3048 72.027 50.3694C72.1008 50.3959 73.4678 49.8806 75.0648 49.2241C86.8272 44.3892 86.3867 44.5543 87.5318 44.5543C88.5046 44.5543 89.2477 45.2131 89.6185 46.4039C89.8447 47.13 89.8421 47.878 89.6114 48.5175C89.4 49.104 88.7271 50.0523 88.3209 50.3364C88.1205 50.4765 86.3681 50.847 82.1273 51.646C73.8312 53.2089 73.2704 53.3358 72.5235 53.8192C71.9189 54.2105 71.6973 55.2128 72.0579 55.9248C72.5143 56.8255 72.9164 56.803 76.7509 55.6613C82.6751 53.8974 90.8271 51.5431 91.0102 51.5431C91.3086 51.5431 92.6319 52.2125 93.1303 52.6156C93.3831 52.82 93.7227 53.2416 93.8851 53.5525C94.1483 54.0564 94.1746 54.2022 94.1271 54.8962C94.0812 55.5649 94.0019 55.8071 93.5642 56.6151C92.7057 58.1998 93.004 58.0601 89.818 58.3694C88.3094 58.5159 85.9148 58.7485 84.4967 58.8863C83.0786 59.0242 80.8074 59.2542 79.4496 59.3976C78.0919 59.541 76.3885 59.7056 75.6644 59.7635C73.6515 59.9244 73.2143 60.032 72.7307 60.485C72.3305 60.8598 72.318 60.8939 72.318 61.6064C72.318 62.9927 72.8139 63.5089 74.0735 63.4334C74.4657 63.4099 77.6009 62.9191 81.0406 62.3428C84.4802 61.7665 87.7141 61.2262 88.2271 61.1421C88.74 61.0581 90.5174 60.7602 92.1769 60.4803C93.8364 60.2004 95.2967 59.9712 95.4218 59.9711C95.9219 59.9705 97.431 62.0772 97.7401 63.2073C98.0725 64.4229 97.6683 65.8707 96.7225 66.8513C95.8452 67.7609 94.8938 67.9696 92.4106 67.797C87.9888 67.4898 86.1833 67.3987 79.4496 67.1425C74.4804 66.9534 73.554 66.9636 73.1152 67.2121C72.6314 67.486 72.3882 68.0056 72.3911 68.7582C72.3941 69.525 72.6397 70.082 73.087 70.3368C73.411 70.5213 73.6305 70.5296 76.9612 70.4823C78.9031 70.4547 83.8 70.4796 87.8431 70.5375C94.0142 70.626 95.3438 70.6198 96.1268 70.4991C98.4271 70.1446 99.1837 70.4199 99.829 71.8463C100.591 73.5312 100.801 75.6916 100.319 76.8818C100.051 77.5435 99.4305 78.3819 98.9794 78.6928C98.7178 78.8732 98.6293 78.8747 97.0594 78.7277C93.3527 78.3805 92.2482 78.1872 84.3321 76.5003C83.5476 76.3332 81.5727 75.943 79.9434 75.6334C78.0684 75.277 76.6185 74.9418 75.9935 74.72C74.3996 74.1546 74.0499 74.0975 73.5613 74.323C72.9302 74.6141 72.5923 75.3131 72.5923 76.3272C72.5923 76.9696 72.6356 77.1735 72.822 77.4092C73.18 77.8619 73.8472 78.2466 74.5672 78.4154C75.1472 78.5514 81.2692 79.4151 94.8836 81.2818C99.4445 81.9071 99.2895 81.8606 100.454 82.9517C101.49 83.9218 102.112 85.6992 101.734 86.6108C101.352 87.5341 101.191 87.8395 100.814 88.3538C100.449 88.852 99.9531 89.314 99.2083 89.8499C98.9258 90.0531 98.5895 90.0077 96.4554 89.4776C93.6461 88.7798 91.1447 87.9795 86.2962 86.2271C81.6256 84.539 80.4725 84.1353 78.093 83.3554C77.1797 83.0561 75.9676 82.6402 75.3996 82.4312C74.2051 81.9916 73.8064 82.001 73.3776 82.4784C72.6636 83.2733 72.5685 84.4354 73.1605 85.1294C73.7142 85.7786 74.4323 86.148 76.0882 86.6356C77.9399 87.1809 90.3161 90.6314 96.1816 92.2377C99.0216 93.0153 100.406 93.4409 100.525 93.5723C101.052 94.1574 101.353 97.65 100.937 98.3601C100.258 99.5191 98.8806 99.9764 96.0171 99.9931L94.4261 100.002L90.8603 98.164C88.8991 97.153 87.0476 96.1993 86.7459 96.0448C86.4442 95.8904 85.1605 95.2328 83.8932 94.5836C82.626 93.9345 80.5029 92.8572 79.1753 92.1898C77.8478 91.5223 76.4304 90.7778 76.0256 90.5353C74.9549 89.8936 74.6783 89.7761 74.2385 89.7761C73.2476 89.7761 72.6396 91.2832 73.181 92.3969C73.5029 93.059 74.1815 93.5343 75.9044 94.304C76.7829 94.6965 77.5159 95.0177 77.5331 95.0177C77.5504 95.0177 78.5194 95.438 79.6865 95.9519C81.6708 96.8254 86.1665 98.7177 90.4763 100.493C93.3227 101.666 94.0097 101.985 94.0838 102.165C94.186 102.415 94.1659 102.818 94.0403 103.038C93.8011 103.456 91.6825 103.705 88.4465 103.694C86.1183 103.687 85.9154 103.67 84.8807 103.407C83.4291 103.038 81.9965 102.369 80.9857 101.588C80.2711 101.035 79.4833 100.472 78.1812 99.5829C77.2747 98.9637 74.4677 97.4843 74.1994 97.4843C74.0065 97.4843 73.6346 98.4973 73.6346 99.0227C73.6346 100.01 73.9762 100.486 75.5923 101.75C76.1704 102.202 76.8301 102.803 77.0582 103.086L77.4731 103.6L76.591 103.67C75.1248 103.788 74.6461 104.043 74.2164 104.936C74.0284 105.326 73.9757 112.724 73.9897 114.407L73.9757 117.812H73.5288C73.2077 117.812 73.0241 117.812 72.4397 117.812C71.7235 117.812 71.6954 117.812 69.6888 117.812C68.4898 117.812 68.1409 117.812 67.9412 117.812C67.6603 117.812 67.8682 117.812 66.8808 117.812C66.8808 117.504 66.8813 111.924 66.8813 110.845C66.8813 109.767 66.8813 118.37 66.8813 116.909C66.8813 115.448 66.8813 115.448 66.8813 113.518C66.8813 106.198 66.7469 115.859 66.8813 110.845C66.8813 106.712 66.8818 106.509 66.8818 105.822C67.3707 104.527 66.7858 103.953 64.7822 103.763C63.7773 103.668 63.5056 103.526 63.3761 103.028C63.3111 102.778 63.3755 102.732 64.6035 102.155C66.631 101.201 67.3974 100.367 67.1581 99.373C67.0484 98.9173 66.7187 98.4744 66.4529 98.4254C66.0239 98.3465 65.5018 98.5482 64.4661 99.1925C63.8665 99.5655 63.0797 100.011 62.7176 100.182C62.3556 100.353 61.7878 100.692 61.4559 100.935C60.758 101.447 58.3763 102.577 57.1769 102.965C56.0851 103.319 54.7929 103.613 53.7403 103.747C51.9598 103.974 48.6826 103.82 47.2738 103.443C47.0469 103.382 46.783 103.22 46.6872 103.083C46.5268 102.854 46.529 102.804 46.7157 102.449C46.9508 102.001 46.7673 102.095 50.5938 100.456C52.1929 99.7708 54.1185 98.9423 54.8728 98.6148C55.6271 98.2872 57.133 97.6385 58.2192 97.1731C66.4191 93.6603 66.9755 93.3856 67.572 92.5564C68.1577 91.7423 67.5688 90.1914 66.555 89.878C66.0702 89.7282 65.5481 89.9112 64.5828 90.5697C64.1604 90.8579 62.778 91.6012 61.5107 92.2214C60.2435 92.8418 56.3438 94.7703 52.8447 96.507C49.3455 98.2437 46.2397 99.7544 45.9429 99.864C44.2763 100.479 42.5813 100.503 41.1401 99.9308C40.5683 99.7039 40.4498 99.511 39.8905 97.8954C39.6472 97.193 39.5861 96.8204 39.579 95.9941C39.5688 94.8292 39.6625 94.5869 40.4227 93.8144C41.0152 93.2124 41.7757 92.8663 43.517 92.4065C49.6108 90.7975 65.7215 86.2926 66.3383 86.0253C67.5818 85.4865 68.1509 84.8021 68.1463 83.8509C68.1433 83.2416 67.8441 82.593 67.4219 82.2809C66.9838 81.9569 66.3714 82.0295 65.1314 82.5522C64.5883 82.7812 63.7243 83.0922 63.2114 83.2433C61.6379 83.7069 59.4744 84.4536 55.7505 85.818C49.0041 88.29 47.5858 88.7441 43.7126 89.6715C42.174 90.0399 42.2241 90.0492 41.2812 89.2205C39.8433 87.9569 39.2272 86.749 39.3174 85.37C39.3863 84.3178 39.6933 83.734 40.6403 82.8542C41.7308 81.8412 42.0341 81.7388 45.2176 81.3093C58.8117 79.475 66.5378 78.3749 67.0284 78.2037C67.6366 77.9914 68.1399 77.5905 68.3282 77.1683C68.5071 76.767 68.5225 75.7988 68.3585 75.2457C68.0976 74.3656 67.4835 74.1694 66.2225 74.5632C65.8638 74.6753 62.1389 75.412 57.9449 76.2003C53.7509 76.9886 48.6971 77.9417 46.7142 78.3183L43.1088 79.0031L42.5165 78.621C40.9623 77.6183 40.2792 76.0725 40.6016 74.2875C40.7289 73.5815 41.3734 70.7319 41.4142 70.6936C41.4264 70.6823 47.2614 70.6583 54.381 70.6406L67.3258 70.6082L67.8195 70.3353C68.4503 69.9867 68.7223 69.7082 69.0731 69.0516C69.4131 68.4151 69.4281 68.1014 69.1349 67.7523C68.6614 67.1884 68.2577 67.1369 64.7819 67.1965C51.6394 67.4221 46.7182 67.4669 46.2327 67.3656C45.4297 67.1978 44.5832 66.766 43.9144 66.1828L43.3062 65.6525L43.4431 64.0707C43.6093 62.1518 43.7996 61.4548 44.31 60.8962C45.0584 60.0773 46.1172 59.7845 47.4954 60.0151C49.5409 60.3575 56.7221 61.5707 60.8524 62.2718C67.3006 63.3661 67.6697 63.4149 68.1979 63.2449C68.7381 63.071 69.0192 62.6467 69.104 61.8773C69.1485 61.4726 69.1132 61.1774 68.9811 60.8535C68.6508 60.0431 68.3156 59.9392 64.8023 59.5582C63.2937 59.3946 61.6397 59.2128 61.1267 59.1542C60.6138 59.0956 59.1573 58.9313 57.89 58.789C56.6228 58.6466 55.191 58.4839 54.7082 58.4274C54.2255 58.3709 52.769 58.2079 51.4715 58.0652C50.1741 57.9227 49.031 57.7826 48.9311 57.754C48.5111 57.6338 47.8315 55.7161 47.7657 54.4649C47.7238 53.6674 47.7495 53.4723 47.9436 53.116C48.3475 52.3741 49.285 51.8194 50.5986 51.5443L51.2069 51.4171L57.1269 53.236C60.3828 54.2365 64.0836 55.3739 65.3509 55.7636C68.194 56.638 68.2381 56.6466 68.7449 56.4213C69.7102 55.9922 69.8793 54.4645 69.0315 53.8317C68.3156 53.2974 67.5469 53.1036 58.1095 51.0771C54.6864 50.342 53.836 50.057 52.833 49.3087L52.2743 48.8919L52.2076 47.7765C52.09 45.8131 52.37 44.6958 53.0674 44.3462C53.4322 44.1633 54.4926 44.1866 55.2393 44.3939C55.5506 44.4804 56.6694 44.9938 57.7255 45.5351C60.513 46.9636 63.3378 48.2389 65.4057 49.0028C67.5311 49.7878 69.4872 50.3633 69.7314 50.2755C69.9916 50.182 69.964 48.9461 69.6896 48.4084C69.2234 47.4945 68.684 47.1745 66.3986 46.4556C62.2359 45.1463 57.8877 43.6093 57.6472 43.3623C57.5137 43.2251 57.1976 42.7866 56.9447 42.3879C56.1986 41.2115 56.2106 40.286 56.9826 39.4645C57.5024 38.9112 57.9563 38.696 58.6032 38.696C59.1554 38.696 59.5888 38.8619 60.423 39.3925C60.7799 39.6194 62.1334 40.3828 63.4308 41.0887C64.7282 41.7947 66.6291 42.8399 67.655 43.4115C69.7363 44.5711 69.6796 44.5653 69.8914 43.6401C70.0102 43.1214 69.9138 42.5059 69.6682 42.2146C69.3487 41.8357 68.9889 41.6353 66.3932 40.391C63.0368 38.7819 61.6762 37.946 61.0758 37.1243C60.7044 36.6161 60.6412 36.4508 60.6432 35.9938C60.6445 35.6985 60.7321 35.2906 60.8384 35.0839C61.0929 34.5889 61.7606 33.8655 61.9627 33.8655C62.051 33.8655 62.9626 34.4889 63.9886 35.2509C66.9313 37.4365 67.8495 37.9958 69.3814 38.5355L70.1202 38.7958L70.1906 38.5331C70.3004 38.1233 70.146 37.3519 69.882 36.991C69.631 36.6478 68.9361 36.189 67.3899 35.3456C65.6471 34.395 64.7808 33.3158 64.6637 31.9497L64.6051 31.2662L64.9231 31.3391C65.0981 31.3793 65.9531 31.6681 66.8234 31.9809C69.3819 32.9005 69.9575 33.0508 71.1659 33.1143C72.9686 33.2091 74.1923 32.8104 75.9387 31.5588C76.4516 31.1911 76.9823 30.8892 77.1181 30.8876C77.3539 30.8851 77.3646 30.9206 77.3558 31.6815Z" fill="#00341F"/>
<path fill-rule="evenodd" clip-rule="evenodd" d="M15.6649 71.1212C15.9764 71.2827 16.2309 71.5702 16.2765 71.8121C16.296 71.9158 16.3021 72.2206 16.2899 72.4894C16.265 73.0377 16.1169 73.4422 15.8418 73.7126C15.7104 73.8418 15.6576 73.8597 15.4787 73.8358C15.1515 73.7922 14.861 73.554 14.6561 73.1616C14.4829 72.8298 14.478 72.8032 14.4993 72.3152C14.5281 71.6541 14.6713 71.3073 14.9927 71.1198C15.2672 70.9597 15.3538 70.9599 15.6649 71.1212ZM18.48 73.4157C18.4774 73.6417 18.4577 73.9681 18.4361 74.141C18.4004 74.4267 18.3746 74.475 18.1537 74.6713C18.02 74.7901 17.6767 75.0066 17.3908 75.1525C16.1475 75.7868 15.7769 76.1964 15.8302 76.8774L15.8465 77.0847L16.2787 76.9082C16.9117 76.6499 17.6496 76.1995 18.5579 75.5171L19.361 74.9138H19.8453C20.2556 74.9138 20.347 74.93 20.4437 75.0197C20.5862 75.1518 20.6339 75.3952 20.6077 75.8567C20.5809 76.3292 20.4593 76.4987 19.9886 76.7197C18.2861 77.5188 16.1778 78.6058 16.0137 78.7691C15.8047 78.9771 15.7394 79.1764 15.7955 79.4349C15.8349 79.6168 16.0164 80.005 16.0621 80.005C16.0768 80.005 16.2382 79.9124 16.4207 79.7993C16.6032 79.6862 17.4719 79.1691 18.3512 78.6503C19.2305 78.1315 20.0818 77.6188 20.2431 77.511C21.012 76.9969 21.385 76.9187 21.7873 77.1875C22.0573 77.3679 22.3046 77.714 22.3552 77.9821C22.4028 78.235 22.3109 78.6533 22.1251 79.0293L21.975 79.3329L19.7901 80.1478C16.6296 81.3265 16.3693 81.4307 16.1228 81.6165C15.848 81.8235 15.7134 82.0785 15.7136 82.3915C15.7139 82.6861 15.8044 83.0253 15.8917 83.0587C15.9276 83.0723 16.5915 82.8064 17.3672 82.4677C23.0804 79.9729 22.8664 80.058 23.4226 80.058C23.8951 80.058 24.256 80.398 24.4361 81.0125C24.546 81.3871 24.5448 81.7731 24.4327 82.1031C24.33 82.4057 24.0031 82.895 23.8059 83.0416C23.7086 83.1139 22.8574 83.3051 20.7976 83.7174C16.768 84.5238 16.4956 84.5893 16.1328 84.8388C15.8392 85.0407 15.7315 85.5579 15.9067 85.9252C16.1284 86.39 16.3237 86.3784 18.1862 85.7893C21.0636 84.8791 25.0232 83.6643 25.1121 83.6643C25.257 83.6643 25.8998 84.0097 26.1418 84.2177C26.2646 84.3232 26.4296 84.5407 26.5085 84.7011C26.6363 84.9612 26.6491 85.0364 26.626 85.3945C26.6037 85.7396 26.5652 85.8645 26.3526 86.2815C25.9356 87.0992 26.0805 87.0271 24.533 87.1867C23.8003 87.2623 22.6372 87.3823 21.9484 87.4534C21.2596 87.5246 20.1565 87.6433 19.497 87.7172C18.8375 87.7912 18.0101 87.8762 17.6584 87.906C16.6807 87.9891 16.4684 88.0446 16.2335 88.2783C16.0391 88.4717 16.033 88.4893 16.033 88.857C16.033 89.5723 16.2739 89.8387 16.8857 89.7997C17.0762 89.7876 18.599 89.5344 20.2697 89.237C21.9404 88.9396 23.5112 88.6608 23.7603 88.6174C24.0094 88.574 24.8728 88.4203 25.6788 88.2759C26.4848 88.1315 27.1941 88.0132 27.2549 88.0132C27.4978 88.0128 28.2308 89.0999 28.3809 89.6831C28.5424 90.3103 28.346 91.0574 27.8867 91.5634C27.4605 92.0327 26.9984 92.1404 25.7923 92.0514C23.6445 91.8928 22.7676 91.8458 19.497 91.7136C17.0833 91.6161 16.6334 91.6213 16.4202 91.7496C16.1853 91.8909 16.0671 92.159 16.0686 92.5473C16.07 92.943 16.1893 93.2304 16.4065 93.3619C16.5639 93.4571 16.6705 93.4614 18.2883 93.437C19.2315 93.4227 21.61 93.4356 23.5738 93.4654C26.5712 93.5111 27.217 93.5079 27.5973 93.4457C28.7146 93.2627 29.0821 93.4048 29.3955 94.1408C29.7656 95.0102 29.8677 96.125 29.6334 96.7391C29.5031 97.0805 29.202 97.5132 28.9829 97.6736C28.8558 97.7667 28.8128 97.7675 28.0503 97.6916C26.2499 97.5124 25.7134 97.4127 21.8684 96.5423C21.4874 96.456 20.5282 96.2547 19.7368 96.0949C18.8261 95.9111 18.1218 95.7381 17.8183 95.6236C17.0441 95.3319 16.8742 95.3024 16.6369 95.4188C16.3304 95.569 16.1662 95.9297 16.1662 96.4529C16.1662 96.7844 16.1873 96.8896 16.2778 97.0113C16.4517 97.2448 16.7758 97.4433 17.1255 97.5305C17.4072 97.6006 20.3808 98.0463 26.9934 99.0095C29.2088 99.3322 29.1335 99.3082 29.6992 99.8712C30.2022 100.372 30.5043 101.289 30.321 101.759C30.1354 102.236 30.057 102.393 29.8739 102.659C29.6966 102.916 29.4558 103.154 29.094 103.431C28.9568 103.536 28.7935 103.512 27.7569 103.239C26.3924 102.879 25.1774 102.466 22.8224 101.561C20.5539 100.69 19.9938 100.482 18.838 100.08C18.3944 99.9251 17.8057 99.7105 17.5298 99.6026C16.9496 99.3758 16.756 99.3806 16.5477 99.627C16.2009 100.037 16.1547 100.637 16.4422 100.995C16.7112 101.33 17.06 101.521 17.8643 101.772C18.7637 102.054 24.775 103.834 27.6239 104.663C29.0033 105.064 29.6759 105.284 29.7335 105.351C29.9897 105.653 30.1357 107.456 29.9338 107.822C29.604 108.42 28.9349 108.656 27.544 108.665L26.7713 108.669L25.0393 107.721C24.0867 107.199 23.1874 106.707 23.0409 106.627C22.8943 106.548 22.2708 106.208 21.6553 105.873C21.0398 105.538 20.0086 104.982 19.3637 104.638C18.7189 104.294 18.0305 103.91 17.8338 103.784C17.3138 103.453 17.1795 103.393 16.9658 103.393C16.4846 103.393 16.1892 104.17 16.4522 104.745C16.6086 105.087 16.9382 105.332 17.775 105.729C18.2017 105.932 18.5577 106.097 18.5661 106.097C18.5745 106.097 19.0452 106.314 19.612 106.579C20.5758 107.03 22.7594 108.007 24.8528 108.923C26.2353 109.528 26.569 109.692 26.605 109.786C26.6546 109.914 26.6449 110.122 26.5838 110.236C26.4677 110.452 25.4387 110.58 23.8669 110.574C22.736 110.57 22.6375 110.562 22.1349 110.426C21.4299 110.236 20.734 109.89 20.2431 109.487C19.896 109.202 19.5133 108.912 18.8809 108.453C18.4406 108.133 17.0772 107.37 16.9469 107.37C16.8532 107.37 16.6725 107.893 16.6725 108.164C16.6725 108.673 16.8385 108.919 17.6234 109.571C17.9042 109.804 18.2246 110.115 18.3354 110.26L18.5369 110.526L18.1085 110.562C17.3963 110.623 17.1638 110.754 16.9551 111.215C16.8638 111.417 16.8382 115.234 16.845 116.102L16.8382 117.859H16.6211C16.4652 117.859 16.376 117.859 16.0921 117.859C15.7443 117.859 15.7306 117.859 14.756 117.859C14.1736 117.859 14.0042 117.859 13.9072 117.859C13.7707 117.859 13.8717 117.859 13.3921 117.859C13.3921 117.7 13.3924 114.14 13.3924 113.583C13.3924 113.027 13.3924 118.147 13.3924 117.393C13.3924 116.64 13.3924 116.64 13.3924 115.643C13.3924 111.867 13.3271 116.852 13.3924 114.264C13.3924 112.132 13.3926 112.027 13.3926 111.672C13.63 111.004 13.3459 110.708 12.3728 110.61C11.8847 110.561 11.7527 110.487 11.6898 110.23C11.6583 110.102 11.6895 110.078 12.286 109.78C13.2708 109.288 13.643 108.857 13.5268 108.345C13.4735 108.11 13.3134 107.881 13.1843 107.856C12.9759 107.815 12.7223 107.919 12.2193 108.251C11.928 108.444 11.5459 108.674 11.37 108.762C11.1941 108.85 10.9184 109.025 10.7571 109.151C10.4182 109.415 9.26136 109.998 8.67877 110.198C8.14847 110.381 7.52085 110.532 7.00957 110.602C6.14476 110.719 4.55299 110.639 3.86873 110.445C3.75852 110.413 3.6303 110.33 3.58378 110.259C3.50586 110.141 3.50693 110.115 3.59763 109.932C3.71184 109.701 3.62268 109.749 5.48128 108.903C6.258 108.55 7.19327 108.122 7.55965 107.953C7.92603 107.784 8.65746 107.45 9.18505 107.209C13.1678 105.397 13.4381 105.255 13.7278 104.827C14.0123 104.407 13.7263 103.607 13.2339 103.445C12.9984 103.368 12.7448 103.462 12.276 103.802C12.0708 103.951 11.3993 104.334 10.7838 104.654C10.1683 104.975 8.27413 105.97 6.57456 106.866C4.87498 107.762 3.36645 108.541 3.22225 108.598C2.4128 108.916 1.5895 108.928 0.88946 108.632C0.611757 108.515 0.554203 108.416 0.282522 107.582C0.164375 107.22 0.13469 107.027 0.131226 106.601C0.126269 106 0.171781 105.875 0.541039 105.476C0.828813 105.166 1.19818 104.987 2.04397 104.75C5.00384 103.92 12.829 101.595 13.1286 101.457C13.7326 101.179 14.009 100.826 14.0068 100.335C14.0053 100.021 13.86 99.6861 13.6549 99.525C13.4421 99.3579 13.1447 99.3953 12.5424 99.6651C12.2786 99.7832 11.859 99.9437 11.6098 100.022C10.8456 100.261 9.7947 100.646 7.98598 101.35C4.70914 102.626 4.02024 102.86 2.13899 103.339C1.39168 103.529 1.41598 103.534 0.957994 103.106C0.259608 102.454 -0.0396267 101.831 0.004179 101.119C0.0376461 100.576 0.186757 100.275 0.646717 99.8209C1.17638 99.2982 1.32373 99.2453 2.86999 99.0237C9.47282 98.0772 13.2255 97.5096 13.4638 97.4212C13.7592 97.3117 14.0037 97.1048 14.0951 96.887C14.182 96.6799 14.1895 96.1803 14.1098 95.8949C13.9831 95.4408 13.6848 95.3395 13.0723 95.5427C12.8981 95.6005 11.0889 95.9807 9.05182 96.3875C7.01474 96.7942 4.56003 97.286 3.59689 97.4804L1.84573 97.8337L1.558 97.6365C0.803127 97.1192 0.471332 96.3215 0.627903 95.4005C0.689775 95.0362 1.00281 93.5658 1.02264 93.546C1.02855 93.5402 3.86271 93.5278 7.3208 93.5186L13.6082 93.5019L13.8481 93.3611C14.1544 93.1812 14.2865 93.0375 14.4569 92.6987C14.6221 92.3703 14.6294 92.2084 14.487 92.0283C14.257 91.7373 14.0609 91.7107 12.3726 91.7415C5.98915 91.8579 3.59886 91.881 3.36304 91.8287C2.973 91.7422 2.56186 91.5193 2.23699 91.2184L1.9416 90.9448L2.00811 90.1285C2.08879 89.1384 2.18125 88.7787 2.42916 88.4905C2.79267 88.0679 3.30693 87.9169 3.97632 88.0359C4.96989 88.2126 8.45788 88.8386 10.464 89.2003C13.596 89.765 13.7753 89.7902 14.0319 89.7025C14.2942 89.6127 14.4308 89.3938 14.4719 88.9968C14.4936 88.7879 14.4764 88.6356 14.4123 88.4685C14.2518 88.0503 14.089 87.9967 12.3825 87.8001C11.6498 87.7157 10.8464 87.6219 10.5973 87.5917C10.3481 87.5614 9.64069 87.4766 9.02517 87.4032C8.40965 87.3297 7.7142 87.2458 7.47971 87.2166C7.24523 87.1874 6.53779 87.1033 5.90761 87.0297C5.27744 86.9562 4.72219 86.8839 4.6737 86.8691C4.4697 86.8071 4.13961 85.8176 4.10763 85.172C4.08728 84.7604 4.09975 84.6598 4.19402 84.4759C4.39024 84.0931 4.84556 83.8068 5.48362 83.6649L5.77907 83.5993L8.65447 84.5378C10.236 85.0541 12.0335 85.641 12.649 85.8421C14.0299 86.2933 14.0514 86.2977 14.2975 86.1814C14.7664 85.96 14.8485 85.1718 14.4367 84.8452C14.089 84.5695 13.7156 84.4695 9.13175 83.4238C7.46911 83.0445 7.05605 82.8975 6.56891 82.5114L6.29754 82.2962L6.26514 81.7207C6.20802 80.7076 6.34402 80.1311 6.68274 79.9507C6.85993 79.8563 7.37499 79.8683 7.73764 79.9753C7.88889 80.0199 8.4323 80.2849 8.94523 80.5641C10.2992 81.3012 11.6712 81.9593 12.6756 82.3535C13.708 82.7585 14.6581 83.0555 14.7767 83.0102C14.9031 82.962 14.8896 82.3243 14.7564 82.0468C14.5299 81.5752 14.2679 81.4101 13.1579 81.0392C11.136 80.3635 9.02405 79.5705 8.90723 79.443C8.84238 79.3722 8.68885 79.1459 8.56601 78.9402C8.20363 78.3331 8.20943 77.8556 8.58439 77.4317C8.83689 77.1462 9.05736 77.0352 9.37156 77.0352C9.63978 77.0352 9.85028 77.1208 10.2555 77.3946C10.4288 77.5117 11.0862 77.9055 11.7164 78.2698C12.3466 78.6341 13.2698 79.1734 13.7681 79.4684C14.7791 80.0667 14.7515 80.0637 14.8544 79.5863C14.9121 79.3187 14.8653 79.0011 14.746 78.8507C14.5908 78.6553 14.416 78.5518 13.1553 77.9098C11.525 77.0795 10.8642 76.6482 10.5725 76.2242C10.3922 75.9619 10.3615 75.8766 10.3624 75.6408C10.3631 75.4884 10.4056 75.278 10.4572 75.1713C10.5809 74.9159 10.9051 74.5426 11.0033 74.5426C11.0462 74.5426 11.489 74.8643 11.9873 75.2575C13.4166 76.3852 13.8626 76.6738 14.6067 76.9523L14.9655 77.0867L14.9997 76.9511C15.053 76.7397 14.9781 76.3416 14.8498 76.1554C14.7279 75.9783 14.3904 75.7415 13.6394 75.3063C12.7929 74.8158 12.3721 74.259 12.3152 73.5541L12.2868 73.2013L12.4412 73.239C12.5262 73.2597 12.9415 73.4088 13.3642 73.5701C14.6069 74.0447 14.8865 74.1222 15.4735 74.155C16.349 74.2039 16.9434 73.9982 17.7916 73.3523C18.0408 73.1626 18.2985 73.0068 18.3645 73.006C18.479 73.0047 18.4842 73.023 18.48 73.4157Z" fill="#00341F"/>
<path d="M42.5731 112.899C42.5731 115.582 43.7758 117.882 43.7758 117.882H40.1679C40.1679 117.882 38.9652 117.499 39.5666 112.516C40.1679 107.533 43.4751 106 43.4751 106C43.4751 106 42.5731 110.216 42.5731 112.899Z" fill="#00341F"/>
<path d="M38.8347 114.357C38.8347 116.052 38.1475 117.504 38.1475 117.504H40.2091C40.2091 117.504 40.8963 117.262 40.5527 114.115C40.2091 110.968 38.3193 110 38.3193 110C38.3193 110 38.8347 112.663 38.8347 114.357Z" fill="#00341F"/>
<path d="M36.1544 114.357C36.1544 116.052 35.4672 117.504 35.4672 117.504H37.5289C37.5289 117.504 38.2161 117.262 37.8725 114.115C37.5289 110.968 35.639 110 35.639 110C35.639 110 36.1544 112.663 36.1544 114.357Z" fill="#00341F"/>
<path d="M37.8656 115.631C37.8656 117.043 37.522 118.254 37.522 118.254H38.5529C38.5529 118.254 38.8965 118.052 38.7247 115.429C38.5529 112.807 37.6079 112 37.6079 112C37.6079 112 37.8656 114.219 37.8656 115.631Z" fill="#00341F"/>
<path d="M35.1855 115.631C35.1855 117.043 34.8419 118.254 34.8419 118.254H35.8727C35.8727 118.254 36.2164 118.052 36.0445 115.429C35.8727 112.807 34.9278 112 34.9278 112C34.9278 112 35.1855 114.219 35.1855 115.631Z" fill="#00341F"/>
<path d="M161.545 112.262C161.545 115.087 160.809 117.507 160.809 117.507H163.018C163.018 117.507 163.754 117.104 163.386 111.859C163.018 106.614 160.993 105 160.993 105C160.993 105 161.545 109.438 161.545 112.262Z" fill="#00341F"/>
<path d="M160.074 114.587C160.074 116.37 159.351 117.899 159.351 117.899H161.521C161.521 117.899 162.245 117.645 161.883 114.332C161.521 111.019 159.532 110 159.532 110C159.532 110 160.074 112.803 160.074 114.587Z" fill="#00341F"/>
<path d="M159.055 114.822C159.055 116.309 158.693 117.583 158.693 117.583H159.778C159.778 117.583 160.14 117.37 159.959 114.61C159.778 111.849 158.783 111 158.783 111C158.783 111 159.055 113.336 159.055 114.822Z" fill="#00341F"/>
<path d="M164.989 114.187C164.989 116.205 164.463 117.934 164.463 117.934H166.041C166.041 117.934 166.567 117.646 166.304 113.899C166.041 110.153 164.594 109 164.594 109C164.594 109 164.989 112.17 164.989 114.187Z" fill="#00341F"/>
<path d="M163.939 115.276C163.939 116.55 163.422 117.642 163.422 117.642H164.972C164.972 117.642 165.489 117.46 165.23 115.094C164.972 112.728 163.551 112 163.551 112C163.551 112 163.939 114.002 163.939 115.276Z" fill="#00341F"/>
<path d="M163.21 115.73C163.21 116.792 162.951 117.702 162.951 117.702H163.727C163.727 117.702 163.985 117.55 163.856 115.579C163.727 113.607 163.016 113 163.016 113C163.016 113 163.21 114.668 163.21 115.73Z" fill="#00341F"/>
<path d="M186.383 114.669C186.383 116.484 187.61 118.04 187.61 118.04H183.929C183.929 118.04 182.702 117.781 183.315 114.409C183.929 111.037 187.303 110 187.303 110C187.303 110 186.383 112.853 186.383 114.669Z" fill="#00341F"/>
<path d="M184.685 114.669C184.685 116.484 184.93 118.04 184.93 118.04H184.194C184.194 118.04 183.948 117.781 184.071 114.409C184.194 111.037 184.869 110 184.869 110C184.869 110 184.685 112.853 184.685 114.669Z" fill="#00341F"/>
<path d="M182.283 114.822C182.283 116.309 181.921 117.583 181.921 117.583H183.006C183.006 117.583 183.368 117.37 183.187 114.61C183.006 111.849 182.012 111 182.012 111C182.012 111 182.283 113.336 182.283 114.822Z" fill="#00341F"/>
<path d="M47.0155 114.669C47.0155 116.484 48.2427 118.04 48.2427 118.04H44.5612C44.5612 118.04 43.334 117.781 43.9476 114.409C44.5612 111.037 47.9359 110 47.9359 110C47.9359 110 47.0155 112.853 47.0155 114.669Z" fill="#00341F"/>
<path d="M45.3171 114.669C45.3171 116.484 45.5625 118.04 45.5625 118.04H44.8262C44.8262 118.04 44.5808 117.781 44.7035 114.409C44.8262 111.037 45.5011 110 45.5011 110C45.5011 110 45.3171 112.853 45.3171 114.669Z" fill="#00341F"/>
<path d="M43.8085 114.822C43.8085 116.309 43.4468 117.583 43.4468 117.583H44.5319C44.5319 117.583 44.8936 117.37 44.7128 114.61C44.5319 111.849 43.5373 111 43.5373 111C43.5373 111 43.8085 113.336 43.8085 114.822Z" fill="#00341F"/>
<path d="M109.577 112.899C109.577 115.582 110.779 117.882 110.779 117.882H107.172C107.172 117.882 105.969 117.499 106.57 112.516C107.172 107.533 110.479 106 110.479 106C110.479 106 109.577 110.216 109.577 112.899Z" fill="#00341F"/>
<path d="M105.838 114.357C105.838 116.052 105.151 117.504 105.151 117.504H107.213C107.213 117.504 107.9 117.262 107.556 114.115C107.213 110.968 105.323 110 105.323 110C105.323 110 105.838 112.663 105.838 114.357Z" fill="#00341F"/>
<path d="M103.158 114.357C103.158 116.052 102.471 117.504 102.471 117.504H104.533C104.533 117.504 105.22 117.262 104.876 114.115C104.533 110.968 102.643 110 102.643 110C102.643 110 103.158 112.663 103.158 114.357Z" fill="#00341F"/>
<path d="M104.869 115.631C104.869 117.043 104.526 118.254 104.526 118.254H105.557C105.557 118.254 105.9 118.052 105.728 115.429C105.557 112.807 104.612 112 104.612 112C104.612 112 104.869 114.219 104.869 115.631Z" fill="#00341F"/>
<path d="M102.189 115.631C102.189 117.043 101.846 118.254 101.846 118.254H102.876C102.876 118.254 103.22 118.052 103.048 115.429C102.876 112.807 101.931 112 101.931 112C101.931 112 102.189 114.219 102.189 115.631Z" fill="#00341F"/>
</svg>
