<svg width="45" height="58" viewBox="0 0 45 58" fill="none" xmlns="http://www.w3.org/2000/svg">
<path d="M22.7544 56.2214C23.1364 53.7645 22.7544 49.8714 22.7544 49.8714C22.7544 49.8714 25.7949 49.9861 27.6842 49.6486C28.588 49.4871 29.1803 49.5264 29.9595 49.0916C30.5492 48.7624 31.2235 47.9775 31.2235 47.9775V49.4258C31.2235 50.2089 31.1445 50.651 31.2235 51.431C31.3544 52.7238 31.9463 53.3717 32.1083 54.6617C32.2495 55.786 32.1083 57.5582 32.1083 57.5582C32.1083 57.5582 30.8011 57.7149 29.9595 57.781C28.0904 57.9279 27.0321 57.9276 25.1561 57.8924C24.1185 57.873 22.5016 57.781 22.5016 57.781V57.5582C22.5016 57.5582 22.6729 56.7457 22.7544 56.2214Z" fill="white"/>
<path fill-rule="evenodd" clip-rule="evenodd" d="M18.3287 0C18.3287 0 18.7594 1.52963 19.2135 2.45087C20.1578 4.36663 21.0617 5.3322 22.7528 6.79559C24.1124 7.97216 25.0346 8.49801 26.6713 9.35786C29.3565 10.7685 34.1292 11.9201 34.1292 11.9201C34.1292 11.9201 32.8942 15.0548 31.6011 16.8219C30.1991 18.7378 27.177 21.1666 27.177 21.1666C27.177 21.1666 31.699 21.9353 34.6348 22.0578C37.7941 22.1896 42.7247 21.7236 42.7247 21.7236L42.3455 22.6148C42.3455 22.6148 41.2951 26.0202 39.9438 28.0736C39.7652 28.345 39.6045 28.5954 39.4528 28.8317C38.8288 29.8038 38.3576 30.5381 37.4157 31.5271C35.908 33.1102 32.8652 34.9806 32.8652 34.9806C32.8652 34.9806 34.3951 35.363 35.3933 35.5376C37.2434 35.8612 38.3104 35.9832 40.1966 35.9832C41.7135 35.9832 43.9888 36.206 43.9888 36.206H45C45 36.206 42.5325 39.6324 40.7022 41.6647C40.3087 42.1017 39.9412 42.5169 39.5898 42.9138C37.4221 45.3627 35.8688 47.1175 32.6124 49.0173C28.5751 51.3727 25.7659 52.1415 20.9831 52.805C20.8563 52.8227 20.7326 52.8399 20.6119 52.8568C18.7315 53.1193 17.5402 53.2857 15.5478 53.1393C11.8644 52.8686 9.19974 51.9714 5.95895 50.8802C5.66323 50.7806 5.36271 50.6795 5.05618 50.577C2.85568 49.8414 0 48.9059 0 48.9059C0 48.9059 5.85951 46.0814 8.97472 43.5586C9.09393 43.4621 9.21146 43.367 9.32736 43.2733C12.2523 40.9075 14.1366 39.3835 15.8006 36.0946C16.519 34.6747 17.191 32.3069 17.191 32.3069H16.3062L3.41292 33.1981C3.41292 33.1981 8.02462 30.2107 10.4916 27.8508C13.8219 24.6649 15.5046 22.5847 17.4438 18.6043C17.82 17.8322 18.3287 16.5991 18.3287 16.5991L10.7444 13.9254C10.7444 13.9254 12.6735 12.7894 13.7781 11.9201C15.2122 10.7915 17.0646 8.68944 17.0646 8.68944C17.0646 8.68944 18.0524 6.42424 18.3287 4.90173C18.6716 3.0115 18.3287 0 18.3287 0ZM29.1359 30.1941C28.5373 29.2677 27.6079 28.6799 26.6819 28.2993C25.7486 27.9157 24.724 27.7034 23.8035 27.5842C22.8767 27.4643 22.0143 27.4338 21.3865 27.4327C21.0714 27.4322 20.8121 27.439 20.6295 27.4462C20.5382 27.4497 20.4658 27.4534 20.415 27.4562L20.3552 27.4598L20.338 27.4609L20.3327 27.4613L20.3309 27.4614L20.3302 27.4614C20.3299 27.4615 20.3296 27.4615 20.4086 28.5719L20.3296 27.4615L19.2954 27.535V28.5719V39.7038V40.7407L20.3296 40.8142L20.4086 39.7038C20.3296 40.8142 20.3299 40.8142 20.3302 40.8142L20.3309 40.8143L20.3327 40.8144L20.338 40.8148L20.3552 40.8159L20.415 40.8195C20.4658 40.8223 20.5382 40.8259 20.6295 40.8295C20.8121 40.8366 21.0714 40.8435 21.3865 40.8429C22.0143 40.8418 22.8767 40.8114 23.8035 40.6914C24.724 40.5723 25.7486 40.3599 26.6819 39.9764C27.6079 39.5958 28.5373 39.008 29.1359 38.0816C29.9423 36.8336 30.3758 35.5047 30.3758 34.1378C30.3758 32.7709 29.9423 31.4421 29.1359 30.1941ZM21.5218 38.6158V29.6599C22.0699 29.665 22.7756 29.6962 23.5178 29.7922C24.3307 29.8974 25.1468 30.0755 25.8356 30.3586C26.5317 30.6447 27.0057 30.9997 27.2659 31.4024C27.8751 32.3452 28.1494 33.2606 28.1494 34.1378C28.1494 35.0151 27.8751 35.9305 27.2659 36.8733C27.0057 37.2759 26.5317 37.631 25.8356 37.9171C25.1468 38.2002 24.3307 38.3783 23.5178 38.4835C22.7756 38.5795 22.0699 38.6106 21.5218 38.6158Z" fill="white"/>
</svg>
